<?xml version="1.0" encoding="utf-8"?>
<svg xmlns="http://www.w3.org/2000/svg" xmlns:xlink="http://www.w3.org/1999/xlink" width="400" height="400" viewBox="0 0 1600 1600">
<defs>
  <clipPath id="clip280">
    <rect x="0" y="0" width="1600" height="1600"/>
  </clipPath>
</defs>
<path clip-path="url(#clip280)" d="M0 1600 L1600 1600 L1600 0 L0 0  Z" fill="#ffffff" fill-rule="evenodd" fill-opacity="1"/>
<defs>
  <clipPath id="clip281">
    <rect x="320" y="160" width="1121" height="1121"/>
  </clipPath>
</defs>
<path clip-path="url(#clip280)" d="M303.126 1382.14 L1552.76 1382.14 L1552.76 153.712 L303.126 153.712  Z" fill="#ffffff" fill-rule="evenodd" fill-opacity="1"/>
<defs>
  <clipPath id="clip282">
    <rect x="303" y="153" width="1251" height="1229"/>
  </clipPath>
</defs>
<polyline clip-path="url(#clip282)" style="stroke:#000000; stroke-linecap:round; stroke-linejoin:round; stroke-width:2; stroke-opacity:0.1; fill:none" points="305.319,1382.14 305.319,153.712 "/>
<polyline clip-path="url(#clip282)" style="stroke:#000000; stroke-linecap:round; stroke-linejoin:round; stroke-width:2; stroke-opacity:0.1; fill:none" points="616.63,1382.14 616.63,153.712 "/>
<polyline clip-path="url(#clip282)" style="stroke:#000000; stroke-linecap:round; stroke-linejoin:round; stroke-width:2; stroke-opacity:0.1; fill:none" points="927.941,1382.14 927.941,153.712 "/>
<polyline clip-path="url(#clip282)" style="stroke:#000000; stroke-linecap:round; stroke-linejoin:round; stroke-width:2; stroke-opacity:0.1; fill:none" points="1239.25,1382.14 1239.25,153.712 "/>
<polyline clip-path="url(#clip282)" style="stroke:#000000; stroke-linecap:round; stroke-linejoin:round; stroke-width:2; stroke-opacity:0.1; fill:none" points="1550.56,1382.14 1550.56,153.712 "/>
<polyline clip-path="url(#clip280)" style="stroke:#000000; stroke-linecap:round; stroke-linejoin:round; stroke-width:4; stroke-opacity:1; fill:none" points="303.126,1382.14 1552.76,1382.14 "/>
<polyline clip-path="url(#clip280)" style="stroke:#000000; stroke-linecap:round; stroke-linejoin:round; stroke-width:4; stroke-opacity:1; fill:none" points="305.319,1382.14 305.319,1401.04 "/>
<polyline clip-path="url(#clip280)" style="stroke:#000000; stroke-linecap:round; stroke-linejoin:round; stroke-width:4; stroke-opacity:1; fill:none" points="616.63,1382.14 616.63,1401.04 "/>
<polyline clip-path="url(#clip280)" style="stroke:#000000; stroke-linecap:round; stroke-linejoin:round; stroke-width:4; stroke-opacity:1; fill:none" points="927.941,1382.14 927.941,1401.04 "/>
<polyline clip-path="url(#clip280)" style="stroke:#000000; stroke-linecap:round; stroke-linejoin:round; stroke-width:4; stroke-opacity:1; fill:none" points="1239.25,1382.14 1239.25,1401.04 "/>
<polyline clip-path="url(#clip280)" style="stroke:#000000; stroke-linecap:round; stroke-linejoin:round; stroke-width:4; stroke-opacity:1; fill:none" points="1550.56,1382.14 1550.56,1401.04 "/>
<path clip-path="url(#clip280)" d="M251.847 1427.71 L281.523 1427.71 L281.523 1431.65 L251.847 1431.65 L251.847 1427.71 Z" fill="#000000" fill-rule="nonzero" fill-opacity="1" /><path clip-path="url(#clip280)" d="M292.426 1440.6 L300.065 1440.6 L300.065 1414.24 L291.755 1415.91 L291.755 1411.65 L300.019 1409.98 L304.694 1409.98 L304.694 1440.6 L312.333 1440.6 L312.333 1444.54 L292.426 1444.54 L292.426 1440.6 Z" fill="#000000" fill-rule="nonzero" fill-opacity="1" /><path clip-path="url(#clip280)" d="M321.778 1438.66 L326.662 1438.66 L326.662 1444.54 L321.778 1444.54 L321.778 1438.66 Z" fill="#000000" fill-rule="nonzero" fill-opacity="1" /><path clip-path="url(#clip280)" d="M346.847 1413.06 Q343.236 1413.06 341.407 1416.62 Q339.602 1420.16 339.602 1427.29 Q339.602 1434.4 341.407 1437.97 Q343.236 1441.51 346.847 1441.51 Q350.481 1441.51 352.287 1437.97 Q354.115 1434.4 354.115 1427.29 Q354.115 1420.16 352.287 1416.62 Q350.481 1413.06 346.847 1413.06 M346.847 1409.35 Q352.657 1409.35 355.713 1413.96 Q358.791 1418.54 358.791 1427.29 Q358.791 1436.02 355.713 1440.63 Q352.657 1445.21 346.847 1445.21 Q341.037 1445.21 337.958 1440.63 Q334.903 1436.02 334.903 1427.29 Q334.903 1418.54 337.958 1413.96 Q341.037 1409.35 346.847 1409.35 Z" fill="#000000" fill-rule="nonzero" fill-opacity="1" /><path clip-path="url(#clip280)" d="M563.656 1427.71 L593.332 1427.71 L593.332 1431.65 L563.656 1431.65 L563.656 1427.71 Z" fill="#000000" fill-rule="nonzero" fill-opacity="1" /><path clip-path="url(#clip280)" d="M613.424 1413.06 Q609.813 1413.06 607.984 1416.62 Q606.179 1420.16 606.179 1427.29 Q606.179 1434.4 607.984 1437.97 Q609.813 1441.51 613.424 1441.51 Q617.058 1441.51 618.864 1437.97 Q620.693 1434.4 620.693 1427.29 Q620.693 1420.16 618.864 1416.62 Q617.058 1413.06 613.424 1413.06 M613.424 1409.35 Q619.234 1409.35 622.29 1413.96 Q625.369 1418.54 625.369 1427.29 Q625.369 1436.02 622.29 1440.63 Q619.234 1445.21 613.424 1445.21 Q607.614 1445.21 604.535 1440.63 Q601.48 1436.02 601.48 1427.29 Q601.48 1418.54 604.535 1413.96 Q607.614 1409.35 613.424 1409.35 Z" fill="#000000" fill-rule="nonzero" fill-opacity="1" /><path clip-path="url(#clip280)" d="M633.586 1438.66 L638.47 1438.66 L638.47 1444.54 L633.586 1444.54 L633.586 1438.66 Z" fill="#000000" fill-rule="nonzero" fill-opacity="1" /><path clip-path="url(#clip280)" d="M648.702 1409.98 L667.058 1409.98 L667.058 1413.92 L652.984 1413.92 L652.984 1422.39 Q654.003 1422.04 655.021 1421.88 Q656.04 1421.69 657.058 1421.69 Q662.845 1421.69 666.225 1424.86 Q669.604 1428.04 669.604 1433.45 Q669.604 1439.03 666.132 1442.13 Q662.66 1445.21 656.341 1445.21 Q654.165 1445.21 651.896 1444.84 Q649.651 1444.47 647.243 1443.73 L647.243 1439.03 Q649.327 1440.16 651.549 1440.72 Q653.771 1441.28 656.248 1441.28 Q660.253 1441.28 662.591 1439.17 Q664.929 1437.06 664.929 1433.45 Q664.929 1429.84 662.591 1427.73 Q660.253 1425.63 656.248 1425.63 Q654.373 1425.63 652.498 1426.04 Q650.646 1426.46 648.702 1427.34 L648.702 1409.98 Z" fill="#000000" fill-rule="nonzero" fill-opacity="1" /><path clip-path="url(#clip280)" d="M905.325 1413.06 Q901.714 1413.06 899.885 1416.62 Q898.08 1420.16 898.08 1427.29 Q898.08 1434.4 899.885 1437.97 Q901.714 1441.51 905.325 1441.51 Q908.96 1441.51 910.765 1437.97 Q912.594 1434.4 912.594 1427.29 Q912.594 1420.16 910.765 1416.62 Q908.96 1413.06 905.325 1413.06 M905.325 1409.35 Q911.135 1409.35 914.191 1413.96 Q917.27 1418.54 917.27 1427.29 Q917.27 1436.02 914.191 1440.63 Q911.135 1445.21 905.325 1445.21 Q899.515 1445.21 896.436 1440.63 Q893.381 1436.02 893.381 1427.29 Q893.381 1418.54 896.436 1413.96 Q899.515 1409.35 905.325 1409.35 Z" fill="#000000" fill-rule="nonzero" fill-opacity="1" /><path clip-path="url(#clip280)" d="M925.487 1438.66 L930.371 1438.66 L930.371 1444.54 L925.487 1444.54 L925.487 1438.66 Z" fill="#000000" fill-rule="nonzero" fill-opacity="1" /><path clip-path="url(#clip280)" d="M950.557 1413.06 Q946.945 1413.06 945.117 1416.62 Q943.311 1420.16 943.311 1427.29 Q943.311 1434.4 945.117 1437.97 Q946.945 1441.51 950.557 1441.51 Q954.191 1441.51 955.996 1437.97 Q957.825 1434.4 957.825 1427.29 Q957.825 1420.16 955.996 1416.62 Q954.191 1413.06 950.557 1413.06 M950.557 1409.35 Q956.367 1409.35 959.422 1413.96 Q962.501 1418.54 962.501 1427.29 Q962.501 1436.02 959.422 1440.63 Q956.367 1445.21 950.557 1445.21 Q944.746 1445.21 941.668 1440.63 Q938.612 1436.02 938.612 1427.29 Q938.612 1418.54 941.668 1413.96 Q944.746 1409.35 950.557 1409.35 Z" fill="#000000" fill-rule="nonzero" fill-opacity="1" /><path clip-path="url(#clip280)" d="M1217.13 1413.06 Q1213.52 1413.06 1211.69 1416.62 Q1209.89 1420.16 1209.89 1427.29 Q1209.89 1434.4 1211.69 1437.97 Q1213.52 1441.51 1217.13 1441.51 Q1220.77 1441.51 1222.57 1437.97 Q1224.4 1434.4 1224.4 1427.29 Q1224.4 1420.16 1222.57 1416.62 Q1220.77 1413.06 1217.13 1413.06 M1217.13 1409.35 Q1222.94 1409.35 1226 1413.96 Q1229.08 1418.54 1229.08 1427.29 Q1229.08 1436.02 1226 1440.63 Q1222.94 1445.21 1217.13 1445.21 Q1211.32 1445.21 1208.24 1440.63 Q1205.19 1436.02 1205.19 1427.29 Q1205.19 1418.54 1208.24 1413.96 Q1211.32 1409.35 1217.13 1409.35 Z" fill="#000000" fill-rule="nonzero" fill-opacity="1" /><path clip-path="url(#clip280)" d="M1237.3 1438.66 L1242.18 1438.66 L1242.18 1444.54 L1237.3 1444.54 L1237.3 1438.66 Z" fill="#000000" fill-rule="nonzero" fill-opacity="1" /><path clip-path="url(#clip280)" d="M1252.41 1409.98 L1270.77 1409.98 L1270.77 1413.92 L1256.69 1413.92 L1256.69 1422.39 Q1257.71 1422.04 1258.73 1421.88 Q1259.75 1421.69 1260.77 1421.69 Q1266.55 1421.69 1269.93 1424.86 Q1273.31 1428.04 1273.31 1433.45 Q1273.31 1439.03 1269.84 1442.13 Q1266.37 1445.21 1260.05 1445.21 Q1257.87 1445.21 1255.61 1444.84 Q1253.36 1444.47 1250.95 1443.73 L1250.95 1439.03 Q1253.04 1440.16 1255.26 1440.72 Q1257.48 1441.28 1259.96 1441.28 Q1263.96 1441.28 1266.3 1439.17 Q1268.64 1437.06 1268.64 1433.45 Q1268.64 1429.84 1266.3 1427.73 Q1263.96 1425.63 1259.96 1425.63 Q1258.08 1425.63 1256.21 1426.04 Q1254.36 1426.46 1252.41 1427.34 L1252.41 1409.98 Z" fill="#000000" fill-rule="nonzero" fill-opacity="1" /><path clip-path="url(#clip280)" d="M1517.72 1440.6 L1525.35 1440.6 L1525.35 1414.24 L1517.04 1415.91 L1517.04 1411.65 L1525.31 1409.98 L1529.98 1409.98 L1529.98 1440.6 L1537.62 1440.6 L1537.62 1444.54 L1517.72 1444.54 L1517.72 1440.6 Z" fill="#000000" fill-rule="nonzero" fill-opacity="1" /><path clip-path="url(#clip280)" d="M1547.07 1438.66 L1551.95 1438.66 L1551.95 1444.54 L1547.07 1444.54 L1547.07 1438.66 Z" fill="#000000" fill-rule="nonzero" fill-opacity="1" /><path clip-path="url(#clip280)" d="M1572.14 1413.06 Q1568.53 1413.06 1566.7 1416.62 Q1564.89 1420.16 1564.89 1427.29 Q1564.89 1434.4 1566.7 1437.97 Q1568.53 1441.51 1572.14 1441.51 Q1575.77 1441.51 1577.58 1437.97 Q1579.4 1434.4 1579.4 1427.29 Q1579.4 1420.16 1577.58 1416.62 Q1575.77 1413.06 1572.14 1413.06 M1572.14 1409.35 Q1577.95 1409.35 1581 1413.96 Q1584.08 1418.54 1584.08 1427.29 Q1584.08 1436.02 1581 1440.63 Q1577.95 1445.21 1572.14 1445.21 Q1566.33 1445.21 1563.25 1440.63 Q1560.19 1436.02 1560.19 1427.29 Q1560.19 1418.54 1563.25 1413.96 Q1566.33 1409.35 1572.14 1409.35 Z" fill="#000000" fill-rule="nonzero" fill-opacity="1" /><path clip-path="url(#clip280)" d="M876.856 1467.48 L883.285 1467.48 L883.285 1509.59 L906.425 1509.59 L906.425 1515 L876.856 1515 L876.856 1467.48 Z" fill="#000000" fill-rule="nonzero" fill-opacity="1" /><path clip-path="url(#clip280)" d="M908.812 1494.54 L925.968 1494.54 L925.968 1499.76 L908.812 1499.76 L908.812 1494.54 Z" fill="#000000" fill-rule="nonzero" fill-opacity="1" /><path clip-path="url(#clip280)" d="M935.548 1467.48 L945.128 1467.48 L957.255 1499.82 L969.445 1467.48 L979.026 1467.48 L979.026 1515 L972.755 1515 L972.755 1473.28 L960.501 1505.87 L954.04 1505.87 L941.786 1473.28 L941.786 1515 L935.548 1515 L935.548 1467.48 Z" fill="#000000" fill-rule="nonzero" fill-opacity="1" /><polyline clip-path="url(#clip282)" style="stroke:#000000; stroke-linecap:round; stroke-linejoin:round; stroke-width:2; stroke-opacity:0.1; fill:none" points="303.126,1234.89 1552.76,1234.89 "/>
<polyline clip-path="url(#clip282)" style="stroke:#000000; stroke-linecap:round; stroke-linejoin:round; stroke-width:2; stroke-opacity:0.1; fill:none" points="303.126,1079.24 1552.76,1079.24 "/>
<polyline clip-path="url(#clip282)" style="stroke:#000000; stroke-linecap:round; stroke-linejoin:round; stroke-width:2; stroke-opacity:0.1; fill:none" points="303.126,923.581 1552.76,923.581 "/>
<polyline clip-path="url(#clip282)" style="stroke:#000000; stroke-linecap:round; stroke-linejoin:round; stroke-width:2; stroke-opacity:0.1; fill:none" points="303.126,767.926 1552.76,767.926 "/>
<polyline clip-path="url(#clip282)" style="stroke:#000000; stroke-linecap:round; stroke-linejoin:round; stroke-width:2; stroke-opacity:0.1; fill:none" points="303.126,612.271 1552.76,612.271 "/>
<polyline clip-path="url(#clip282)" style="stroke:#000000; stroke-linecap:round; stroke-linejoin:round; stroke-width:2; stroke-opacity:0.1; fill:none" points="303.126,456.615 1552.76,456.615 "/>
<polyline clip-path="url(#clip282)" style="stroke:#000000; stroke-linecap:round; stroke-linejoin:round; stroke-width:2; stroke-opacity:0.1; fill:none" points="303.126,300.96 1552.76,300.96 "/>
<polyline clip-path="url(#clip280)" style="stroke:#000000; stroke-linecap:round; stroke-linejoin:round; stroke-width:4; stroke-opacity:1; fill:none" points="303.126,1382.14 303.126,153.712 "/>
<polyline clip-path="url(#clip280)" style="stroke:#000000; stroke-linecap:round; stroke-linejoin:round; stroke-width:4; stroke-opacity:1; fill:none" points="303.126,1234.89 284.228,1234.89 "/>
<polyline clip-path="url(#clip280)" style="stroke:#000000; stroke-linecap:round; stroke-linejoin:round; stroke-width:4; stroke-opacity:1; fill:none" points="303.126,1079.24 284.228,1079.24 "/>
<polyline clip-path="url(#clip280)" style="stroke:#000000; stroke-linecap:round; stroke-linejoin:round; stroke-width:4; stroke-opacity:1; fill:none" points="303.126,923.581 284.228,923.581 "/>
<polyline clip-path="url(#clip280)" style="stroke:#000000; stroke-linecap:round; stroke-linejoin:round; stroke-width:4; stroke-opacity:1; fill:none" points="303.126,767.926 284.228,767.926 "/>
<polyline clip-path="url(#clip280)" style="stroke:#000000; stroke-linecap:round; stroke-linejoin:round; stroke-width:4; stroke-opacity:1; fill:none" points="303.126,612.271 284.228,612.271 "/>
<polyline clip-path="url(#clip280)" style="stroke:#000000; stroke-linecap:round; stroke-linejoin:round; stroke-width:4; stroke-opacity:1; fill:none" points="303.126,456.615 284.228,456.615 "/>
<polyline clip-path="url(#clip280)" style="stroke:#000000; stroke-linecap:round; stroke-linejoin:round; stroke-width:4; stroke-opacity:1; fill:none" points="303.126,300.96 284.228,300.96 "/>
<path clip-path="url(#clip280)" d="M131.016 1235.34 L160.691 1235.34 L160.691 1239.28 L131.016 1239.28 L131.016 1235.34 Z" fill="#000000" fill-rule="nonzero" fill-opacity="1" /><path clip-path="url(#clip280)" d="M180.784 1220.69 Q177.173 1220.69 175.344 1224.26 Q173.538 1227.8 173.538 1234.93 Q173.538 1242.03 175.344 1245.6 Q177.173 1249.14 180.784 1249.14 Q184.418 1249.14 186.224 1245.6 Q188.052 1242.03 188.052 1234.93 Q188.052 1227.8 186.224 1224.26 Q184.418 1220.69 180.784 1220.69 M180.784 1216.99 Q186.594 1216.99 189.649 1221.59 Q192.728 1226.18 192.728 1234.93 Q192.728 1243.65 189.649 1248.26 Q186.594 1252.84 180.784 1252.84 Q174.974 1252.84 171.895 1248.26 Q168.839 1243.65 168.839 1234.93 Q168.839 1226.18 171.895 1221.59 Q174.974 1216.99 180.784 1216.99 Z" fill="#000000" fill-rule="nonzero" fill-opacity="1" /><path clip-path="url(#clip280)" d="M200.946 1246.29 L205.83 1246.29 L205.83 1252.17 L200.946 1252.17 L200.946 1246.29 Z" fill="#000000" fill-rule="nonzero" fill-opacity="1" /><path clip-path="url(#clip280)" d="M214.835 1217.61 L237.057 1217.61 L237.057 1219.6 L224.51 1252.17 L219.626 1252.17 L231.432 1221.55 L214.835 1221.55 L214.835 1217.61 Z" fill="#000000" fill-rule="nonzero" fill-opacity="1" /><path clip-path="url(#clip280)" d="M246.223 1217.61 L264.58 1217.61 L264.58 1221.55 L250.506 1221.55 L250.506 1230.02 Q251.524 1229.67 252.543 1229.51 Q253.561 1229.33 254.58 1229.33 Q260.367 1229.33 263.746 1232.5 Q267.126 1235.67 267.126 1241.08 Q267.126 1246.66 263.654 1249.76 Q260.181 1252.84 253.862 1252.84 Q251.686 1252.84 249.418 1252.47 Q247.172 1252.1 244.765 1251.36 L244.765 1246.66 Q246.848 1247.8 249.07 1248.35 Q251.293 1248.91 253.769 1248.91 Q257.774 1248.91 260.112 1246.8 Q262.45 1244.7 262.45 1241.08 Q262.45 1237.47 260.112 1235.37 Q257.774 1233.26 253.769 1233.26 Q251.895 1233.26 250.02 1233.68 Q248.168 1234.09 246.223 1234.97 L246.223 1217.61 Z" fill="#000000" fill-rule="nonzero" fill-opacity="1" /><path clip-path="url(#clip280)" d="M130.02 1079.69 L159.696 1079.69 L159.696 1083.62 L130.02 1083.62 L130.02 1079.69 Z" fill="#000000" fill-rule="nonzero" fill-opacity="1" /><path clip-path="url(#clip280)" d="M179.788 1065.04 Q176.177 1065.04 174.349 1068.6 Q172.543 1072.14 172.543 1079.27 Q172.543 1086.38 174.349 1089.94 Q176.177 1093.48 179.788 1093.48 Q183.423 1093.48 185.228 1089.94 Q187.057 1086.38 187.057 1079.27 Q187.057 1072.14 185.228 1068.6 Q183.423 1065.04 179.788 1065.04 M179.788 1061.33 Q185.599 1061.33 188.654 1065.94 Q191.733 1070.52 191.733 1079.27 Q191.733 1088 188.654 1092.6 Q185.599 1097.19 179.788 1097.19 Q173.978 1097.19 170.9 1092.6 Q167.844 1088 167.844 1079.27 Q167.844 1070.52 170.9 1065.94 Q173.978 1061.33 179.788 1061.33 Z" fill="#000000" fill-rule="nonzero" fill-opacity="1" /><path clip-path="url(#clip280)" d="M199.95 1090.64 L204.835 1090.64 L204.835 1096.52 L199.95 1096.52 L199.95 1090.64 Z" fill="#000000" fill-rule="nonzero" fill-opacity="1" /><path clip-path="url(#clip280)" d="M215.066 1061.96 L233.422 1061.96 L233.422 1065.89 L219.348 1065.89 L219.348 1074.36 Q220.367 1074.02 221.385 1073.85 Q222.404 1073.67 223.422 1073.67 Q229.209 1073.67 232.589 1076.84 Q235.969 1080.01 235.969 1085.43 Q235.969 1091.01 232.496 1094.11 Q229.024 1097.19 222.705 1097.19 Q220.529 1097.19 218.26 1096.82 Q216.015 1096.45 213.608 1095.71 L213.608 1091.01 Q215.691 1092.14 217.913 1092.7 Q220.135 1093.25 222.612 1093.25 Q226.617 1093.25 228.955 1091.15 Q231.293 1089.04 231.293 1085.43 Q231.293 1081.82 228.955 1079.71 Q226.617 1077.6 222.612 1077.6 Q220.737 1077.6 218.862 1078.02 Q217.01 1078.44 215.066 1079.32 L215.066 1061.96 Z" fill="#000000" fill-rule="nonzero" fill-opacity="1" /><path clip-path="url(#clip280)" d="M255.182 1065.04 Q251.57 1065.04 249.742 1068.6 Q247.936 1072.14 247.936 1079.27 Q247.936 1086.38 249.742 1089.94 Q251.57 1093.48 255.182 1093.48 Q258.816 1093.48 260.621 1089.94 Q262.45 1086.38 262.45 1079.27 Q262.45 1072.14 260.621 1068.6 Q258.816 1065.04 255.182 1065.04 M255.182 1061.33 Q260.992 1061.33 264.047 1065.94 Q267.126 1070.52 267.126 1079.27 Q267.126 1088 264.047 1092.6 Q260.992 1097.19 255.182 1097.19 Q249.371 1097.19 246.293 1092.6 Q243.237 1088 243.237 1079.27 Q243.237 1070.52 246.293 1065.94 Q249.371 1061.33 255.182 1061.33 Z" fill="#000000" fill-rule="nonzero" fill-opacity="1" /><path clip-path="url(#clip280)" d="M131.016 924.033 L160.691 924.033 L160.691 927.968 L131.016 927.968 L131.016 924.033 Z" fill="#000000" fill-rule="nonzero" fill-opacity="1" /><path clip-path="url(#clip280)" d="M180.784 909.38 Q177.173 909.38 175.344 912.945 Q173.538 916.486 173.538 923.616 Q173.538 930.723 175.344 934.287 Q177.173 937.829 180.784 937.829 Q184.418 937.829 186.224 934.287 Q188.052 930.723 188.052 923.616 Q188.052 916.486 186.224 912.945 Q184.418 909.38 180.784 909.38 M180.784 905.676 Q186.594 905.676 189.649 910.283 Q192.728 914.866 192.728 923.616 Q192.728 932.343 189.649 936.949 Q186.594 941.533 180.784 941.533 Q174.974 941.533 171.895 936.949 Q168.839 932.343 168.839 923.616 Q168.839 914.866 171.895 910.283 Q174.974 905.676 180.784 905.676 Z" fill="#000000" fill-rule="nonzero" fill-opacity="1" /><path clip-path="url(#clip280)" d="M200.946 934.982 L205.83 934.982 L205.83 940.861 L200.946 940.861 L200.946 934.982 Z" fill="#000000" fill-rule="nonzero" fill-opacity="1" /><path clip-path="url(#clip280)" d="M220.043 936.926 L236.362 936.926 L236.362 940.861 L214.418 940.861 L214.418 936.926 Q217.08 934.172 221.663 929.542 Q226.27 924.889 227.45 923.547 Q229.696 921.024 230.575 919.287 Q231.478 917.528 231.478 915.838 Q231.478 913.084 229.534 911.348 Q227.612 909.612 224.51 909.612 Q222.311 909.612 219.858 910.375 Q217.427 911.139 214.649 912.69 L214.649 907.968 Q217.473 906.834 219.927 906.255 Q222.381 905.676 224.418 905.676 Q229.788 905.676 232.983 908.362 Q236.177 911.047 236.177 915.537 Q236.177 917.667 235.367 919.588 Q234.58 921.486 232.473 924.079 Q231.895 924.75 228.793 927.968 Q225.691 931.162 220.043 936.926 Z" fill="#000000" fill-rule="nonzero" fill-opacity="1" /><path clip-path="url(#clip280)" d="M246.223 906.301 L264.58 906.301 L264.58 910.237 L250.506 910.237 L250.506 918.709 Q251.524 918.361 252.543 918.199 Q253.561 918.014 254.58 918.014 Q260.367 918.014 263.746 921.186 Q267.126 924.357 267.126 929.773 Q267.126 935.352 263.654 938.454 Q260.181 941.533 253.862 941.533 Q251.686 941.533 249.418 941.162 Q247.172 940.792 244.765 940.051 L244.765 935.352 Q246.848 936.486 249.07 937.042 Q251.293 937.597 253.769 937.597 Q257.774 937.597 260.112 935.491 Q262.45 933.385 262.45 929.773 Q262.45 926.162 260.112 924.056 Q257.774 921.949 253.769 921.949 Q251.895 921.949 250.02 922.366 Q248.168 922.783 246.223 923.662 L246.223 906.301 Z" fill="#000000" fill-rule="nonzero" fill-opacity="1" /><path clip-path="url(#clip280)" d="M179.788 753.725 Q176.177 753.725 174.349 757.289 Q172.543 760.831 172.543 767.961 Q172.543 775.067 174.349 778.632 Q176.177 782.174 179.788 782.174 Q183.423 782.174 185.228 778.632 Q187.057 775.067 187.057 767.961 Q187.057 760.831 185.228 757.289 Q183.423 753.725 179.788 753.725 M179.788 750.021 Q185.599 750.021 188.654 754.627 Q191.733 759.211 191.733 767.961 Q191.733 776.688 188.654 781.294 Q185.599 785.877 179.788 785.877 Q173.978 785.877 170.9 781.294 Q167.844 776.688 167.844 767.961 Q167.844 759.211 170.9 754.627 Q173.978 750.021 179.788 750.021 Z" fill="#000000" fill-rule="nonzero" fill-opacity="1" /><path clip-path="url(#clip280)" d="M199.95 779.326 L204.835 779.326 L204.835 785.206 L199.95 785.206 L199.95 779.326 Z" fill="#000000" fill-rule="nonzero" fill-opacity="1" /><path clip-path="url(#clip280)" d="M225.02 753.725 Q221.409 753.725 219.58 757.289 Q217.774 760.831 217.774 767.961 Q217.774 775.067 219.58 778.632 Q221.409 782.174 225.02 782.174 Q228.654 782.174 230.459 778.632 Q232.288 775.067 232.288 767.961 Q232.288 760.831 230.459 757.289 Q228.654 753.725 225.02 753.725 M225.02 750.021 Q230.83 750.021 233.885 754.627 Q236.964 759.211 236.964 767.961 Q236.964 776.688 233.885 781.294 Q230.83 785.877 225.02 785.877 Q219.209 785.877 216.131 781.294 Q213.075 776.688 213.075 767.961 Q213.075 759.211 216.131 754.627 Q219.209 750.021 225.02 750.021 Z" fill="#000000" fill-rule="nonzero" fill-opacity="1" /><path clip-path="url(#clip280)" d="M255.182 753.725 Q251.57 753.725 249.742 757.289 Q247.936 760.831 247.936 767.961 Q247.936 775.067 249.742 778.632 Q251.57 782.174 255.182 782.174 Q258.816 782.174 260.621 778.632 Q262.45 775.067 262.45 767.961 Q262.45 760.831 260.621 757.289 Q258.816 753.725 255.182 753.725 M255.182 750.021 Q260.992 750.021 264.047 754.627 Q267.126 759.211 267.126 767.961 Q267.126 776.688 264.047 781.294 Q260.992 785.877 255.182 785.877 Q249.371 785.877 246.293 781.294 Q243.237 776.688 243.237 767.961 Q243.237 759.211 246.293 754.627 Q249.371 750.021 255.182 750.021 Z" fill="#000000" fill-rule="nonzero" fill-opacity="1" /><path clip-path="url(#clip280)" d="M180.784 598.069 Q177.173 598.069 175.344 601.634 Q173.538 605.176 173.538 612.305 Q173.538 619.412 175.344 622.977 Q177.173 626.518 180.784 626.518 Q184.418 626.518 186.224 622.977 Q188.052 619.412 188.052 612.305 Q188.052 605.176 186.224 601.634 Q184.418 598.069 180.784 598.069 M180.784 594.366 Q186.594 594.366 189.649 598.972 Q192.728 603.555 192.728 612.305 Q192.728 621.032 189.649 625.639 Q186.594 630.222 180.784 630.222 Q174.974 630.222 171.895 625.639 Q168.839 621.032 168.839 612.305 Q168.839 603.555 171.895 598.972 Q174.974 594.366 180.784 594.366 Z" fill="#000000" fill-rule="nonzero" fill-opacity="1" /><path clip-path="url(#clip280)" d="M200.946 623.671 L205.83 623.671 L205.83 629.551 L200.946 629.551 L200.946 623.671 Z" fill="#000000" fill-rule="nonzero" fill-opacity="1" /><path clip-path="url(#clip280)" d="M220.043 625.615 L236.362 625.615 L236.362 629.551 L214.418 629.551 L214.418 625.615 Q217.08 622.861 221.663 618.231 Q226.27 613.578 227.45 612.236 Q229.696 609.713 230.575 607.977 Q231.478 606.217 231.478 604.528 Q231.478 601.773 229.534 600.037 Q227.612 598.301 224.51 598.301 Q222.311 598.301 219.858 599.065 Q217.427 599.829 214.649 601.379 L214.649 596.657 Q217.473 595.523 219.927 594.944 Q222.381 594.366 224.418 594.366 Q229.788 594.366 232.983 597.051 Q236.177 599.736 236.177 604.227 Q236.177 606.356 235.367 608.278 Q234.58 610.176 232.473 612.768 Q231.895 613.44 228.793 616.657 Q225.691 619.852 220.043 625.615 Z" fill="#000000" fill-rule="nonzero" fill-opacity="1" /><path clip-path="url(#clip280)" d="M246.223 594.991 L264.58 594.991 L264.58 598.926 L250.506 598.926 L250.506 607.398 Q251.524 607.051 252.543 606.889 Q253.561 606.704 254.58 606.704 Q260.367 606.704 263.746 609.875 Q267.126 613.046 267.126 618.463 Q267.126 624.041 263.654 627.143 Q260.181 630.222 253.862 630.222 Q251.686 630.222 249.418 629.852 Q247.172 629.481 244.765 628.74 L244.765 624.041 Q246.848 625.176 249.07 625.731 Q251.293 626.287 253.769 626.287 Q257.774 626.287 260.112 624.18 Q262.45 622.074 262.45 618.463 Q262.45 614.852 260.112 612.745 Q257.774 610.639 253.769 610.639 Q251.895 610.639 250.02 611.055 Q248.168 611.472 246.223 612.352 L246.223 594.991 Z" fill="#000000" fill-rule="nonzero" fill-opacity="1" /><path clip-path="url(#clip280)" d="M179.788 442.414 Q176.177 442.414 174.349 445.979 Q172.543 449.52 172.543 456.65 Q172.543 463.756 174.349 467.321 Q176.177 470.863 179.788 470.863 Q183.423 470.863 185.228 467.321 Q187.057 463.756 187.057 456.65 Q187.057 449.52 185.228 445.979 Q183.423 442.414 179.788 442.414 M179.788 438.71 Q185.599 438.71 188.654 443.317 Q191.733 447.9 191.733 456.65 Q191.733 465.377 188.654 469.983 Q185.599 474.567 179.788 474.567 Q173.978 474.567 170.9 469.983 Q167.844 465.377 167.844 456.65 Q167.844 447.9 170.9 443.317 Q173.978 438.71 179.788 438.71 Z" fill="#000000" fill-rule="nonzero" fill-opacity="1" /><path clip-path="url(#clip280)" d="M199.95 468.016 L204.835 468.016 L204.835 473.895 L199.95 473.895 L199.95 468.016 Z" fill="#000000" fill-rule="nonzero" fill-opacity="1" /><path clip-path="url(#clip280)" d="M215.066 439.335 L233.422 439.335 L233.422 443.27 L219.348 443.27 L219.348 451.743 Q220.367 451.395 221.385 451.233 Q222.404 451.048 223.422 451.048 Q229.209 451.048 232.589 454.219 Q235.969 457.391 235.969 462.807 Q235.969 468.386 232.496 471.488 Q229.024 474.567 222.705 474.567 Q220.529 474.567 218.26 474.196 Q216.015 473.826 213.608 473.085 L213.608 468.386 Q215.691 469.52 217.913 470.076 Q220.135 470.631 222.612 470.631 Q226.617 470.631 228.955 468.525 Q231.293 466.418 231.293 462.807 Q231.293 459.196 228.955 457.09 Q226.617 454.983 222.612 454.983 Q220.737 454.983 218.862 455.4 Q217.01 455.817 215.066 456.696 L215.066 439.335 Z" fill="#000000" fill-rule="nonzero" fill-opacity="1" /><path clip-path="url(#clip280)" d="M255.182 442.414 Q251.57 442.414 249.742 445.979 Q247.936 449.52 247.936 456.65 Q247.936 463.756 249.742 467.321 Q251.57 470.863 255.182 470.863 Q258.816 470.863 260.621 467.321 Q262.45 463.756 262.45 456.65 Q262.45 449.52 260.621 445.979 Q258.816 442.414 255.182 442.414 M255.182 438.71 Q260.992 438.71 264.047 443.317 Q267.126 447.9 267.126 456.65 Q267.126 465.377 264.047 469.983 Q260.992 474.567 255.182 474.567 Q249.371 474.567 246.293 469.983 Q243.237 465.377 243.237 456.65 Q243.237 447.9 246.293 443.317 Q249.371 438.71 255.182 438.71 Z" fill="#000000" fill-rule="nonzero" fill-opacity="1" /><path clip-path="url(#clip280)" d="M180.784 286.759 Q177.173 286.759 175.344 290.323 Q173.538 293.865 173.538 300.995 Q173.538 308.101 175.344 311.666 Q177.173 315.207 180.784 315.207 Q184.418 315.207 186.224 311.666 Q188.052 308.101 188.052 300.995 Q188.052 293.865 186.224 290.323 Q184.418 286.759 180.784 286.759 M180.784 283.055 Q186.594 283.055 189.649 287.661 Q192.728 292.245 192.728 300.995 Q192.728 309.721 189.649 314.328 Q186.594 318.911 180.784 318.911 Q174.974 318.911 171.895 314.328 Q168.839 309.721 168.839 300.995 Q168.839 292.245 171.895 287.661 Q174.974 283.055 180.784 283.055 Z" fill="#000000" fill-rule="nonzero" fill-opacity="1" /><path clip-path="url(#clip280)" d="M200.946 312.36 L205.83 312.36 L205.83 318.24 L200.946 318.24 L200.946 312.36 Z" fill="#000000" fill-rule="nonzero" fill-opacity="1" /><path clip-path="url(#clip280)" d="M214.835 283.68 L237.057 283.68 L237.057 285.671 L224.51 318.24 L219.626 318.24 L231.432 287.615 L214.835 287.615 L214.835 283.68 Z" fill="#000000" fill-rule="nonzero" fill-opacity="1" /><path clip-path="url(#clip280)" d="M246.223 283.68 L264.58 283.68 L264.58 287.615 L250.506 287.615 L250.506 296.087 Q251.524 295.74 252.543 295.578 Q253.561 295.393 254.58 295.393 Q260.367 295.393 263.746 298.564 Q267.126 301.735 267.126 307.152 Q267.126 312.731 263.654 315.832 Q260.181 318.911 253.862 318.911 Q251.686 318.911 249.418 318.541 Q247.172 318.17 244.765 317.43 L244.765 312.731 Q246.848 313.865 249.07 314.42 Q251.293 314.976 253.769 314.976 Q257.774 314.976 260.112 312.87 Q262.45 310.763 262.45 307.152 Q262.45 303.541 260.112 301.434 Q257.774 299.328 253.769 299.328 Q251.895 299.328 250.02 299.745 Q248.168 300.161 246.223 301.041 L246.223 283.68 Z" fill="#000000" fill-rule="nonzero" fill-opacity="1" /><path clip-path="url(#clip280)" d="M57.8038 863.857 L64.074 863.857 Q62.3234 867.517 61.464 870.764 Q60.6047 874.01 60.6047 877.034 Q60.6047 882.286 62.6417 885.15 Q64.6787 887.983 68.4345 887.983 Q71.5855 887.983 73.2088 886.105 Q74.8002 884.196 75.7869 878.912 L76.5826 875.029 Q77.9512 867.836 81.4205 864.43 Q84.858 860.993 90.6508 860.993 Q97.5576 860.993 101.122 865.64 Q104.687 870.255 104.687 879.199 Q104.687 882.572 103.923 886.392 Q103.159 890.179 101.663 894.253 L95.0431 894.253 Q97.2393 890.339 98.3533 886.583 Q99.4673 882.827 99.4673 879.199 Q99.4673 873.692 97.303 870.7 Q95.1386 867.708 91.1282 867.708 Q87.6271 867.708 85.6537 869.873 Q83.6804 872.005 82.6937 876.907 L81.9298 880.822 Q80.4975 888.015 77.442 891.23 Q74.3864 894.444 68.9437 894.444 Q62.6417 894.444 59.0132 890.02 Q55.3848 885.564 55.3848 877.766 Q55.3848 874.424 55.9895 870.955 Q56.5943 867.486 57.8038 863.857 Z" fill="#000000" fill-rule="nonzero" fill-opacity="1" /><path clip-path="url(#clip280)" d="M83.2984 854.181 L83.2984 837.026 L88.5183 837.026 L88.5183 854.181 L83.2984 854.181 Z" fill="#000000" fill-rule="nonzero" fill-opacity="1" /><path clip-path="url(#clip280)" d="M54.3026 813.632 Q61.6232 817.897 68.7846 819.966 Q75.946 822.034 83.2984 822.034 Q90.6508 822.034 97.8759 819.966 Q105.069 817.865 112.358 813.632 L112.358 818.724 Q104.878 823.499 97.6531 825.886 Q90.428 828.241 83.2984 828.241 Q76.2006 828.241 69.0074 825.886 Q61.8142 823.53 54.3026 818.724 L54.3026 813.632 Z" fill="#000000" fill-rule="nonzero" fill-opacity="1" /><path clip-path="url(#clip280)" d="M56.2442 802.014 L56.2442 795.585 L98.3533 795.585 L98.3533 772.446 L103.764 772.446 L103.764 802.014 L56.2442 802.014 Z" fill="#000000" fill-rule="nonzero" fill-opacity="1" /><path clip-path="url(#clip280)" d="M62.8963 742.113 L80.6248 742.113 L80.6248 724.385 L86.0357 724.385 L86.0357 742.113 L103.764 742.113 L103.764 747.46 L86.0357 747.46 L86.0357 765.189 L80.6248 765.189 L80.6248 747.46 L62.8963 747.46 L62.8963 742.113 Z" fill="#000000" fill-rule="nonzero" fill-opacity="1" /><path clip-path="url(#clip280)" d="M56.2442 711.08 L56.2442 701.5 L88.5819 689.373 L56.2442 677.183 L56.2442 667.602 L103.764 667.602 L103.764 673.873 L62.037 673.873 L94.6294 686.127 L94.6294 692.588 L62.037 704.842 L103.764 704.842 L103.764 711.08 L56.2442 711.08 Z" fill="#000000" fill-rule="nonzero" fill-opacity="1" /><path clip-path="url(#clip280)" d="M54.3026 656.017 L54.3026 650.924 Q61.8142 646.15 69.0074 643.795 Q76.2006 641.408 83.2984 641.408 Q90.428 641.408 97.6531 643.795 Q104.878 646.15 112.358 650.924 L112.358 656.017 Q105.069 651.784 97.8759 649.715 Q90.6508 647.614 83.2984 647.614 Q75.946 647.614 68.7846 649.715 Q61.6232 651.784 54.3026 656.017 Z" fill="#000000" fill-rule="nonzero" fill-opacity="1" /><path clip-path="url(#clip280)" d="M633.926 18.8205 L633.926 65.8515 L643.81 65.8515 Q656.328 65.8515 662.121 60.1802 Q667.954 54.509 667.954 42.2752 Q667.954 30.1225 662.121 24.4918 Q656.328 18.8205 643.81 18.8205 L633.926 18.8205 M625.743 12.096 L642.555 12.096 Q660.136 12.096 668.359 19.4281 Q676.582 26.7198 676.582 42.2752 Q676.582 57.9117 668.318 65.2439 Q660.055 72.576 642.555 72.576 L625.743 72.576 L625.743 12.096 Z" fill="#000000" fill-rule="nonzero" fill-opacity="1" /><path clip-path="url(#clip280)" d="M689.626 12.096 L697.809 12.096 L697.809 37.6572 L724.95 12.096 L735.482 12.096 L705.465 40.2903 L737.629 72.576 L726.854 72.576 L697.809 43.45 L697.809 72.576 L689.626 72.576 L689.626 12.096 Z" fill="#000000" fill-rule="nonzero" fill-opacity="1" /><path clip-path="url(#clip280)" d="M744.03 12.096 L752.213 12.096 L752.213 65.6895 L781.663 65.6895 L781.663 72.576 L744.03 72.576 L744.03 12.096 Z" fill="#000000" fill-rule="nonzero" fill-opacity="1" /><path clip-path="url(#clip280)" d="M824.4 86.3491 L824.4 92.1419 L781.298 92.1419 L781.298 86.3491 L824.4 86.3491 Z" fill="#000000" fill-rule="nonzero" fill-opacity="1" /><path clip-path="url(#clip280)" d="M839.51 65.6895 L868.069 65.6895 L868.069 72.576 L829.666 72.576 L829.666 65.6895 Q834.325 60.8689 842.345 52.7671 Q850.407 44.6248 852.473 42.2752 Q856.402 37.8598 857.941 34.8216 Q859.521 31.7429 859.521 28.7857 Q859.521 23.9651 856.118 20.927 Q852.756 17.8888 847.328 17.8888 Q843.48 17.8888 839.186 19.2256 Q834.932 20.5624 830.071 23.2765 L830.071 15.0127 Q835.013 13.0277 839.307 12.015 Q843.601 11.0023 847.166 11.0023 Q856.564 11.0023 862.154 15.7013 Q867.744 20.4004 867.744 28.2591 Q867.744 31.9859 866.327 35.3482 Q864.949 38.6699 861.263 43.2069 Q860.25 44.3817 854.822 50.0125 Q849.394 55.6027 839.51 65.6895 Z" fill="#000000" fill-rule="nonzero" fill-opacity="1" /><path clip-path="url(#clip280)" d="M903.757 39.075 Q898.248 39.075 895.007 42.8424 Q891.807 46.6097 891.807 53.1722 Q891.807 59.6941 895.007 63.502 Q898.248 67.2693 903.757 67.2693 Q909.266 67.2693 912.466 63.502 Q915.707 59.6941 915.707 53.1722 Q915.707 46.6097 912.466 42.8424 Q909.266 39.075 903.757 39.075 M920.001 13.4328 L920.001 20.8865 Q916.922 19.4281 913.763 18.6585 Q910.644 17.8888 907.565 17.8888 Q899.463 17.8888 895.169 23.3575 Q890.916 28.8262 890.308 39.8852 Q892.698 36.3609 896.303 34.4975 Q899.909 32.5936 904.243 32.5936 Q913.358 32.5936 918.624 38.1433 Q923.931 43.6525 923.931 53.1722 Q923.931 62.4892 918.421 68.12 Q912.912 73.7508 903.757 73.7508 Q893.265 73.7508 887.715 65.73 Q882.166 57.6687 882.166 42.3968 Q882.166 28.0566 888.971 19.5497 Q895.777 11.0023 907.241 11.0023 Q910.319 11.0023 913.439 11.6099 Q916.598 12.2175 920.001 13.4328 Z" fill="#000000" fill-rule="nonzero" fill-opacity="1" /><path clip-path="url(#clip280)" d="M937.298 12.096 L945.481 12.096 L945.481 36.8875 L975.215 36.8875 L975.215 12.096 L983.398 12.096 L983.398 72.576 L975.215 72.576 L975.215 43.7741 L945.481 43.7741 L945.481 72.576 L937.298 72.576 L937.298 12.096 Z" fill="#000000" fill-rule="nonzero" fill-opacity="1" /><path clip-path="url(#clip280)" d="M998.589 54.671 L998.589 27.2059 L1006.04 27.2059 L1006.04 54.3874 Q1006.04 60.8284 1008.55 64.0691 Q1011.07 67.2693 1016.09 67.2693 Q1022.12 67.2693 1025.61 63.421 Q1029.13 59.5726 1029.13 52.9291 L1029.13 27.2059 L1036.59 27.2059 L1036.59 72.576 L1029.13 72.576 L1029.13 65.6084 Q1026.42 69.7404 1022.81 71.7658 Q1019.25 73.7508 1014.51 73.7508 Q1006.69 73.7508 1002.64 68.8897 Q998.589 64.0286 998.589 54.671 M1017.34 26.1121 L1017.34 26.1121 Z" fill="#000000" fill-rule="nonzero" fill-opacity="1" /><path clip-path="url(#clip280)" d="M1090.75 48.0275 L1090.75 51.6733 L1056.48 51.6733 Q1056.96 59.3701 1061.09 63.421 Q1065.27 67.4314 1072.68 67.4314 Q1076.97 67.4314 1080.98 66.3781 Q1085.03 65.3249 1089 63.2184 L1089 70.267 Q1084.99 71.9684 1080.78 72.8596 Q1076.57 73.7508 1072.23 73.7508 Q1061.38 73.7508 1055.02 67.4314 Q1048.7 61.1119 1048.7 50.3365 Q1048.7 39.1965 1054.69 32.6746 Q1060.73 26.1121 1070.94 26.1121 Q1080.09 26.1121 1085.4 32.0264 Q1090.75 37.9003 1090.75 48.0275 M1083.29 45.84 Q1083.21 39.7232 1079.85 36.0774 Q1076.53 32.4315 1071.02 32.4315 Q1064.78 32.4315 1061.01 35.9558 Q1057.29 39.4801 1056.72 45.8805 L1083.29 45.84 Z" fill="#000000" fill-rule="nonzero" fill-opacity="1" /><path clip-path="url(#clip280)" d="M1137.45 86.3491 L1137.45 92.1419 L1094.35 92.1419 L1094.35 86.3491 L1137.45 86.3491 Z" fill="#000000" fill-rule="nonzero" fill-opacity="1" /><path clip-path="url(#clip280)" d="M1144.79 12.096 L1152.97 12.096 L1152.97 65.6895 L1182.42 65.6895 L1182.42 72.576 L1144.79 72.576 L1144.79 12.096 Z" fill="#000000" fill-rule="nonzero" fill-opacity="1" /><path clip-path="url(#clip280)" d="M1209.24 17.4837 Q1202.92 17.4837 1199.72 23.7221 Q1196.56 29.92 1196.56 42.3968 Q1196.56 54.833 1199.72 61.0714 Q1202.92 67.2693 1209.24 67.2693 Q1215.6 67.2693 1218.76 61.0714 Q1221.96 54.833 1221.96 42.3968 Q1221.96 29.92 1218.76 23.7221 Q1215.6 17.4837 1209.24 17.4837 M1209.24 11.0023 Q1219.4 11.0023 1224.75 19.0636 Q1230.14 27.0843 1230.14 42.3968 Q1230.14 57.6687 1224.75 65.73 Q1219.4 73.7508 1209.24 73.7508 Q1199.07 73.7508 1193.68 65.73 Q1188.33 57.6687 1188.33 42.3968 Q1188.33 27.0843 1193.68 19.0636 Q1199.07 11.0023 1209.24 11.0023 Z" fill="#000000" fill-rule="nonzero" fill-opacity="1" /><polyline clip-path="url(#clip282)" style="stroke:#7f7f7f; stroke-linecap:round; stroke-linejoin:round; stroke-width:4; stroke-opacity:0.5; fill:none" points="927.941,767.926 1020.1,767.926 "/>
<polyline clip-path="url(#clip282)" style="stroke:#7f7f7f; stroke-linecap:round; stroke-linejoin:round; stroke-width:4; stroke-opacity:0.5; fill:none" points="927.941,767.926 1017.92,715.976 "/>
<polyline clip-path="url(#clip282)" style="stroke:#7f7f7f; stroke-linecap:round; stroke-linejoin:round; stroke-width:4; stroke-opacity:0.5; fill:none" points="927.941,767.926 1013.86,619.105 "/>
<polyline clip-path="url(#clip282)" style="stroke:#7f7f7f; stroke-linecap:round; stroke-linejoin:round; stroke-width:4; stroke-opacity:0.5; fill:none" points="927.941,767.926 1007.64,470.498 "/>
<polyline clip-path="url(#clip282)" style="stroke:#7f7f7f; stroke-linecap:round; stroke-linejoin:round; stroke-width:4; stroke-opacity:0.5; fill:none" points="927.941,767.926 1002.4,345.622 "/>
<polyline clip-path="url(#clip282)" style="stroke:#7f7f7f; stroke-linecap:round; stroke-linejoin:round; stroke-width:4; stroke-opacity:0.5; fill:none" points="927.941,767.926 996.652,208.318 "/>
<polyline clip-path="url(#clip282)" style="stroke:#7f7f7f; stroke-linecap:round; stroke-linejoin:round; stroke-width:4; stroke-opacity:0.5; fill:none" points="927.941,767.926 927.941,196.284 "/>
<polyline clip-path="url(#clip282)" style="stroke:#7f7f7f; stroke-linecap:round; stroke-linejoin:round; stroke-width:4; stroke-opacity:0.5; fill:none" points="927.941,767.926 877.624,192.797 "/>
<polyline clip-path="url(#clip282)" style="stroke:#7f7f7f; stroke-linecap:round; stroke-linejoin:round; stroke-width:4; stroke-opacity:0.5; fill:none" points="927.941,767.926 815.308,188.479 "/>
<polyline clip-path="url(#clip282)" style="stroke:#7f7f7f; stroke-linecap:round; stroke-linejoin:round; stroke-width:4; stroke-opacity:0.5; fill:none" points="927.941,767.926 818.704,360.249 "/>
<polyline clip-path="url(#clip282)" style="stroke:#7f7f7f; stroke-linecap:round; stroke-linejoin:round; stroke-width:4; stroke-opacity:0.5; fill:none" points="927.941,767.926 823.796,481.791 "/>
<polyline clip-path="url(#clip282)" style="stroke:#7f7f7f; stroke-linecap:round; stroke-linejoin:round; stroke-width:4; stroke-opacity:0.5; fill:none" points="927.941,767.926 828.574,595.817 "/>
<polyline clip-path="url(#clip282)" style="stroke:#7f7f7f; stroke-linecap:round; stroke-linejoin:round; stroke-width:4; stroke-opacity:0.5; fill:none" points="927.941,767.926 833.5,713.4 "/>
<polyline clip-path="url(#clip282)" style="stroke:#7f7f7f; stroke-linecap:round; stroke-linejoin:round; stroke-width:4; stroke-opacity:0.5; fill:none" points="927.941,767.926 835.784,767.926 "/>
<polyline clip-path="url(#clip282)" style="stroke:#7f7f7f; stroke-linecap:round; stroke-linejoin:round; stroke-width:4; stroke-opacity:0.5; fill:none" points="927.941,767.926 837.961,819.876 "/>
<polyline clip-path="url(#clip282)" style="stroke:#7f7f7f; stroke-linecap:round; stroke-linejoin:round; stroke-width:4; stroke-opacity:0.5; fill:none" points="927.941,767.926 842.019,916.747 "/>
<polyline clip-path="url(#clip282)" style="stroke:#7f7f7f; stroke-linecap:round; stroke-linejoin:round; stroke-width:4; stroke-opacity:0.5; fill:none" points="927.941,767.926 848.245,1065.35 "/>
<polyline clip-path="url(#clip282)" style="stroke:#7f7f7f; stroke-linecap:round; stroke-linejoin:round; stroke-width:4; stroke-opacity:0.5; fill:none" points="927.941,767.926 853.477,1190.23 "/>
<polyline clip-path="url(#clip282)" style="stroke:#7f7f7f; stroke-linecap:round; stroke-linejoin:round; stroke-width:4; stroke-opacity:0.5; fill:none" points="927.941,767.926 859.23,1327.53 "/>
<polyline clip-path="url(#clip282)" style="stroke:#7f7f7f; stroke-linecap:round; stroke-linejoin:round; stroke-width:4; stroke-opacity:0.5; fill:none" points="927.941,767.926 927.941,1339.57 "/>
<polyline clip-path="url(#clip282)" style="stroke:#7f7f7f; stroke-linecap:round; stroke-linejoin:round; stroke-width:4; stroke-opacity:0.5; fill:none" points="927.941,767.926 978.258,1343.05 "/>
<polyline clip-path="url(#clip282)" style="stroke:#7f7f7f; stroke-linecap:round; stroke-linejoin:round; stroke-width:4; stroke-opacity:0.5; fill:none" points="927.941,767.926 1040.57,1347.37 "/>
<polyline clip-path="url(#clip282)" style="stroke:#7f7f7f; stroke-linecap:round; stroke-linejoin:round; stroke-width:4; stroke-opacity:0.5; fill:none" points="927.941,767.926 1037.18,1175.6 "/>
<polyline clip-path="url(#clip282)" style="stroke:#7f7f7f; stroke-linecap:round; stroke-linejoin:round; stroke-width:4; stroke-opacity:0.5; fill:none" points="927.941,767.926 1032.09,1054.06 "/>
<polyline clip-path="url(#clip282)" style="stroke:#7f7f7f; stroke-linecap:round; stroke-linejoin:round; stroke-width:4; stroke-opacity:0.5; fill:none" points="927.941,767.926 1027.31,940.035 "/>
<polyline clip-path="url(#clip282)" style="stroke:#7f7f7f; stroke-linecap:round; stroke-linejoin:round; stroke-width:4; stroke-opacity:0.5; fill:none" points="927.941,767.926 1022.38,822.452 "/>
<polyline clip-path="url(#clip282)" style="stroke:#ff5a80; stroke-linecap:round; stroke-linejoin:round; stroke-width:6; stroke-opacity:1; fill:none" points="1020.1,767.926 1017.92,715.976 "/>
<polyline clip-path="url(#clip282)" style="stroke:#ff588c; stroke-linecap:round; stroke-linejoin:round; stroke-width:6; stroke-opacity:1; fill:none" points="1017.92,715.976 1013.86,619.105 "/>
<polyline clip-path="url(#clip282)" style="stroke:#ff55a2; stroke-linecap:round; stroke-linejoin:round; stroke-width:6; stroke-opacity:1; fill:none" points="1013.86,619.105 1007.64,470.498 "/>
<polyline clip-path="url(#clip282)" style="stroke:#ff4fc3; stroke-linecap:round; stroke-linejoin:round; stroke-width:6; stroke-opacity:1; fill:none" points="1007.64,470.498 1002.4,345.622 "/>
<polyline clip-path="url(#clip282)" style="stroke:#ff4bde; stroke-linecap:round; stroke-linejoin:round; stroke-width:6; stroke-opacity:1; fill:none" points="1002.4,345.622 996.652,208.318 "/>
<polyline clip-path="url(#clip282)" style="stroke:#ff46fd; stroke-linecap:round; stroke-linejoin:round; stroke-width:6; stroke-opacity:1; fill:none" points="996.652,208.318 927.941,196.284 "/>
<polyline clip-path="url(#clip282)" style="stroke:#a062ff; stroke-linecap:round; stroke-linejoin:round; stroke-width:6; stroke-opacity:1; fill:none" points="927.941,196.284 877.624,192.797 "/>
<polyline clip-path="url(#clip282)" style="stroke:#5b76ff; stroke-linecap:round; stroke-linejoin:round; stroke-width:6; stroke-opacity:1; fill:none" points="877.624,192.797 815.308,188.479 "/>
<polyline clip-path="url(#clip282)" style="stroke:#058fff; stroke-linecap:round; stroke-linejoin:round; stroke-width:6; stroke-opacity:1; fill:none" points="815.308,188.479 818.704,360.249 "/>
<polyline clip-path="url(#clip282)" style="stroke:#0096d8; stroke-linecap:round; stroke-linejoin:round; stroke-width:6; stroke-opacity:1; fill:none" points="818.704,360.249 823.796,481.791 "/>
<polyline clip-path="url(#clip282)" style="stroke:#009abd; stroke-linecap:round; stroke-linejoin:round; stroke-width:6; stroke-opacity:1; fill:none" points="823.796,481.791 828.574,595.817 "/>
<polyline clip-path="url(#clip282)" style="stroke:#009ea4; stroke-linecap:round; stroke-linejoin:round; stroke-width:6; stroke-opacity:1; fill:none" points="828.574,595.817 833.5,713.4 "/>
<polyline clip-path="url(#clip282)" style="stroke:#00a28a; stroke-linecap:round; stroke-linejoin:round; stroke-width:6; stroke-opacity:1; fill:none" points="833.5,713.4 835.784,767.926 "/>
<polyline clip-path="url(#clip282)" style="stroke:#00a47e; stroke-linecap:round; stroke-linejoin:round; stroke-width:6; stroke-opacity:1; fill:none" points="835.784,767.926 837.961,819.876 "/>
<polyline clip-path="url(#clip282)" style="stroke:#00a672; stroke-linecap:round; stroke-linejoin:round; stroke-width:6; stroke-opacity:1; fill:none" points="837.961,819.876 842.019,916.747 "/>
<polyline clip-path="url(#clip282)" style="stroke:#00a95c; stroke-linecap:round; stroke-linejoin:round; stroke-width:6; stroke-opacity:1; fill:none" points="842.019,916.747 848.245,1065.35 "/>
<polyline clip-path="url(#clip282)" style="stroke:#00af3b; stroke-linecap:round; stroke-linejoin:round; stroke-width:6; stroke-opacity:1; fill:none" points="848.245,1065.35 853.477,1190.23 "/>
<polyline clip-path="url(#clip282)" style="stroke:#00b320; stroke-linecap:round; stroke-linejoin:round; stroke-width:6; stroke-opacity:1; fill:none" points="853.477,1190.23 859.23,1327.53 "/>
<polyline clip-path="url(#clip282)" style="stroke:#00b801; stroke-linecap:round; stroke-linejoin:round; stroke-width:6; stroke-opacity:1; fill:none" points="859.23,1327.53 927.941,1339.57 "/>
<polyline clip-path="url(#clip282)" style="stroke:#5e9c00; stroke-linecap:round; stroke-linejoin:round; stroke-width:6; stroke-opacity:1; fill:none" points="927.941,1339.57 978.258,1343.05 "/>
<polyline clip-path="url(#clip282)" style="stroke:#a38800; stroke-linecap:round; stroke-linejoin:round; stroke-width:6; stroke-opacity:1; fill:none" points="978.258,1343.05 1040.57,1347.37 "/>
<polyline clip-path="url(#clip282)" style="stroke:#f96f00; stroke-linecap:round; stroke-linejoin:round; stroke-width:6; stroke-opacity:1; fill:none" points="1040.57,1347.37 1037.18,1175.6 "/>
<polyline clip-path="url(#clip282)" style="stroke:#ff6826; stroke-linecap:round; stroke-linejoin:round; stroke-width:6; stroke-opacity:1; fill:none" points="1037.18,1175.6 1032.09,1054.06 "/>
<polyline clip-path="url(#clip282)" style="stroke:#ff6441; stroke-linecap:round; stroke-linejoin:round; stroke-width:6; stroke-opacity:1; fill:none" points="1032.09,1054.06 1027.31,940.035 "/>
<polyline clip-path="url(#clip282)" style="stroke:#ff605a; stroke-linecap:round; stroke-linejoin:round; stroke-width:6; stroke-opacity:1; fill:none" points="1027.31,940.035 1022.38,822.452 "/>
<circle clip-path="url(#clip282)" cx="1020.1" cy="767.926" r="18" fill="#ff5a80" fill-rule="evenodd" fill-opacity="1" stroke="none"/>
<circle clip-path="url(#clip282)" cx="1017.92" cy="715.976" r="18" fill="#ff588c" fill-rule="evenodd" fill-opacity="1" stroke="none"/>
<circle clip-path="url(#clip282)" cx="1013.86" cy="619.105" r="18" fill="#ff55a2" fill-rule="evenodd" fill-opacity="1" stroke="none"/>
<circle clip-path="url(#clip282)" cx="1007.64" cy="470.498" r="18" fill="#ff4fc3" fill-rule="evenodd" fill-opacity="1" stroke="none"/>
<circle clip-path="url(#clip282)" cx="1002.4" cy="345.622" r="18" fill="#ff4bde" fill-rule="evenodd" fill-opacity="1" stroke="none"/>
<circle clip-path="url(#clip282)" cx="996.652" cy="208.318" r="18" fill="#ff46fd" fill-rule="evenodd" fill-opacity="1" stroke="none"/>
<circle clip-path="url(#clip282)" cx="927.941" cy="196.284" r="18" fill="#a062ff" fill-rule="evenodd" fill-opacity="1" stroke="none"/>
<circle clip-path="url(#clip282)" cx="877.624" cy="192.797" r="18" fill="#5b76ff" fill-rule="evenodd" fill-opacity="1" stroke="none"/>
<circle clip-path="url(#clip282)" cx="815.308" cy="188.479" r="18" fill="#058fff" fill-rule="evenodd" fill-opacity="1" stroke="none"/>
<circle clip-path="url(#clip282)" cx="818.704" cy="360.249" r="18" fill="#0096d8" fill-rule="evenodd" fill-opacity="1" stroke="none"/>
<circle clip-path="url(#clip282)" cx="823.796" cy="481.791" r="18" fill="#009abd" fill-rule="evenodd" fill-opacity="1" stroke="none"/>
<circle clip-path="url(#clip282)" cx="828.574" cy="595.817" r="18" fill="#009ea4" fill-rule="evenodd" fill-opacity="1" stroke="none"/>
<circle clip-path="url(#clip282)" cx="833.5" cy="713.4" r="18" fill="#00a28a" fill-rule="evenodd" fill-opacity="1" stroke="none"/>
<circle clip-path="url(#clip282)" cx="835.784" cy="767.926" r="18" fill="#00a47e" fill-rule="evenodd" fill-opacity="1" stroke="none"/>
<circle clip-path="url(#clip282)" cx="837.961" cy="819.876" r="18" fill="#00a672" fill-rule="evenodd" fill-opacity="1" stroke="none"/>
<circle clip-path="url(#clip282)" cx="842.019" cy="916.747" r="18" fill="#00a95c" fill-rule="evenodd" fill-opacity="1" stroke="none"/>
<circle clip-path="url(#clip282)" cx="848.245" cy="1065.35" r="18" fill="#00af3b" fill-rule="evenodd" fill-opacity="1" stroke="none"/>
<circle clip-path="url(#clip282)" cx="853.477" cy="1190.23" r="18" fill="#00b320" fill-rule="evenodd" fill-opacity="1" stroke="none"/>
<circle clip-path="url(#clip282)" cx="859.23" cy="1327.53" r="18" fill="#00b801" fill-rule="evenodd" fill-opacity="1" stroke="none"/>
<circle clip-path="url(#clip282)" cx="927.941" cy="1339.57" r="18" fill="#5e9c00" fill-rule="evenodd" fill-opacity="1" stroke="none"/>
<circle clip-path="url(#clip282)" cx="978.258" cy="1343.05" r="18" fill="#a38800" fill-rule="evenodd" fill-opacity="1" stroke="none"/>
<circle clip-path="url(#clip282)" cx="1040.57" cy="1347.37" r="18" fill="#f96f00" fill-rule="evenodd" fill-opacity="1" stroke="none"/>
<circle clip-path="url(#clip282)" cx="1037.18" cy="1175.6" r="18" fill="#ff6826" fill-rule="evenodd" fill-opacity="1" stroke="none"/>
<circle clip-path="url(#clip282)" cx="1032.09" cy="1054.06" r="18" fill="#ff6441" fill-rule="evenodd" fill-opacity="1" stroke="none"/>
<circle clip-path="url(#clip282)" cx="1027.31" cy="940.035" r="18" fill="#ff605a" fill-rule="evenodd" fill-opacity="1" stroke="none"/>
<circle clip-path="url(#clip282)" cx="1022.38" cy="822.452" r="18" fill="#ff5c74" fill-rule="evenodd" fill-opacity="1" stroke="none"/>
</svg>
