<?xml version="1.0" encoding="utf-8"?>
<svg xmlns="http://www.w3.org/2000/svg" xmlns:xlink="http://www.w3.org/1999/xlink" width="600" height="400" viewBox="0 0 2400 1600">
<defs>
  <clipPath id="clip010">
    <rect x="0" y="0" width="2400" height="1600"/>
  </clipPath>
</defs>
<path clip-path="url(#clip010)" d="
M0 1600 L2400 1600 L2400 0 L0 0  Z
  " fill="#ffffff" fill-rule="evenodd" fill-opacity="1"/>
<defs>
  <clipPath id="clip011">
    <rect x="480" y="0" width="1681" height="1600"/>
  </clipPath>
</defs>
<path clip-path="url(#clip010)" d="
M238.13 1423.18 L2352.76 1423.18 L2352.76 47.2441 L238.13 47.2441  Z
  " fill="#ffffff" fill-rule="evenodd" fill-opacity="1"/>
<defs>
  <clipPath id="clip012">
    <rect x="238" y="47" width="2116" height="1377"/>
  </clipPath>
</defs>
<polyline clip-path="url(#clip012)" style="stroke:#000000; stroke-width:2; stroke-opacity:0.1; fill:none" points="
  480.912,1423.18 480.912,47.2441 
  "/>
<polyline clip-path="url(#clip012)" style="stroke:#000000; stroke-width:2; stroke-opacity:0.1; fill:none" points="
  813.401,1423.18 813.401,47.2441 
  "/>
<polyline clip-path="url(#clip012)" style="stroke:#000000; stroke-width:2; stroke-opacity:0.1; fill:none" points="
  1145.89,1423.18 1145.89,47.2441 
  "/>
<polyline clip-path="url(#clip012)" style="stroke:#000000; stroke-width:2; stroke-opacity:0.1; fill:none" points="
  1810.87,1423.18 1810.87,47.2441 
  "/>
<polyline clip-path="url(#clip012)" style="stroke:#000000; stroke-width:2; stroke-opacity:0.1; fill:none" points="
  2143.36,1423.18 2143.36,47.2441 
  "/>
<polyline clip-path="url(#clip012)" style="stroke:#000000; stroke-width:2; stroke-opacity:0.1; fill:none" points="
  238.13,1045.61 2352.76,1045.61 
  "/>
<polyline clip-path="url(#clip012)" style="stroke:#000000; stroke-width:2; stroke-opacity:0.1; fill:none" points="
  238.13,788.861 2352.76,788.861 
  "/>
<polyline clip-path="url(#clip012)" style="stroke:#000000; stroke-width:2; stroke-opacity:0.1; fill:none" points="
  238.13,532.11 2352.76,532.11 
  "/>
<polyline clip-path="url(#clip012)" style="stroke:#000000; stroke-width:2; stroke-opacity:0.1; fill:none" points="
  238.13,275.359 2352.76,275.359 
  "/>
<polyline clip-path="url(#clip010)" style="stroke:#000000; stroke-width:4; stroke-opacity:1; fill:none" points="
  238.13,1302.36 2352.76,1302.36 
  "/>
<polyline clip-path="url(#clip010)" style="stroke:#000000; stroke-width:4; stroke-opacity:1; fill:none" points="
  1478.38,1423.18 1478.38,47.2441 
  "/>
<polyline clip-path="url(#clip010)" style="stroke:#000000; stroke-width:4; stroke-opacity:1; fill:none" points="
  480.912,1318.87 480.912,1285.85 
  "/>
<polyline clip-path="url(#clip010)" style="stroke:#000000; stroke-width:4; stroke-opacity:1; fill:none" points="
  813.401,1318.87 813.401,1285.85 
  "/>
<polyline clip-path="url(#clip010)" style="stroke:#000000; stroke-width:4; stroke-opacity:1; fill:none" points="
  1145.89,1318.87 1145.89,1285.85 
  "/>
<polyline clip-path="url(#clip010)" style="stroke:#000000; stroke-width:4; stroke-opacity:1; fill:none" points="
  1810.87,1318.87 1810.87,1285.85 
  "/>
<polyline clip-path="url(#clip010)" style="stroke:#000000; stroke-width:4; stroke-opacity:1; fill:none" points="
  2143.36,1318.87 2143.36,1285.85 
  "/>
<polyline clip-path="url(#clip010)" style="stroke:#000000; stroke-width:4; stroke-opacity:1; fill:none" points="
  1453,1045.61 1503.75,1045.61 
  "/>
<polyline clip-path="url(#clip010)" style="stroke:#000000; stroke-width:4; stroke-opacity:1; fill:none" points="
  1453,788.861 1503.75,788.861 
  "/>
<polyline clip-path="url(#clip010)" style="stroke:#000000; stroke-width:4; stroke-opacity:1; fill:none" points="
  1453,532.11 1503.75,532.11 
  "/>
<polyline clip-path="url(#clip010)" style="stroke:#000000; stroke-width:4; stroke-opacity:1; fill:none" points="
  1453,275.359 1503.75,275.359 
  "/>
<path clip-path="url(#clip010)" d="M 0 0 M421.526 1339.01 L451.201 1339.01 L451.201 1342.94 L421.526 1342.94 L421.526 1339.01 Z" fill="#000000" fill-rule="evenodd" fill-opacity="1" /><path clip-path="url(#clip010)" d="M 0 0 M466.271 1324.35 Q462.66 1324.35 460.831 1327.92 Q459.026 1331.46 459.026 1338.59 Q459.026 1345.7 460.831 1349.26 Q462.66 1352.8 466.271 1352.8 Q469.905 1352.8 471.711 1349.26 Q473.539 1345.7 473.539 1338.59 Q473.539 1331.46 471.711 1327.92 Q469.905 1324.35 466.271 1324.35 M466.271 1320.65 Q472.081 1320.65 475.137 1325.26 Q478.215 1329.84 478.215 1338.59 Q478.215 1347.32 475.137 1351.92 Q472.081 1356.51 466.271 1356.51 Q460.461 1356.51 457.382 1351.92 Q454.326 1347.32 454.326 1338.59 Q454.326 1329.84 457.382 1325.26 Q460.461 1320.65 466.271 1320.65 Z" fill="#000000" fill-rule="evenodd" fill-opacity="1" /><path clip-path="url(#clip010)" d="M 0 0 M483.285 1349.96 L488.169 1349.96 L488.169 1355.84 L483.285 1355.84 L483.285 1349.96 Z" fill="#000000" fill-rule="evenodd" fill-opacity="1" /><path clip-path="url(#clip010)" d="M 0 0 M492.058 1321.28 L514.28 1321.28 L514.28 1323.27 L501.734 1355.84 L496.849 1355.84 L508.655 1325.21 L492.058 1325.21 L492.058 1321.28 Z" fill="#000000" fill-rule="evenodd" fill-opacity="1" /><path clip-path="url(#clip010)" d="M 0 0 M519.396 1321.28 L537.752 1321.28 L537.752 1325.21 L523.678 1325.21 L523.678 1333.68 Q524.696 1333.34 525.715 1333.17 Q526.733 1332.99 527.752 1332.99 Q533.539 1332.99 536.919 1336.16 Q540.298 1339.33 540.298 1344.75 Q540.298 1350.33 536.826 1353.43 Q533.354 1356.51 527.034 1356.51 Q524.859 1356.51 522.59 1356.14 Q520.345 1355.77 517.937 1355.03 L517.937 1350.33 Q520.021 1351.46 522.243 1352.02 Q524.465 1352.57 526.942 1352.57 Q530.946 1352.57 533.284 1350.47 Q535.622 1348.36 535.622 1344.75 Q535.622 1341.14 533.284 1339.03 Q530.946 1336.92 526.942 1336.92 Q525.067 1336.92 523.192 1337.34 Q521.34 1337.76 519.396 1338.64 L519.396 1321.28 Z" fill="#000000" fill-rule="evenodd" fill-opacity="1" /><path clip-path="url(#clip010)" d="M 0 0 M753.563 1339.01 L783.239 1339.01 L783.239 1342.94 L753.563 1342.94 L753.563 1339.01 Z" fill="#000000" fill-rule="evenodd" fill-opacity="1" /><path clip-path="url(#clip010)" d="M 0 0 M798.308 1324.35 Q794.697 1324.35 792.869 1327.92 Q791.063 1331.46 791.063 1338.59 Q791.063 1345.7 792.869 1349.26 Q794.697 1352.8 798.308 1352.8 Q801.943 1352.8 803.748 1349.26 Q805.577 1345.7 805.577 1338.59 Q805.577 1331.46 803.748 1327.92 Q801.943 1324.35 798.308 1324.35 M798.308 1320.65 Q804.118 1320.65 807.174 1325.26 Q810.253 1329.84 810.253 1338.59 Q810.253 1347.32 807.174 1351.92 Q804.118 1356.51 798.308 1356.51 Q792.498 1356.51 789.419 1351.92 Q786.364 1347.32 786.364 1338.59 Q786.364 1329.84 789.419 1325.26 Q792.498 1320.65 798.308 1320.65 Z" fill="#000000" fill-rule="evenodd" fill-opacity="1" /><path clip-path="url(#clip010)" d="M 0 0 M815.322 1349.96 L820.206 1349.96 L820.206 1355.84 L815.322 1355.84 L815.322 1349.96 Z" fill="#000000" fill-rule="evenodd" fill-opacity="1" /><path clip-path="url(#clip010)" d="M 0 0 M825.322 1321.28 L843.678 1321.28 L843.678 1325.21 L829.604 1325.21 L829.604 1333.68 Q830.623 1333.34 831.641 1333.17 Q832.66 1332.99 833.679 1332.99 Q839.466 1332.99 842.845 1336.16 Q846.225 1339.33 846.225 1344.75 Q846.225 1350.33 842.753 1353.43 Q839.28 1356.51 832.961 1356.51 Q830.785 1356.51 828.517 1356.14 Q826.271 1355.77 823.864 1355.03 L823.864 1350.33 Q825.947 1351.46 828.169 1352.02 Q830.391 1352.57 832.868 1352.57 Q836.873 1352.57 839.211 1350.47 Q841.549 1348.36 841.549 1344.75 Q841.549 1341.14 839.211 1339.03 Q836.873 1336.92 832.868 1336.92 Q830.993 1336.92 829.118 1337.34 Q827.267 1337.76 825.322 1338.64 L825.322 1321.28 Z" fill="#000000" fill-rule="evenodd" fill-opacity="1" /><path clip-path="url(#clip010)" d="M 0 0 M861.294 1324.35 Q857.683 1324.35 855.854 1327.92 Q854.049 1331.46 854.049 1338.59 Q854.049 1345.7 855.854 1349.26 Q857.683 1352.8 861.294 1352.8 Q864.928 1352.8 866.734 1349.26 Q868.563 1345.7 868.563 1338.59 Q868.563 1331.46 866.734 1327.92 Q864.928 1324.35 861.294 1324.35 M861.294 1320.65 Q867.104 1320.65 870.16 1325.26 Q873.238 1329.84 873.238 1338.59 Q873.238 1347.32 870.16 1351.92 Q867.104 1356.51 861.294 1356.51 Q855.484 1356.51 852.405 1351.92 Q849.35 1347.32 849.35 1338.59 Q849.35 1329.84 852.405 1325.26 Q855.484 1320.65 861.294 1320.65 Z" fill="#000000" fill-rule="evenodd" fill-opacity="1" /><path clip-path="url(#clip010)" d="M 0 0 M1086.85 1339.01 L1116.53 1339.01 L1116.53 1342.94 L1086.85 1342.94 L1086.85 1339.01 Z" fill="#000000" fill-rule="evenodd" fill-opacity="1" /><path clip-path="url(#clip010)" d="M 0 0 M1131.6 1324.35 Q1127.98 1324.35 1126.16 1327.92 Q1124.35 1331.46 1124.35 1338.59 Q1124.35 1345.7 1126.16 1349.26 Q1127.98 1352.8 1131.6 1352.8 Q1135.23 1352.8 1137.04 1349.26 Q1138.86 1345.7 1138.86 1338.59 Q1138.86 1331.46 1137.04 1327.92 Q1135.23 1324.35 1131.6 1324.35 M1131.6 1320.65 Q1137.41 1320.65 1140.46 1325.26 Q1143.54 1329.84 1143.54 1338.59 Q1143.54 1347.32 1140.46 1351.92 Q1137.41 1356.51 1131.6 1356.51 Q1125.79 1356.51 1122.71 1351.92 Q1119.65 1347.32 1119.65 1338.59 Q1119.65 1329.84 1122.71 1325.26 Q1125.79 1320.65 1131.6 1320.65 Z" fill="#000000" fill-rule="evenodd" fill-opacity="1" /><path clip-path="url(#clip010)" d="M 0 0 M1148.61 1349.96 L1153.49 1349.96 L1153.49 1355.84 L1148.61 1355.84 L1148.61 1349.96 Z" fill="#000000" fill-rule="evenodd" fill-opacity="1" /><path clip-path="url(#clip010)" d="M 0 0 M1162.59 1351.9 L1178.91 1351.9 L1178.91 1355.84 L1156.97 1355.84 L1156.97 1351.9 Q1159.63 1349.15 1164.21 1344.52 Q1168.82 1339.86 1170 1338.52 Q1172.24 1336 1173.12 1334.26 Q1174.03 1332.5 1174.03 1330.81 Q1174.03 1328.06 1172.08 1326.32 Q1170.16 1324.59 1167.06 1324.59 Q1164.86 1324.59 1162.41 1325.35 Q1159.98 1326.11 1157.2 1327.66 L1157.2 1322.94 Q1160.02 1321.81 1162.48 1321.23 Q1164.93 1320.65 1166.97 1320.65 Q1172.34 1320.65 1175.53 1323.34 Q1178.73 1326.02 1178.73 1330.51 Q1178.73 1332.64 1177.92 1334.56 Q1177.13 1336.46 1175.02 1339.05 Q1174.44 1339.72 1171.34 1342.94 Q1168.24 1346.14 1162.59 1351.9 Z" fill="#000000" fill-rule="evenodd" fill-opacity="1" /><path clip-path="url(#clip010)" d="M 0 0 M1184.03 1321.28 L1202.38 1321.28 L1202.38 1325.21 L1188.31 1325.21 L1188.31 1333.68 Q1189.33 1333.34 1190.35 1333.17 Q1191.36 1332.99 1192.38 1332.99 Q1198.17 1332.99 1201.55 1336.16 Q1204.93 1339.33 1204.93 1344.75 Q1204.93 1350.33 1201.46 1353.43 Q1197.98 1356.51 1191.66 1356.51 Q1189.49 1356.51 1187.22 1356.14 Q1184.98 1355.77 1182.57 1355.03 L1182.57 1350.33 Q1184.65 1351.46 1186.87 1352.02 Q1189.1 1352.57 1191.57 1352.57 Q1195.58 1352.57 1197.91 1350.47 Q1200.25 1348.36 1200.25 1344.75 Q1200.25 1341.14 1197.91 1339.03 Q1195.58 1336.92 1191.57 1336.92 Q1189.7 1336.92 1187.82 1337.34 Q1185.97 1337.76 1184.03 1338.64 L1184.03 1321.28 Z" fill="#000000" fill-rule="evenodd" fill-opacity="1" /><path clip-path="url(#clip010)" d="M 0 0 M1780.17 1324.35 Q1776.56 1324.35 1774.73 1327.92 Q1772.93 1331.46 1772.93 1338.59 Q1772.93 1345.7 1774.73 1349.26 Q1776.56 1352.8 1780.17 1352.8 Q1783.81 1352.8 1785.61 1349.26 Q1787.44 1345.7 1787.44 1338.59 Q1787.44 1331.46 1785.61 1327.92 Q1783.81 1324.35 1780.17 1324.35 M1780.17 1320.65 Q1785.98 1320.65 1789.04 1325.26 Q1792.12 1329.84 1792.12 1338.59 Q1792.12 1347.32 1789.04 1351.92 Q1785.98 1356.51 1780.17 1356.51 Q1774.36 1356.51 1771.28 1351.92 Q1768.23 1347.32 1768.23 1338.59 Q1768.23 1329.84 1771.28 1325.26 Q1774.36 1320.65 1780.17 1320.65 Z" fill="#000000" fill-rule="evenodd" fill-opacity="1" /><path clip-path="url(#clip010)" d="M 0 0 M1797.19 1349.96 L1802.07 1349.96 L1802.07 1355.84 L1797.19 1355.84 L1797.19 1349.96 Z" fill="#000000" fill-rule="evenodd" fill-opacity="1" /><path clip-path="url(#clip010)" d="M 0 0 M1811.17 1351.9 L1827.49 1351.9 L1827.49 1355.84 L1805.54 1355.84 L1805.54 1351.9 Q1808.21 1349.15 1812.79 1344.52 Q1817.4 1339.86 1818.58 1338.52 Q1820.82 1336 1821.7 1334.26 Q1822.6 1332.5 1822.6 1330.81 Q1822.6 1328.06 1820.66 1326.32 Q1818.74 1324.59 1815.64 1324.59 Q1813.44 1324.59 1810.98 1325.35 Q1808.55 1326.11 1805.77 1327.66 L1805.77 1322.94 Q1808.6 1321.81 1811.05 1321.23 Q1813.51 1320.65 1815.54 1320.65 Q1820.91 1320.65 1824.11 1323.34 Q1827.3 1326.02 1827.3 1330.51 Q1827.3 1332.64 1826.49 1334.56 Q1825.71 1336.46 1823.6 1339.05 Q1823.02 1339.72 1819.92 1342.94 Q1816.82 1346.14 1811.17 1351.9 Z" fill="#000000" fill-rule="evenodd" fill-opacity="1" /><path clip-path="url(#clip010)" d="M 0 0 M1832.6 1321.28 L1850.96 1321.28 L1850.96 1325.21 L1836.89 1325.21 L1836.89 1333.68 Q1837.9 1333.34 1838.92 1333.17 Q1839.94 1332.99 1840.96 1332.99 Q1846.75 1332.99 1850.13 1336.16 Q1853.51 1339.33 1853.51 1344.75 Q1853.51 1350.33 1850.03 1353.43 Q1846.56 1356.51 1840.24 1356.51 Q1838.07 1356.51 1835.8 1356.14 Q1833.55 1355.77 1831.15 1355.03 L1831.15 1350.33 Q1833.23 1351.46 1835.45 1352.02 Q1837.67 1352.57 1840.15 1352.57 Q1844.15 1352.57 1846.49 1350.47 Q1848.83 1348.36 1848.83 1344.75 Q1848.83 1341.14 1846.49 1339.03 Q1844.15 1336.92 1840.15 1336.92 Q1838.27 1336.92 1836.4 1337.34 Q1834.55 1337.76 1832.6 1338.64 L1832.6 1321.28 Z" fill="#000000" fill-rule="evenodd" fill-opacity="1" /><path clip-path="url(#clip010)" d="M 0 0 M2111.86 1324.35 Q2108.25 1324.35 2106.42 1327.92 Q2104.62 1331.46 2104.62 1338.59 Q2104.62 1345.7 2106.42 1349.26 Q2108.25 1352.8 2111.86 1352.8 Q2115.5 1352.8 2117.3 1349.26 Q2119.13 1345.7 2119.13 1338.59 Q2119.13 1331.46 2117.3 1327.92 Q2115.5 1324.35 2111.86 1324.35 M2111.86 1320.65 Q2117.67 1320.65 2120.73 1325.26 Q2123.81 1329.84 2123.81 1338.59 Q2123.81 1347.32 2120.73 1351.92 Q2117.67 1356.51 2111.86 1356.51 Q2106.05 1356.51 2102.97 1351.92 Q2099.92 1347.32 2099.92 1338.59 Q2099.92 1329.84 2102.97 1325.26 Q2106.05 1320.65 2111.86 1320.65 Z" fill="#000000" fill-rule="evenodd" fill-opacity="1" /><path clip-path="url(#clip010)" d="M 0 0 M2128.88 1349.96 L2133.76 1349.96 L2133.76 1355.84 L2128.88 1355.84 L2128.88 1349.96 Z" fill="#000000" fill-rule="evenodd" fill-opacity="1" /><path clip-path="url(#clip010)" d="M 0 0 M2138.88 1321.28 L2157.23 1321.28 L2157.23 1325.21 L2143.16 1325.21 L2143.16 1333.68 Q2144.18 1333.34 2145.2 1333.17 Q2146.22 1332.99 2147.23 1332.99 Q2153.02 1332.99 2156.4 1336.16 Q2159.78 1339.33 2159.78 1344.75 Q2159.78 1350.33 2156.31 1353.43 Q2152.84 1356.51 2146.52 1356.51 Q2144.34 1356.51 2142.07 1356.14 Q2139.83 1355.77 2137.42 1355.03 L2137.42 1350.33 Q2139.5 1351.46 2141.72 1352.02 Q2143.95 1352.57 2146.42 1352.57 Q2150.43 1352.57 2152.77 1350.47 Q2155.1 1348.36 2155.1 1344.75 Q2155.1 1341.14 2152.77 1339.03 Q2150.43 1336.92 2146.42 1336.92 Q2144.55 1336.92 2142.67 1337.34 Q2140.82 1337.76 2138.88 1338.64 L2138.88 1321.28 Z" fill="#000000" fill-rule="evenodd" fill-opacity="1" /><path clip-path="url(#clip010)" d="M 0 0 M2174.85 1324.35 Q2171.24 1324.35 2169.41 1327.92 Q2167.6 1331.46 2167.6 1338.59 Q2167.6 1345.7 2169.41 1349.26 Q2171.24 1352.8 2174.85 1352.8 Q2178.48 1352.8 2180.29 1349.26 Q2182.12 1345.7 2182.12 1338.59 Q2182.12 1331.46 2180.29 1327.92 Q2178.48 1324.35 2174.85 1324.35 M2174.85 1320.65 Q2180.66 1320.65 2183.71 1325.26 Q2186.79 1329.84 2186.79 1338.59 Q2186.79 1347.32 2183.71 1351.92 Q2180.66 1356.51 2174.85 1356.51 Q2169.04 1356.51 2165.96 1351.92 Q2162.9 1347.32 2162.9 1338.59 Q2162.9 1329.84 2165.96 1325.26 Q2169.04 1320.65 2174.85 1320.65 Z" fill="#000000" fill-rule="evenodd" fill-opacity="1" /><path clip-path="url(#clip010)" d="M 0 0 M1381.05 1031.41 Q1377.43 1031.41 1375.61 1034.98 Q1373.8 1038.52 1373.8 1045.65 Q1373.8 1052.75 1375.61 1056.32 Q1377.43 1059.86 1381.05 1059.86 Q1384.68 1059.86 1386.49 1056.32 Q1388.31 1052.75 1388.31 1045.65 Q1388.31 1038.52 1386.49 1034.98 Q1384.68 1031.41 1381.05 1031.41 M1381.05 1027.71 Q1386.86 1027.71 1389.91 1032.31 Q1392.99 1036.9 1392.99 1045.65 Q1392.99 1054.37 1389.91 1058.98 Q1386.86 1063.56 1381.05 1063.56 Q1375.24 1063.56 1372.16 1058.98 Q1369.1 1054.37 1369.1 1045.65 Q1369.1 1036.9 1372.16 1032.31 Q1375.24 1027.71 1381.05 1027.71 Z" fill="#000000" fill-rule="evenodd" fill-opacity="1" /><path clip-path="url(#clip010)" d="M 0 0 M1398.06 1057.01 L1402.94 1057.01 L1402.94 1062.89 L1398.06 1062.89 L1398.06 1057.01 Z" fill="#000000" fill-rule="evenodd" fill-opacity="1" /><path clip-path="url(#clip010)" d="M 0 0 M1412.04 1058.96 L1428.36 1058.96 L1428.36 1062.89 L1406.42 1062.89 L1406.42 1058.96 Q1409.08 1056.2 1413.66 1051.57 Q1418.27 1046.92 1419.45 1045.58 Q1421.69 1043.05 1422.57 1041.32 Q1423.48 1039.56 1423.48 1037.87 Q1423.48 1035.11 1421.53 1033.38 Q1419.61 1031.64 1416.51 1031.64 Q1414.31 1031.64 1411.86 1032.41 Q1409.43 1033.17 1406.65 1034.72 L1406.65 1030 Q1409.47 1028.86 1411.93 1028.29 Q1414.38 1027.71 1416.42 1027.71 Q1421.79 1027.71 1424.98 1030.39 Q1428.18 1033.08 1428.18 1037.57 Q1428.18 1039.7 1427.36 1041.62 Q1426.58 1043.52 1424.47 1046.11 Q1423.89 1046.78 1420.79 1050 Q1417.69 1053.19 1412.04 1058.96 Z" fill="#000000" fill-rule="evenodd" fill-opacity="1" /><path clip-path="url(#clip010)" d="M 0 0 M1433.48 1028.33 L1451.83 1028.33 L1451.83 1032.27 L1437.76 1032.27 L1437.76 1040.74 Q1438.78 1040.39 1439.8 1040.23 Q1440.81 1040.05 1441.83 1040.05 Q1447.62 1040.05 1451 1043.22 Q1454.38 1046.39 1454.38 1051.8 Q1454.38 1057.38 1450.91 1060.48 Q1447.43 1063.56 1441.11 1063.56 Q1438.94 1063.56 1436.67 1063.19 Q1434.42 1062.82 1432.02 1062.08 L1432.02 1057.38 Q1434.1 1058.52 1436.32 1059.07 Q1438.55 1059.63 1441.02 1059.63 Q1445.03 1059.63 1447.36 1057.52 Q1449.7 1055.42 1449.7 1051.8 Q1449.7 1048.19 1447.36 1046.09 Q1445.03 1043.98 1441.02 1043.98 Q1439.15 1043.98 1437.27 1044.4 Q1435.42 1044.81 1433.48 1045.69 L1433.48 1028.33 Z" fill="#000000" fill-rule="evenodd" fill-opacity="1" /><path clip-path="url(#clip010)" d="M 0 0 M1379.45 774.66 Q1375.84 774.66 1374.01 778.225 Q1372.2 781.766 1372.2 788.896 Q1372.2 796.002 1374.01 799.567 Q1375.84 803.109 1379.45 803.109 Q1383.08 803.109 1384.89 799.567 Q1386.72 796.002 1386.72 788.896 Q1386.72 781.766 1384.89 778.225 Q1383.08 774.66 1379.45 774.66 M1379.45 770.956 Q1385.26 770.956 1388.31 775.562 Q1391.39 780.146 1391.39 788.896 Q1391.39 797.623 1388.31 802.229 Q1385.26 806.812 1379.45 806.812 Q1373.64 806.812 1370.56 802.229 Q1367.5 797.623 1367.5 788.896 Q1367.5 780.146 1370.56 775.562 Q1373.64 770.956 1379.45 770.956 Z" fill="#000000" fill-rule="evenodd" fill-opacity="1" /><path clip-path="url(#clip010)" d="M 0 0 M1396.46 800.261 L1401.35 800.261 L1401.35 806.141 L1396.46 806.141 L1396.46 800.261 Z" fill="#000000" fill-rule="evenodd" fill-opacity="1" /><path clip-path="url(#clip010)" d="M 0 0 M1406.46 771.581 L1424.82 771.581 L1424.82 775.516 L1410.74 775.516 L1410.74 783.988 Q1411.76 783.641 1412.78 783.479 Q1413.8 783.294 1414.82 783.294 Q1420.61 783.294 1423.99 786.465 Q1427.36 789.636 1427.36 795.053 Q1427.36 800.632 1423.89 803.734 Q1420.42 806.812 1414.1 806.812 Q1411.93 806.812 1409.66 806.442 Q1407.41 806.072 1405 805.331 L1405 800.632 Q1407.09 801.766 1409.31 802.322 Q1411.53 802.877 1414.01 802.877 Q1418.01 802.877 1420.35 800.771 Q1422.69 798.664 1422.69 795.053 Q1422.69 791.442 1420.35 789.336 Q1418.01 787.229 1414.01 787.229 Q1412.13 787.229 1410.26 787.646 Q1408.41 788.062 1406.46 788.942 L1406.46 771.581 Z" fill="#000000" fill-rule="evenodd" fill-opacity="1" /><path clip-path="url(#clip010)" d="M 0 0 M1442.43 774.66 Q1438.82 774.66 1436.99 778.225 Q1435.19 781.766 1435.19 788.896 Q1435.19 796.002 1436.99 799.567 Q1438.82 803.109 1442.43 803.109 Q1446.07 803.109 1447.87 799.567 Q1449.7 796.002 1449.7 788.896 Q1449.7 781.766 1447.87 778.225 Q1446.07 774.66 1442.43 774.66 M1442.43 770.956 Q1448.24 770.956 1451.3 775.562 Q1454.38 780.146 1454.38 788.896 Q1454.38 797.623 1451.3 802.229 Q1448.24 806.812 1442.43 806.812 Q1436.62 806.812 1433.55 802.229 Q1430.49 797.623 1430.49 788.896 Q1430.49 780.146 1433.55 775.562 Q1436.62 770.956 1442.43 770.956 Z" fill="#000000" fill-rule="evenodd" fill-opacity="1" /><path clip-path="url(#clip010)" d="M 0 0 M1380.35 517.908 Q1376.74 517.908 1374.91 521.473 Q1373.11 525.015 1373.11 532.145 Q1373.11 539.251 1374.91 542.816 Q1376.74 546.357 1380.35 546.357 Q1383.99 546.357 1385.79 542.816 Q1387.62 539.251 1387.62 532.145 Q1387.62 525.015 1385.79 521.473 Q1383.99 517.908 1380.35 517.908 M1380.35 514.205 Q1386.16 514.205 1389.22 518.811 Q1392.3 523.395 1392.3 532.145 Q1392.3 540.871 1389.22 545.478 Q1386.16 550.061 1380.35 550.061 Q1374.54 550.061 1371.46 545.478 Q1368.41 540.871 1368.41 532.145 Q1368.41 523.395 1371.46 518.811 Q1374.54 514.205 1380.35 514.205 Z" fill="#000000" fill-rule="evenodd" fill-opacity="1" /><path clip-path="url(#clip010)" d="M 0 0 M1397.36 543.51 L1402.25 543.51 L1402.25 549.39 L1397.36 549.39 L1397.36 543.51 Z" fill="#000000" fill-rule="evenodd" fill-opacity="1" /><path clip-path="url(#clip010)" d="M 0 0 M1406.14 514.83 L1428.36 514.83 L1428.36 516.821 L1415.81 549.39 L1410.93 549.39 L1422.74 518.765 L1406.14 518.765 L1406.14 514.83 Z" fill="#000000" fill-rule="evenodd" fill-opacity="1" /><path clip-path="url(#clip010)" d="M 0 0 M1433.48 514.83 L1451.83 514.83 L1451.83 518.765 L1437.76 518.765 L1437.76 527.237 Q1438.78 526.89 1439.8 526.728 Q1440.81 526.543 1441.83 526.543 Q1447.62 526.543 1451 529.714 Q1454.38 532.885 1454.38 538.302 Q1454.38 543.881 1450.91 546.982 Q1447.43 550.061 1441.11 550.061 Q1438.94 550.061 1436.67 549.691 Q1434.42 549.32 1432.02 548.58 L1432.02 543.881 Q1434.1 545.015 1436.32 545.57 Q1438.55 546.126 1441.02 546.126 Q1445.03 546.126 1447.36 544.019 Q1449.7 541.913 1449.7 538.302 Q1449.7 534.691 1447.36 532.584 Q1445.03 530.478 1441.02 530.478 Q1439.15 530.478 1437.27 530.895 Q1435.42 531.311 1433.48 532.191 L1433.48 514.83 Z" fill="#000000" fill-rule="evenodd" fill-opacity="1" /><path clip-path="url(#clip010)" d="M 0 0 M1370.49 288.703 L1378.13 288.703 L1378.13 262.338 L1369.82 264.004 L1369.82 259.745 L1378.08 258.079 L1382.76 258.079 L1382.76 288.703 L1390.4 288.703 L1390.4 292.639 L1370.49 292.639 L1370.49 288.703 Z" fill="#000000" fill-rule="evenodd" fill-opacity="1" /><path clip-path="url(#clip010)" d="M 0 0 M1395.47 286.759 L1400.35 286.759 L1400.35 292.639 L1395.47 292.639 L1395.47 286.759 Z" fill="#000000" fill-rule="evenodd" fill-opacity="1" /><path clip-path="url(#clip010)" d="M 0 0 M1415.42 261.157 Q1411.81 261.157 1409.98 264.722 Q1408.18 268.264 1408.18 275.393 Q1408.18 282.5 1409.98 286.065 Q1411.81 289.606 1415.42 289.606 Q1419.05 289.606 1420.86 286.065 Q1422.69 282.5 1422.69 275.393 Q1422.69 268.264 1420.86 264.722 Q1419.05 261.157 1415.42 261.157 M1415.42 257.454 Q1421.23 257.454 1424.29 262.06 Q1427.36 266.643 1427.36 275.393 Q1427.36 284.12 1424.29 288.727 Q1421.23 293.31 1415.42 293.31 Q1409.61 293.31 1406.53 288.727 Q1403.48 284.12 1403.48 275.393 Q1403.48 266.643 1406.53 262.06 Q1409.61 257.454 1415.42 257.454 Z" fill="#000000" fill-rule="evenodd" fill-opacity="1" /><path clip-path="url(#clip010)" d="M 0 0 M1442.43 261.157 Q1438.82 261.157 1436.99 264.722 Q1435.19 268.264 1435.19 275.393 Q1435.19 282.5 1436.99 286.065 Q1438.82 289.606 1442.43 289.606 Q1446.07 289.606 1447.87 286.065 Q1449.7 282.5 1449.7 275.393 Q1449.7 268.264 1447.87 264.722 Q1446.07 261.157 1442.43 261.157 M1442.43 257.454 Q1448.24 257.454 1451.3 262.06 Q1454.38 266.643 1454.38 275.393 Q1454.38 284.12 1451.3 288.727 Q1448.24 293.31 1442.43 293.31 Q1436.62 293.31 1433.55 288.727 Q1430.49 284.12 1430.49 275.393 Q1430.49 266.643 1433.55 262.06 Q1436.62 257.454 1442.43 257.454 Z" fill="#000000" fill-rule="evenodd" fill-opacity="1" /><path clip-path="url(#clip010)" d="M 0 0 M1246.12 1508.52 L1252.55 1508.52 L1252.55 1550.63 L1275.69 1550.63 L1275.69 1556.04 L1246.12 1556.04 L1246.12 1508.52 Z" fill="#000000" fill-rule="evenodd" fill-opacity="1" /><path clip-path="url(#clip010)" d="M 0 0 M1277.73 1535.58 L1294.89 1535.58 L1294.89 1540.8 L1277.73 1540.8 L1277.73 1535.58 Z" fill="#000000" fill-rule="evenodd" fill-opacity="1" /><path clip-path="url(#clip010)" d="M 0 0 M1301.28 1508.52 L1310.86 1508.52 L1322.99 1540.86 L1335.18 1508.52 L1344.76 1508.52 L1344.76 1556.04 L1338.49 1556.04 L1338.49 1514.32 L1326.24 1546.91 L1319.78 1546.91 L1307.52 1514.32 L1307.52 1556.04 L1301.28 1556.04 L1301.28 1508.52 Z" fill="#000000" fill-rule="evenodd" fill-opacity="1" /><path clip-path="url(#clip010)" d="M 0 0 M40.4842 796.1 L40.4842 789.671 L82.5933 789.671 L82.5933 766.531 L88.0042 766.531 L88.0042 796.1 L40.4842 796.1 Z" fill="#000000" fill-rule="evenodd" fill-opacity="1" /><path clip-path="url(#clip010)" d="M 0 0 M73.9359 762.139 L52.3562 762.139 L52.3562 756.282 L73.7131 756.282 Q78.7739 756.282 81.3202 754.309 Q83.8346 752.336 83.8346 748.389 Q83.8346 743.647 80.8109 740.909 Q77.7872 738.14 72.5673 738.14 L52.3562 738.14 L52.3562 732.284 L88.0042 732.284 L88.0042 738.14 L82.5296 738.14 Q85.7762 740.273 87.3676 743.105 Q88.9272 745.906 88.9272 749.63 Q88.9272 755.773 85.1078 758.956 Q81.2883 762.139 73.9359 762.139 M51.4968 747.402 L51.4968 747.402 Z" fill="#000000" fill-rule="evenodd" fill-opacity="1" /><path clip-path="url(#clip010)" d="M 0 0 M59.1993 698.386 Q55.2526 696.19 53.3747 693.135 Q51.4968 690.079 51.4968 685.941 Q51.4968 680.371 55.4117 677.348 Q59.2948 674.324 66.4881 674.324 L88.0042 674.324 L88.0042 680.212 L66.679 680.212 Q61.5546 680.212 59.072 682.026 Q56.5894 683.841 56.5894 687.565 Q56.5894 692.116 59.6131 694.758 Q62.6368 697.4 67.8567 697.4 L88.0042 697.4 L88.0042 703.288 L66.679 703.288 Q61.5228 703.288 59.072 705.102 Q56.5894 706.916 56.5894 710.704 Q56.5894 715.192 59.6449 717.834 Q62.6686 720.475 67.8567 720.475 L88.0042 720.475 L88.0042 726.364 L52.3562 726.364 L52.3562 720.475 L57.8944 720.475 Q54.616 718.47 53.0564 715.669 Q51.4968 712.868 51.4968 709.017 Q51.4968 705.134 53.4702 702.429 Q55.4436 699.691 59.1993 698.386 Z" fill="#000000" fill-rule="evenodd" fill-opacity="1" /><polyline clip-path="url(#clip012)" style="stroke:#cc0000; stroke-width:4; stroke-opacity:1; fill:none" points="
  2292.91,1307.75 1908.96,1384.24 
  "/>
<polyline clip-path="url(#clip012)" style="stroke:#cc6600; stroke-width:4; stroke-opacity:1; fill:none" points="
  1908.96,1384.24 1507.58,1308.6 
  "/>
<polyline clip-path="url(#clip012)" style="stroke:#cccc00; stroke-width:4; stroke-opacity:1; fill:none" points="
  1507.58,1308.6 1330.81,1313.87 
  "/>
<polyline clip-path="url(#clip012)" style="stroke:#66cc00; stroke-width:4; stroke-opacity:1; fill:none" points="
  1330.81,1313.87 1281.49,1326.1 
  "/>
<polyline clip-path="url(#clip012)" style="stroke:#00cc00; stroke-width:4; stroke-opacity:1; fill:none" points="
  1281.49,1326.1 1266.55,1342.9 
  "/>
<polyline clip-path="url(#clip012)" style="stroke:#00cc66; stroke-width:4; stroke-opacity:1; fill:none" points="
  1266.55,1342.9 1194.31,1268.73 
  "/>
<polyline clip-path="url(#clip012)" style="stroke:#00cccc; stroke-width:4; stroke-opacity:1; fill:none" points="
  1194.31,1268.73 925.86,915.126 
  "/>
<polyline clip-path="url(#clip012)" style="stroke:#0066cc; stroke-width:4; stroke-opacity:1; fill:none" points="
  925.86,915.126 297.978,86.1857 
  "/>
<polyline clip-path="url(#clip012)" style="stroke:#0000cc; stroke-width:4; stroke-opacity:1; fill:none" points="
  297.978,86.1857 1122.36,641.58 
  "/>
<polyline clip-path="url(#clip012)" style="stroke:#6600cc; stroke-width:4; stroke-opacity:1; fill:none" points="
  1122.36,641.58 1797.04,1057.05 
  "/>
<polyline clip-path="url(#clip012)" style="stroke:#cc00cc; stroke-width:4; stroke-opacity:1; fill:none" points="
  1797.04,1057.05 2161.35,1261.63 
  "/>
<circle clip-path="url(#clip012)" cx="2292.91" cy="1307.75" r="32" fill="#cc0000" fill-rule="evenodd" fill-opacity="1" stroke="#000000" stroke-opacity="1" stroke-width="3.2"/>
<circle clip-path="url(#clip012)" cx="1908.96" cy="1384.24" r="32" fill="#cc6600" fill-rule="evenodd" fill-opacity="1" stroke="#000000" stroke-opacity="1" stroke-width="3.2"/>
<circle clip-path="url(#clip012)" cx="1507.58" cy="1308.6" r="32" fill="#cccc00" fill-rule="evenodd" fill-opacity="1" stroke="#000000" stroke-opacity="1" stroke-width="3.2"/>
<circle clip-path="url(#clip012)" cx="1330.81" cy="1313.87" r="32" fill="#66cc00" fill-rule="evenodd" fill-opacity="1" stroke="#000000" stroke-opacity="1" stroke-width="3.2"/>
<circle clip-path="url(#clip012)" cx="1281.49" cy="1326.1" r="32" fill="#00cc00" fill-rule="evenodd" fill-opacity="1" stroke="#000000" stroke-opacity="1" stroke-width="3.2"/>
<circle clip-path="url(#clip012)" cx="1266.55" cy="1342.9" r="32" fill="#00cc66" fill-rule="evenodd" fill-opacity="1" stroke="#000000" stroke-opacity="1" stroke-width="3.2"/>
<circle clip-path="url(#clip012)" cx="1194.31" cy="1268.73" r="32" fill="#00cccc" fill-rule="evenodd" fill-opacity="1" stroke="#000000" stroke-opacity="1" stroke-width="3.2"/>
<circle clip-path="url(#clip012)" cx="925.86" cy="915.126" r="32" fill="#0066cc" fill-rule="evenodd" fill-opacity="1" stroke="#000000" stroke-opacity="1" stroke-width="3.2"/>
<circle clip-path="url(#clip012)" cx="297.978" cy="86.1857" r="32" fill="#0000cc" fill-rule="evenodd" fill-opacity="1" stroke="#000000" stroke-opacity="1" stroke-width="3.2"/>
<circle clip-path="url(#clip012)" cx="1122.36" cy="641.58" r="32" fill="#6600cc" fill-rule="evenodd" fill-opacity="1" stroke="#000000" stroke-opacity="1" stroke-width="3.2"/>
<circle clip-path="url(#clip012)" cx="1797.04" cy="1057.05" r="32" fill="#cc00cc" fill-rule="evenodd" fill-opacity="1" stroke="#000000" stroke-opacity="1" stroke-width="3.2"/>
<circle clip-path="url(#clip012)" cx="2161.35" cy="1261.63" r="32" fill="#cc0066" fill-rule="evenodd" fill-opacity="1" stroke="#000000" stroke-opacity="1" stroke-width="3.2"/>
<circle clip-path="url(#clip012)" cx="1478.38" cy="1302.36" r="32" fill="#808080" fill-rule="evenodd" fill-opacity="1" stroke="#000000" stroke-opacity="1" stroke-width="3.2"/>
<path clip-path="url(#clip010)" d="M 0 0 M2369.86 1271.14 Q2366.7 1271.14 2365.1 1274.25 Q2363.52 1277.35 2363.52 1283.59 Q2363.52 1289.81 2365.1 1292.93 Q2366.7 1296.03 2369.86 1296.03 Q2373.04 1296.03 2374.62 1292.93 Q2376.22 1289.81 2376.22 1283.59 Q2376.22 1277.35 2374.62 1274.25 Q2373.04 1271.14 2369.86 1271.14 M2369.86 1267.89 Q2374.94 1267.89 2377.61 1271.93 Q2380.31 1275.94 2380.31 1283.59 Q2380.31 1291.23 2377.61 1295.26 Q2374.94 1299.27 2369.86 1299.27 Q2364.77 1299.27 2362.08 1295.26 Q2359.41 1291.23 2359.41 1283.59 Q2359.41 1275.94 2362.08 1271.93 Q2364.77 1267.89 2369.86 1267.89 Z" fill="#0d0d0d" fill-rule="evenodd" fill-opacity="1" /><path clip-path="url(#clip010)" d="M 0 0 M1989.12 1358.86 Q1992.06 1359.49 1993.7 1361.47 Q1995.36 1363.46 1995.36 1366.38 Q1995.36 1370.85 1992.28 1373.3 Q1989.21 1375.75 1983.53 1375.75 Q1981.63 1375.75 1979.61 1375.37 Q1977.6 1375 1975.45 1374.25 L1975.45 1370.31 Q1977.15 1371.3 1979.18 1371.8 Q1981.21 1372.31 1983.41 1372.31 Q1987.26 1372.31 1989.27 1370.79 Q1991.29 1369.27 1991.29 1366.38 Q1991.29 1363.7 1989.41 1362.2 Q1987.54 1360.68 1984.2 1360.68 L1980.68 1360.68 L1980.68 1357.32 L1984.36 1357.32 Q1987.38 1357.32 1988.98 1356.13 Q1990.58 1354.91 1990.58 1352.64 Q1990.58 1350.31 1988.92 1349.08 Q1987.28 1347.82 1984.2 1347.82 Q1982.52 1347.82 1980.6 1348.19 Q1978.67 1348.55 1976.36 1349.32 L1976.36 1345.68 Q1978.69 1345.03 1980.72 1344.7 Q1982.76 1344.38 1984.57 1344.38 Q1989.23 1344.38 1991.94 1346.51 Q1994.65 1348.61 1994.65 1352.22 Q1994.65 1354.73 1993.22 1356.47 Q1991.78 1358.19 1989.12 1358.86 Z" fill="#0d0d0d" fill-rule="evenodd" fill-opacity="1" /><path clip-path="url(#clip010)" d="M 0 0 M2008.55 1347.62 Q2005.39 1347.62 2003.79 1350.74 Q2002.21 1353.84 2002.21 1360.08 Q2002.21 1366.29 2003.79 1369.41 Q2005.39 1372.51 2008.55 1372.51 Q2011.73 1372.51 2013.31 1369.41 Q2014.91 1366.29 2014.91 1360.08 Q2014.91 1353.84 2013.31 1350.74 Q2011.73 1347.62 2008.55 1347.62 M2008.55 1344.38 Q2013.63 1344.38 2016.31 1348.41 Q2019 1352.42 2019 1360.08 Q2019 1367.71 2016.31 1371.74 Q2013.63 1375.75 2008.55 1375.75 Q2003.46 1375.75 2000.77 1371.74 Q1998.1 1367.71 1998.1 1360.08 Q1998.1 1352.42 2000.77 1348.41 Q2003.46 1344.38 2008.55 1344.38 Z" fill="#0d0d0d" fill-rule="evenodd" fill-opacity="1" /><path clip-path="url(#clip010)" d="M 0 0 M1584.88 1282.78 Q1582.12 1282.78 1580.5 1284.66 Q1578.9 1286.55 1578.9 1289.83 Q1578.9 1293.09 1580.5 1294.99 Q1582.12 1296.88 1584.88 1296.88 Q1587.63 1296.88 1589.23 1294.99 Q1590.85 1293.09 1590.85 1289.83 Q1590.85 1286.55 1589.23 1284.66 Q1587.63 1282.78 1584.88 1282.78 M1593 1269.96 L1593 1273.69 Q1591.46 1272.96 1589.88 1272.57 Q1588.32 1272.19 1586.78 1272.19 Q1582.73 1272.19 1580.58 1274.92 Q1578.45 1277.65 1578.15 1283.18 Q1579.35 1281.42 1581.15 1280.49 Q1582.95 1279.54 1585.12 1279.54 Q1589.68 1279.54 1592.31 1282.31 Q1594.96 1285.07 1594.96 1289.83 Q1594.96 1294.49 1592.21 1297.3 Q1589.45 1300.12 1584.88 1300.12 Q1579.63 1300.12 1576.85 1296.11 Q1574.08 1292.08 1574.08 1284.44 Q1574.08 1277.27 1577.48 1273.02 Q1580.88 1268.74 1586.62 1268.74 Q1588.16 1268.74 1589.72 1269.05 Q1591.3 1269.35 1593 1269.96 Z" fill="#0d0d0d" fill-rule="evenodd" fill-opacity="1" /><path clip-path="url(#clip010)" d="M 0 0 M1608.15 1271.98 Q1604.99 1271.98 1603.39 1275.1 Q1601.81 1278.2 1601.81 1284.44 Q1601.81 1290.66 1603.39 1293.78 Q1604.99 1296.88 1608.15 1296.88 Q1611.33 1296.88 1612.91 1293.78 Q1614.51 1290.66 1614.51 1284.44 Q1614.51 1278.2 1612.91 1275.1 Q1611.33 1271.98 1608.15 1271.98 M1608.15 1268.74 Q1613.23 1268.74 1615.9 1272.77 Q1618.6 1276.78 1618.6 1284.44 Q1618.6 1292.08 1615.9 1296.11 Q1613.23 1300.12 1608.15 1300.12 Q1603.06 1300.12 1600.37 1296.11 Q1597.7 1292.08 1597.7 1284.44 Q1597.7 1276.78 1600.37 1272.77 Q1603.06 1268.74 1608.15 1268.74 Z" fill="#0d0d0d" fill-rule="evenodd" fill-opacity="1" /><path clip-path="url(#clip010)" d="M 0 0 M1399.25 1304.17 L1399.25 1300.44 Q1400.79 1301.17 1402.37 1301.56 Q1403.95 1301.94 1405.47 1301.94 Q1409.52 1301.94 1411.64 1299.23 Q1413.79 1296.49 1414.09 1290.94 Q1412.92 1292.69 1411.12 1293.62 Q1409.31 1294.55 1407.13 1294.55 Q1402.59 1294.55 1399.94 1291.81 Q1397.3 1289.06 1397.3 1284.3 Q1397.3 1279.64 1400.06 1276.83 Q1402.81 1274.01 1407.39 1274.01 Q1412.64 1274.01 1415.39 1278.04 Q1418.17 1282.05 1418.17 1289.71 Q1418.17 1296.86 1414.76 1301.13 Q1411.38 1305.39 1405.65 1305.39 Q1404.11 1305.39 1402.53 1305.08 Q1400.95 1304.78 1399.25 1304.17 M1407.39 1291.35 Q1410.14 1291.35 1411.74 1289.47 Q1413.37 1287.58 1413.37 1284.3 Q1413.37 1281.04 1411.74 1279.16 Q1410.14 1277.25 1407.39 1277.25 Q1404.64 1277.25 1403.02 1279.16 Q1401.42 1281.04 1401.42 1284.3 Q1401.42 1287.58 1403.02 1289.47 Q1404.64 1291.35 1407.39 1291.35 Z" fill="#0d0d0d" fill-rule="evenodd" fill-opacity="1" /><path clip-path="url(#clip010)" d="M 0 0 M1431.35 1277.25 Q1428.19 1277.25 1426.59 1280.37 Q1425.01 1283.47 1425.01 1289.71 Q1425.01 1295.93 1426.59 1299.05 Q1428.19 1302.14 1431.35 1302.14 Q1434.53 1302.14 1436.11 1299.05 Q1437.71 1295.93 1437.71 1289.71 Q1437.71 1283.47 1436.11 1280.37 Q1434.53 1277.25 1431.35 1277.25 M1431.35 1274.01 Q1436.44 1274.01 1439.11 1278.04 Q1441.8 1282.05 1441.8 1289.71 Q1441.8 1297.34 1439.11 1301.37 Q1436.44 1305.39 1431.35 1305.39 Q1426.27 1305.39 1423.57 1301.37 Q1420.9 1297.34 1420.9 1289.71 Q1420.9 1282.05 1423.57 1278.04 Q1426.27 1274.01 1431.35 1274.01 Z" fill="#0d0d0d" fill-rule="evenodd" fill-opacity="1" /><path clip-path="url(#clip010)" d="M 0 0 M1348.57 1313.59 L1355.26 1313.59 L1355.26 1290.52 L1347.99 1291.97 L1347.99 1288.25 L1355.22 1286.79 L1359.31 1286.79 L1359.31 1313.59 L1365.99 1313.59 L1365.99 1317.03 L1348.57 1317.03 L1348.57 1313.59 Z" fill="#0d0d0d" fill-rule="evenodd" fill-opacity="1" /><path clip-path="url(#clip010)" d="M 0 0 M1373.95 1313.59 L1388.23 1313.59 L1388.23 1317.03 L1369.03 1317.03 L1369.03 1313.59 Q1371.36 1311.18 1375.37 1307.12 Q1379.4 1303.05 1380.43 1301.88 Q1382.4 1299.67 1383.17 1298.15 Q1383.96 1296.61 1383.96 1295.13 Q1383.96 1292.72 1382.26 1291.2 Q1380.58 1289.69 1377.86 1289.69 Q1375.94 1289.69 1373.79 1290.35 Q1371.66 1291.02 1369.23 1292.38 L1369.23 1288.25 Q1371.7 1287.25 1373.85 1286.75 Q1376 1286.24 1377.78 1286.24 Q1382.48 1286.24 1385.27 1288.59 Q1388.07 1290.94 1388.07 1294.87 Q1388.07 1296.73 1387.36 1298.42 Q1386.67 1300.08 1384.83 1302.34 Q1384.32 1302.93 1381.61 1305.75 Q1378.89 1308.54 1373.95 1313.59 Z" fill="#0d0d0d" fill-rule="evenodd" fill-opacity="1" /><path clip-path="url(#clip010)" d="M 0 0 M1401.42 1289.48 Q1398.26 1289.48 1396.66 1292.6 Q1395.08 1295.7 1395.08 1301.94 Q1395.08 1308.16 1396.66 1311.28 Q1398.26 1314.38 1401.42 1314.38 Q1404.6 1314.38 1406.18 1311.28 Q1407.78 1308.16 1407.78 1301.94 Q1407.78 1295.7 1406.18 1292.6 Q1404.6 1289.48 1401.42 1289.48 M1401.42 1286.24 Q1406.5 1286.24 1409.17 1290.27 Q1411.87 1294.28 1411.87 1301.94 Q1411.87 1309.58 1409.17 1313.61 Q1406.5 1317.62 1401.42 1317.62 Q1396.33 1317.62 1393.64 1313.61 Q1390.97 1309.58 1390.97 1301.94 Q1390.97 1294.28 1393.64 1290.27 Q1396.33 1286.24 1401.42 1286.24 Z" fill="#0d0d0d" fill-rule="evenodd" fill-opacity="1" /><path clip-path="url(#clip010)" d="M 0 0 M1333.63 1330.39 L1340.32 1330.39 L1340.32 1307.32 L1333.05 1308.77 L1333.05 1305.05 L1340.28 1303.59 L1344.37 1303.59 L1344.37 1330.39 L1351.05 1330.39 L1351.05 1333.83 L1333.63 1333.83 L1333.63 1330.39 Z" fill="#0d0d0d" fill-rule="evenodd" fill-opacity="1" /><path clip-path="url(#clip010)" d="M 0 0 M1355.53 1303.59 L1371.59 1303.59 L1371.59 1307.03 L1359.28 1307.03 L1359.28 1314.45 Q1360.17 1314.14 1361.06 1314 Q1361.95 1313.84 1362.84 1313.84 Q1367.91 1313.84 1370.86 1316.61 Q1373.82 1319.39 1373.82 1324.13 Q1373.82 1329.01 1370.78 1331.72 Q1367.74 1334.42 1362.21 1334.42 Q1360.31 1334.42 1358.32 1334.09 Q1356.36 1333.77 1354.25 1333.12 L1354.25 1329.01 Q1356.08 1330 1358.02 1330.49 Q1359.97 1330.97 1362.13 1330.97 Q1365.64 1330.97 1367.68 1329.13 Q1369.73 1327.29 1369.73 1324.13 Q1369.73 1320.97 1367.68 1319.12 Q1365.64 1317.28 1362.13 1317.28 Q1360.49 1317.28 1358.85 1317.65 Q1357.23 1318.01 1355.53 1318.78 L1355.53 1303.59 Z" fill="#0d0d0d" fill-rule="evenodd" fill-opacity="1" /><path clip-path="url(#clip010)" d="M 0 0 M1387.01 1306.28 Q1383.85 1306.28 1382.25 1309.4 Q1380.67 1312.5 1380.67 1318.74 Q1380.67 1324.96 1382.25 1328.08 Q1383.85 1331.18 1387.01 1331.18 Q1390.19 1331.18 1391.77 1328.08 Q1393.37 1324.96 1393.37 1318.74 Q1393.37 1312.5 1391.77 1309.4 Q1390.19 1306.28 1387.01 1306.28 M1387.01 1303.04 Q1392.09 1303.04 1394.76 1307.07 Q1397.46 1311.08 1397.46 1318.74 Q1397.46 1326.38 1394.76 1330.41 Q1392.09 1334.42 1387.01 1334.42 Q1381.92 1334.42 1379.23 1330.41 Q1376.55 1326.38 1376.55 1318.74 Q1376.55 1311.08 1379.23 1307.07 Q1381.92 1303.04 1387.01 1303.04 Z" fill="#0d0d0d" fill-rule="evenodd" fill-opacity="1" /><path clip-path="url(#clip010)" d="M 0 0 M1261.39 1256.22 L1268.08 1256.22 L1268.08 1233.15 L1260.81 1234.61 L1260.81 1230.88 L1268.04 1229.42 L1272.13 1229.42 L1272.13 1256.22 L1278.81 1256.22 L1278.81 1259.66 L1261.39 1259.66 L1261.39 1256.22 Z" fill="#0d0d0d" fill-rule="evenodd" fill-opacity="1" /><path clip-path="url(#clip010)" d="M 0 0 M1292 1245.3 Q1289.08 1245.3 1287.4 1246.86 Q1285.74 1248.42 1285.74 1251.15 Q1285.74 1253.89 1287.4 1255.45 Q1289.08 1257.01 1292 1257.01 Q1294.91 1257.01 1296.6 1255.45 Q1298.28 1253.87 1298.28 1251.15 Q1298.28 1248.42 1296.6 1246.86 Q1294.93 1245.3 1292 1245.3 M1287.91 1243.56 Q1285.27 1242.91 1283.79 1241.11 Q1282.34 1239.3 1282.34 1236.71 Q1282.34 1233.09 1284.91 1230.98 Q1287.5 1228.87 1292 1228.87 Q1296.51 1228.87 1299.09 1230.98 Q1301.66 1233.09 1301.66 1236.71 Q1301.66 1239.3 1300.18 1241.11 Q1298.72 1242.91 1296.11 1243.56 Q1299.07 1244.25 1300.71 1246.25 Q1302.37 1248.26 1302.37 1251.15 Q1302.37 1255.55 1299.67 1257.9 Q1297 1260.25 1292 1260.25 Q1287 1260.25 1284.3 1257.9 Q1281.63 1255.55 1281.63 1251.15 Q1281.63 1248.26 1283.29 1246.25 Q1284.95 1244.25 1287.91 1243.56 M1286.41 1237.1 Q1286.41 1239.45 1287.87 1240.76 Q1289.34 1242.08 1292 1242.08 Q1294.63 1242.08 1296.11 1240.76 Q1297.61 1239.45 1297.61 1237.1 Q1297.61 1234.75 1296.11 1233.43 Q1294.63 1232.11 1292 1232.11 Q1289.34 1232.11 1287.87 1233.43 Q1286.41 1234.75 1286.41 1237.1 Z" fill="#0d0d0d" fill-rule="evenodd" fill-opacity="1" /><path clip-path="url(#clip010)" d="M 0 0 M1315.55 1232.11 Q1312.39 1232.11 1310.79 1235.23 Q1309.21 1238.33 1309.21 1244.57 Q1309.21 1250.79 1310.79 1253.91 Q1312.39 1257.01 1315.55 1257.01 Q1318.73 1257.01 1320.31 1253.91 Q1321.91 1250.79 1321.91 1244.57 Q1321.91 1238.33 1320.31 1235.23 Q1318.73 1232.11 1315.55 1232.11 M1315.55 1228.87 Q1320.64 1228.87 1323.31 1232.9 Q1326.01 1236.91 1326.01 1244.57 Q1326.01 1252.21 1323.31 1256.24 Q1320.64 1260.25 1315.55 1260.25 Q1310.47 1260.25 1307.78 1256.24 Q1305.1 1252.21 1305.1 1244.57 Q1305.1 1236.91 1307.78 1232.9 Q1310.47 1228.87 1315.55 1228.87 Z" fill="#0d0d0d" fill-rule="evenodd" fill-opacity="1" /><path clip-path="url(#clip010)" d="M 0 0 M997.279 902.611 L1011.56 902.611 L1011.56 906.054 L992.358 906.054 L992.358 902.611 Q994.687 900.2 998.697 896.15 Q1002.73 892.078 1003.76 890.904 Q1005.73 888.696 1006.5 887.177 Q1007.29 885.637 1007.29 884.159 Q1007.29 881.749 1005.58 880.229 Q1003.9 878.71 1001.19 878.71 Q999.264 878.71 997.117 879.379 Q994.991 880.047 992.56 881.404 L992.56 877.272 Q995.031 876.28 997.178 875.773 Q999.325 875.267 1001.11 875.267 Q1005.81 875.267 1008.6 877.617 Q1011.4 879.966 1011.4 883.896 Q1011.4 885.759 1010.69 887.44 Q1010 889.101 1008.16 891.369 Q1007.65 891.957 1004.94 894.772 Q1002.22 897.567 997.279 902.611 Z" fill="#0d0d0d" fill-rule="evenodd" fill-opacity="1" /><path clip-path="url(#clip010)" d="M 0 0 M1016.7 902.611 L1023.39 902.611 L1023.39 879.541 L1016.12 880.999 L1016.12 877.272 L1023.35 875.814 L1027.44 875.814 L1027.44 902.611 L1034.12 902.611 L1034.12 906.054 L1016.7 906.054 L1016.7 902.611 Z" fill="#0d0d0d" fill-rule="evenodd" fill-opacity="1" /><path clip-path="url(#clip010)" d="M 0 0 M1047.31 878.508 Q1044.15 878.508 1042.55 881.627 Q1040.97 884.726 1040.97 890.964 Q1040.97 897.182 1042.55 900.302 Q1044.15 903.401 1047.31 903.401 Q1050.49 903.401 1052.07 900.302 Q1053.67 897.182 1053.67 890.964 Q1053.67 884.726 1052.07 881.627 Q1050.49 878.508 1047.31 878.508 M1047.31 875.267 Q1052.39 875.267 1055.07 879.298 Q1057.76 883.308 1057.76 890.964 Q1057.76 898.6 1055.07 902.631 Q1052.39 906.641 1047.31 906.641 Q1042.22 906.641 1039.53 902.631 Q1036.86 898.6 1036.86 890.964 Q1036.86 883.308 1039.53 879.298 Q1042.22 875.267 1047.31 875.267 Z" fill="#0d0d0d" fill-rule="evenodd" fill-opacity="1" /><path clip-path="url(#clip010)" d="M 0 0 M369.398 73.6704 L383.677 73.6704 L383.677 77.1137 L364.476 77.1137 L364.476 73.6704 Q366.805 71.2601 370.815 67.2092 Q374.846 63.1381 375.879 61.9633 Q377.844 59.7555 378.613 58.2365 Q379.403 56.6971 379.403 55.2185 Q379.403 52.8082 377.702 51.2892 Q376.021 49.7701 373.307 49.7701 Q371.383 49.7701 369.236 50.4385 Q367.109 51.1069 364.678 52.4639 L364.678 48.332 Q367.149 47.3395 369.296 46.8332 Q371.443 46.3268 373.226 46.3268 Q377.925 46.3268 380.72 48.6763 Q383.515 51.0258 383.515 54.9552 Q383.515 56.8186 382.806 58.4998 Q382.117 60.1606 380.274 62.4291 Q379.768 63.0165 377.054 65.8319 Q374.34 68.627 369.398 73.6704 Z" fill="#0d0d0d" fill-rule="evenodd" fill-opacity="1" /><path clip-path="url(#clip010)" d="M 0 0 M399.354 50.4385 L389.024 66.5813 L399.354 66.5813 L399.354 50.4385 M398.281 46.8737 L403.425 46.8737 L403.425 66.5813 L407.739 66.5813 L407.739 69.9841 L403.425 69.9841 L403.425 77.1137 L399.354 77.1137 L399.354 69.9841 L385.702 69.9841 L385.702 66.0344 L398.281 46.8737 Z" fill="#0d0d0d" fill-rule="evenodd" fill-opacity="1" /><path clip-path="url(#clip010)" d="M 0 0 M420.925 49.5675 Q417.765 49.5675 416.165 52.6867 Q414.585 55.7857 414.585 62.0241 Q414.585 68.2422 416.165 71.3614 Q417.765 74.4603 420.925 74.4603 Q424.105 74.4603 425.685 71.3614 Q427.285 68.2422 427.285 62.0241 Q427.285 55.7857 425.685 52.6867 Q424.105 49.5675 420.925 49.5675 M420.925 46.3268 Q426.009 46.3268 428.683 50.3574 Q431.376 54.3678 431.376 62.0241 Q431.376 69.66 428.683 73.6907 Q426.009 77.7011 420.925 77.7011 Q415.841 77.7011 413.147 73.6907 Q410.474 69.66 410.474 62.0241 Q410.474 54.3678 413.147 50.3574 Q415.841 46.3268 420.925 46.3268 Z" fill="#0d0d0d" fill-rule="evenodd" fill-opacity="1" /><path clip-path="url(#clip010)" d="M 0 0 M1193.78 629.065 L1208.06 629.065 L1208.06 632.508 L1188.86 632.508 L1188.86 629.065 Q1191.19 626.654 1195.2 622.603 Q1199.23 618.532 1200.26 617.357 Q1202.23 615.15 1203 613.631 Q1203.79 612.091 1203.79 610.613 Q1203.79 608.202 1202.08 606.683 Q1200.4 605.164 1197.69 605.164 Q1195.77 605.164 1193.62 605.833 Q1191.49 606.501 1189.06 607.858 L1189.06 603.726 Q1191.53 602.734 1193.68 602.227 Q1195.83 601.721 1197.61 601.721 Q1202.31 601.721 1205.1 604.071 Q1207.9 606.42 1207.9 610.349 Q1207.9 612.213 1207.19 613.894 Q1206.5 615.555 1204.66 617.823 Q1204.15 618.411 1201.44 621.226 Q1198.72 624.021 1193.78 629.065 Z" fill="#0d0d0d" fill-rule="evenodd" fill-opacity="1" /><path clip-path="url(#clip010)" d="M 0 0 M1211.46 602.268 L1230.91 602.268 L1230.91 604.01 L1219.93 632.508 L1215.66 632.508 L1225.99 605.711 L1211.46 605.711 L1211.46 602.268 Z" fill="#0d0d0d" fill-rule="evenodd" fill-opacity="1" /><path clip-path="url(#clip010)" d="M 0 0 M1244.09 604.962 Q1240.93 604.962 1239.33 608.081 Q1237.75 611.18 1237.75 617.418 Q1237.75 623.636 1239.33 626.756 Q1240.93 629.855 1244.09 629.855 Q1247.27 629.855 1248.85 626.756 Q1250.45 623.636 1250.45 617.418 Q1250.45 611.18 1248.85 608.081 Q1247.27 604.962 1244.09 604.962 M1244.09 601.721 Q1249.18 601.721 1251.85 605.752 Q1254.54 609.762 1254.54 617.418 Q1254.54 625.054 1251.85 629.085 Q1249.18 633.095 1244.09 633.095 Q1239.01 633.095 1236.32 629.085 Q1233.64 625.054 1233.64 617.418 Q1233.64 609.762 1236.32 605.752 Q1239.01 601.721 1244.09 601.721 Z" fill="#0d0d0d" fill-rule="evenodd" fill-opacity="1" /><path clip-path="url(#clip010)" d="M 0 0 M1877.21 1031.68 Q1880.14 1032.3 1881.78 1034.29 Q1883.44 1036.27 1883.44 1039.19 Q1883.44 1043.67 1880.36 1046.12 Q1877.29 1048.57 1871.61 1048.57 Q1869.71 1048.57 1867.69 1048.18 Q1865.68 1047.82 1863.53 1047.07 L1863.53 1043.12 Q1865.23 1044.11 1867.26 1044.62 Q1869.29 1045.13 1871.49 1045.13 Q1875.34 1045.13 1877.35 1043.61 Q1879.37 1042.09 1879.37 1039.19 Q1879.37 1036.52 1877.49 1035.02 Q1875.63 1033.5 1872.28 1033.5 L1868.76 1033.5 L1868.76 1030.14 L1872.45 1030.14 Q1875.46 1030.14 1877.06 1028.94 Q1878.66 1027.73 1878.66 1025.46 Q1878.66 1023.13 1877 1021.89 Q1875.36 1020.64 1872.28 1020.64 Q1870.6 1020.64 1868.68 1021 Q1866.75 1021.37 1864.44 1022.14 L1864.44 1018.49 Q1866.77 1017.84 1868.8 1017.52 Q1870.85 1017.19 1872.65 1017.19 Q1877.31 1017.19 1880.02 1019.32 Q1882.73 1021.43 1882.73 1025.03 Q1882.73 1027.54 1881.3 1029.29 Q1879.86 1031.01 1877.21 1031.68 Z" fill="#0d0d0d" fill-rule="evenodd" fill-opacity="1" /><path clip-path="url(#clip010)" d="M 0 0 M1896.63 1020.44 Q1893.47 1020.44 1891.87 1023.55 Q1890.29 1026.65 1890.29 1032.89 Q1890.29 1039.11 1891.87 1042.23 Q1893.47 1045.33 1896.63 1045.33 Q1899.81 1045.33 1901.39 1042.23 Q1902.99 1039.11 1902.99 1032.89 Q1902.99 1026.65 1901.39 1023.55 Q1899.81 1020.44 1896.63 1020.44 M1896.63 1017.19 Q1901.71 1017.19 1904.39 1021.23 Q1907.08 1025.24 1907.08 1032.89 Q1907.08 1040.53 1904.39 1044.56 Q1901.71 1048.57 1896.63 1048.57 Q1891.55 1048.57 1888.85 1044.56 Q1886.18 1040.53 1886.18 1032.89 Q1886.18 1025.24 1888.85 1021.23 Q1891.55 1017.19 1896.63 1017.19 Z" fill="#0d0d0d" fill-rule="evenodd" fill-opacity="1" /><path clip-path="url(#clip010)" d="M 0 0 M1920.27 1020.44 Q1917.11 1020.44 1915.51 1023.55 Q1913.93 1026.65 1913.93 1032.89 Q1913.93 1039.11 1915.51 1042.23 Q1917.11 1045.33 1920.27 1045.33 Q1923.45 1045.33 1925.03 1042.23 Q1926.63 1039.11 1926.63 1032.89 Q1926.63 1026.65 1925.03 1023.55 Q1923.45 1020.44 1920.27 1020.44 M1920.27 1017.19 Q1925.35 1017.19 1928.02 1021.23 Q1930.72 1025.24 1930.72 1032.89 Q1930.72 1040.53 1928.02 1044.56 Q1925.35 1048.57 1920.27 1048.57 Q1915.18 1048.57 1912.49 1044.56 Q1909.82 1040.53 1909.82 1032.89 Q1909.82 1025.24 1912.49 1021.23 Q1915.18 1017.19 1920.27 1017.19 Z" fill="#0d0d0d" fill-rule="evenodd" fill-opacity="1" /><path clip-path="url(#clip010)" d="M 0 0 M2241.52 1236.25 Q2244.46 1236.88 2246.1 1238.87 Q2247.76 1240.85 2247.76 1243.77 Q2247.76 1248.24 2244.68 1250.69 Q2241.6 1253.14 2235.93 1253.14 Q2234.03 1253.14 2232 1252.76 Q2230 1252.4 2227.85 1251.65 L2227.85 1247.7 Q2229.55 1248.69 2231.58 1249.2 Q2233.6 1249.7 2235.81 1249.7 Q2239.66 1249.7 2241.66 1248.18 Q2243.69 1246.66 2243.69 1243.77 Q2243.69 1241.09 2241.8 1239.59 Q2239.94 1238.08 2236.6 1238.08 L2233.07 1238.08 L2233.07 1234.71 L2236.76 1234.71 Q2239.78 1234.71 2241.38 1233.52 Q2242.98 1232.3 2242.98 1230.03 Q2242.98 1227.71 2241.32 1226.47 Q2239.68 1225.21 2236.6 1225.21 Q2234.92 1225.21 2232.99 1225.58 Q2231.07 1225.94 2228.76 1226.71 L2228.76 1223.07 Q2231.09 1222.42 2233.12 1222.09 Q2235.16 1221.77 2236.96 1221.77 Q2241.62 1221.77 2244.34 1223.9 Q2247.05 1226 2247.05 1229.61 Q2247.05 1232.12 2245.61 1233.86 Q2244.17 1235.58 2241.52 1236.25 Z" fill="#0d0d0d" fill-rule="evenodd" fill-opacity="1" /><path clip-path="url(#clip010)" d="M 0 0 M2264.59 1236.25 Q2267.53 1236.88 2269.17 1238.87 Q2270.83 1240.85 2270.83 1243.77 Q2270.83 1248.24 2267.75 1250.69 Q2264.67 1253.14 2259 1253.14 Q2257.1 1253.14 2255.07 1252.76 Q2253.07 1252.4 2250.92 1251.65 L2250.92 1247.7 Q2252.62 1248.69 2254.65 1249.2 Q2256.67 1249.7 2258.88 1249.7 Q2262.73 1249.7 2264.73 1248.18 Q2266.76 1246.66 2266.76 1243.77 Q2266.76 1241.09 2264.87 1239.59 Q2263.01 1238.08 2259.67 1238.08 L2256.14 1238.08 L2256.14 1234.71 L2259.83 1234.71 Q2262.85 1234.71 2264.45 1233.52 Q2266.05 1232.3 2266.05 1230.03 Q2266.05 1227.71 2264.39 1226.47 Q2262.75 1225.21 2259.67 1225.21 Q2257.99 1225.21 2256.06 1225.58 Q2254.14 1225.94 2251.83 1226.71 L2251.83 1223.07 Q2254.16 1222.42 2256.18 1222.09 Q2258.23 1221.77 2260.03 1221.77 Q2264.69 1221.77 2267.41 1223.9 Q2270.12 1226 2270.12 1229.61 Q2270.12 1232.12 2268.68 1233.86 Q2267.24 1235.58 2264.59 1236.25 Z" fill="#0d0d0d" fill-rule="evenodd" fill-opacity="1" /><path clip-path="url(#clip010)" d="M 0 0 M2284.01 1225.01 Q2280.85 1225.01 2279.25 1228.13 Q2277.67 1231.23 2277.67 1237.47 Q2277.67 1243.69 2279.25 1246.81 Q2280.85 1249.9 2284.01 1249.9 Q2287.19 1249.9 2288.77 1246.81 Q2290.37 1243.69 2290.37 1237.47 Q2290.37 1231.23 2288.77 1228.13 Q2287.19 1225.01 2284.01 1225.01 M2284.01 1221.77 Q2289.1 1221.77 2291.77 1225.8 Q2294.47 1229.81 2294.47 1237.47 Q2294.47 1245.1 2291.77 1249.13 Q2289.1 1253.14 2284.01 1253.14 Q2278.93 1253.14 2276.24 1249.13 Q2273.56 1245.1 2273.56 1237.47 Q2273.56 1229.81 2276.24 1225.8 Q2278.93 1221.77 2284.01 1221.77 Z" fill="#0d0d0d" fill-rule="evenodd" fill-opacity="1" /></svg>
