<?xml version="1.0" encoding="utf-8"?>
<svg xmlns="http://www.w3.org/2000/svg" xmlns:xlink="http://www.w3.org/1999/xlink" width="400" height="400" viewBox="0 0 1600 1600">
<defs>
  <clipPath id="clip370">
    <rect x="0" y="0" width="1600" height="1600"/>
  </clipPath>
</defs>
<path clip-path="url(#clip370)" d="M0 1600 L1600 1600 L1600 0 L0 0  Z" fill="#ffffff" fill-rule="evenodd" fill-opacity="1"/>
<defs>
  <clipPath id="clip371">
    <rect x="320" y="160" width="1121" height="1121"/>
  </clipPath>
</defs>
<path clip-path="url(#clip370)" d="M272.964 1382.14 L1552.76 1382.14 L1552.76 153.712 L272.964 153.712  Z" fill="#ffffff" fill-rule="evenodd" fill-opacity="1"/>
<defs>
  <clipPath id="clip372">
    <rect x="272" y="153" width="1281" height="1229"/>
  </clipPath>
</defs>
<polyline clip-path="url(#clip372)" style="stroke:#000000; stroke-linecap:round; stroke-linejoin:round; stroke-width:2; stroke-opacity:0.1; fill:none" points="333.413,1382.14 333.413,153.712 "/>
<polyline clip-path="url(#clip372)" style="stroke:#000000; stroke-linecap:round; stroke-linejoin:round; stroke-width:2; stroke-opacity:0.1; fill:none" points="623.136,1382.14 623.136,153.712 "/>
<polyline clip-path="url(#clip372)" style="stroke:#000000; stroke-linecap:round; stroke-linejoin:round; stroke-width:2; stroke-opacity:0.1; fill:none" points="912.86,1382.14 912.86,153.712 "/>
<polyline clip-path="url(#clip372)" style="stroke:#000000; stroke-linecap:round; stroke-linejoin:round; stroke-width:2; stroke-opacity:0.1; fill:none" points="1202.58,1382.14 1202.58,153.712 "/>
<polyline clip-path="url(#clip372)" style="stroke:#000000; stroke-linecap:round; stroke-linejoin:round; stroke-width:2; stroke-opacity:0.1; fill:none" points="1492.31,1382.14 1492.31,153.712 "/>
<polyline clip-path="url(#clip370)" style="stroke:#000000; stroke-linecap:round; stroke-linejoin:round; stroke-width:4; stroke-opacity:1; fill:none" points="272.964,1382.14 1552.76,1382.14 "/>
<polyline clip-path="url(#clip370)" style="stroke:#000000; stroke-linecap:round; stroke-linejoin:round; stroke-width:4; stroke-opacity:1; fill:none" points="333.413,1382.14 333.413,1401.04 "/>
<polyline clip-path="url(#clip370)" style="stroke:#000000; stroke-linecap:round; stroke-linejoin:round; stroke-width:4; stroke-opacity:1; fill:none" points="623.136,1382.14 623.136,1401.04 "/>
<polyline clip-path="url(#clip370)" style="stroke:#000000; stroke-linecap:round; stroke-linejoin:round; stroke-width:4; stroke-opacity:1; fill:none" points="912.86,1382.14 912.86,1401.04 "/>
<polyline clip-path="url(#clip370)" style="stroke:#000000; stroke-linecap:round; stroke-linejoin:round; stroke-width:4; stroke-opacity:1; fill:none" points="1202.58,1382.14 1202.58,1401.04 "/>
<polyline clip-path="url(#clip370)" style="stroke:#000000; stroke-linecap:round; stroke-linejoin:round; stroke-width:4; stroke-opacity:1; fill:none" points="1492.31,1382.14 1492.31,1401.04 "/>
<path clip-path="url(#clip370)" d="M279.941 1427.71 L309.617 1427.71 L309.617 1431.65 L279.941 1431.65 L279.941 1427.71 Z" fill="#000000" fill-rule="nonzero" fill-opacity="1" /><path clip-path="url(#clip370)" d="M320.519 1440.6 L328.158 1440.6 L328.158 1414.24 L319.848 1415.91 L319.848 1411.65 L328.112 1409.98 L332.788 1409.98 L332.788 1440.6 L340.427 1440.6 L340.427 1444.54 L320.519 1444.54 L320.519 1440.6 Z" fill="#000000" fill-rule="nonzero" fill-opacity="1" /><path clip-path="url(#clip370)" d="M349.871 1438.66 L354.755 1438.66 L354.755 1444.54 L349.871 1444.54 L349.871 1438.66 Z" fill="#000000" fill-rule="nonzero" fill-opacity="1" /><path clip-path="url(#clip370)" d="M374.94 1413.06 Q371.329 1413.06 369.501 1416.62 Q367.695 1420.16 367.695 1427.29 Q367.695 1434.4 369.501 1437.97 Q371.329 1441.51 374.94 1441.51 Q378.575 1441.51 380.38 1437.97 Q382.209 1434.4 382.209 1427.29 Q382.209 1420.16 380.38 1416.62 Q378.575 1413.06 374.94 1413.06 M374.94 1409.35 Q380.751 1409.35 383.806 1413.96 Q386.885 1418.54 386.885 1427.29 Q386.885 1436.02 383.806 1440.63 Q380.751 1445.21 374.94 1445.21 Q369.13 1445.21 366.052 1440.63 Q362.996 1436.02 362.996 1427.29 Q362.996 1418.54 366.052 1413.96 Q369.13 1409.35 374.94 1409.35 Z" fill="#000000" fill-rule="nonzero" fill-opacity="1" /><path clip-path="url(#clip370)" d="M570.162 1427.71 L599.838 1427.71 L599.838 1431.65 L570.162 1431.65 L570.162 1427.71 Z" fill="#000000" fill-rule="nonzero" fill-opacity="1" /><path clip-path="url(#clip370)" d="M619.93 1413.06 Q616.319 1413.06 614.491 1416.62 Q612.685 1420.16 612.685 1427.29 Q612.685 1434.4 614.491 1437.97 Q616.319 1441.51 619.93 1441.51 Q623.565 1441.51 625.37 1437.97 Q627.199 1434.4 627.199 1427.29 Q627.199 1420.16 625.37 1416.62 Q623.565 1413.06 619.93 1413.06 M619.93 1409.35 Q625.741 1409.35 628.796 1413.96 Q631.875 1418.54 631.875 1427.29 Q631.875 1436.02 628.796 1440.63 Q625.741 1445.21 619.93 1445.21 Q614.12 1445.21 611.042 1440.63 Q607.986 1436.02 607.986 1427.29 Q607.986 1418.54 611.042 1413.96 Q614.12 1409.35 619.93 1409.35 Z" fill="#000000" fill-rule="nonzero" fill-opacity="1" /><path clip-path="url(#clip370)" d="M640.092 1438.66 L644.977 1438.66 L644.977 1444.54 L640.092 1444.54 L640.092 1438.66 Z" fill="#000000" fill-rule="nonzero" fill-opacity="1" /><path clip-path="url(#clip370)" d="M655.208 1409.98 L673.564 1409.98 L673.564 1413.92 L659.49 1413.92 L659.49 1422.39 Q660.509 1422.04 661.527 1421.88 Q662.546 1421.69 663.564 1421.69 Q669.351 1421.69 672.731 1424.86 Q676.111 1428.04 676.111 1433.45 Q676.111 1439.03 672.638 1442.13 Q669.166 1445.21 662.847 1445.21 Q660.671 1445.21 658.402 1444.84 Q656.157 1444.47 653.75 1443.73 L653.75 1439.03 Q655.833 1440.16 658.055 1440.72 Q660.277 1441.28 662.754 1441.28 Q666.759 1441.28 669.097 1439.17 Q671.435 1437.06 671.435 1433.45 Q671.435 1429.84 669.097 1427.73 Q666.759 1425.63 662.754 1425.63 Q660.879 1425.63 659.004 1426.04 Q657.152 1426.46 655.208 1427.34 L655.208 1409.98 Z" fill="#000000" fill-rule="nonzero" fill-opacity="1" /><path clip-path="url(#clip370)" d="M890.244 1413.06 Q886.633 1413.06 884.805 1416.62 Q882.999 1420.16 882.999 1427.29 Q882.999 1434.4 884.805 1437.97 Q886.633 1441.51 890.244 1441.51 Q893.879 1441.51 895.684 1437.97 Q897.513 1434.4 897.513 1427.29 Q897.513 1420.16 895.684 1416.62 Q893.879 1413.06 890.244 1413.06 M890.244 1409.35 Q896.055 1409.35 899.11 1413.96 Q902.189 1418.54 902.189 1427.29 Q902.189 1436.02 899.11 1440.63 Q896.055 1445.21 890.244 1445.21 Q884.434 1445.21 881.356 1440.63 Q878.3 1436.02 878.3 1427.29 Q878.3 1418.54 881.356 1413.96 Q884.434 1409.35 890.244 1409.35 Z" fill="#000000" fill-rule="nonzero" fill-opacity="1" /><path clip-path="url(#clip370)" d="M910.406 1438.66 L915.291 1438.66 L915.291 1444.54 L910.406 1444.54 L910.406 1438.66 Z" fill="#000000" fill-rule="nonzero" fill-opacity="1" /><path clip-path="url(#clip370)" d="M935.476 1413.06 Q931.864 1413.06 930.036 1416.62 Q928.23 1420.16 928.23 1427.29 Q928.23 1434.4 930.036 1437.97 Q931.864 1441.51 935.476 1441.51 Q939.11 1441.51 940.915 1437.97 Q942.744 1434.4 942.744 1427.29 Q942.744 1420.16 940.915 1416.62 Q939.11 1413.06 935.476 1413.06 M935.476 1409.35 Q941.286 1409.35 944.341 1413.96 Q947.42 1418.54 947.42 1427.29 Q947.42 1436.02 944.341 1440.63 Q941.286 1445.21 935.476 1445.21 Q929.665 1445.21 926.587 1440.63 Q923.531 1436.02 923.531 1427.29 Q923.531 1418.54 926.587 1413.96 Q929.665 1409.35 935.476 1409.35 Z" fill="#000000" fill-rule="nonzero" fill-opacity="1" /><path clip-path="url(#clip370)" d="M1180.47 1413.06 Q1176.85 1413.06 1175.03 1416.62 Q1173.22 1420.16 1173.22 1427.29 Q1173.22 1434.4 1175.03 1437.97 Q1176.85 1441.51 1180.47 1441.51 Q1184.1 1441.51 1185.91 1437.97 Q1187.73 1434.4 1187.73 1427.29 Q1187.73 1420.16 1185.91 1416.62 Q1184.1 1413.06 1180.47 1413.06 M1180.47 1409.35 Q1186.28 1409.35 1189.33 1413.96 Q1192.41 1418.54 1192.41 1427.29 Q1192.41 1436.02 1189.33 1440.63 Q1186.28 1445.21 1180.47 1445.21 Q1174.66 1445.21 1171.58 1440.63 Q1168.52 1436.02 1168.52 1427.29 Q1168.52 1418.54 1171.58 1413.96 Q1174.66 1409.35 1180.47 1409.35 Z" fill="#000000" fill-rule="nonzero" fill-opacity="1" /><path clip-path="url(#clip370)" d="M1200.63 1438.66 L1205.51 1438.66 L1205.51 1444.54 L1200.63 1444.54 L1200.63 1438.66 Z" fill="#000000" fill-rule="nonzero" fill-opacity="1" /><path clip-path="url(#clip370)" d="M1215.74 1409.98 L1234.1 1409.98 L1234.1 1413.92 L1220.03 1413.92 L1220.03 1422.39 Q1221.04 1422.04 1222.06 1421.88 Q1223.08 1421.69 1224.1 1421.69 Q1229.89 1421.69 1233.27 1424.86 Q1236.65 1428.04 1236.65 1433.45 Q1236.65 1439.03 1233.17 1442.13 Q1229.7 1445.21 1223.38 1445.21 Q1221.21 1445.21 1218.94 1444.84 Q1216.69 1444.47 1214.28 1443.73 L1214.28 1439.03 Q1216.37 1440.16 1218.59 1440.72 Q1220.81 1441.28 1223.29 1441.28 Q1227.29 1441.28 1229.63 1439.17 Q1231.97 1437.06 1231.97 1433.45 Q1231.97 1429.84 1229.63 1427.73 Q1227.29 1425.63 1223.29 1425.63 Q1221.41 1425.63 1219.54 1426.04 Q1217.69 1426.46 1215.74 1427.34 L1215.74 1409.98 Z" fill="#000000" fill-rule="nonzero" fill-opacity="1" /><path clip-path="url(#clip370)" d="M1459.46 1440.6 L1467.1 1440.6 L1467.1 1414.24 L1458.79 1415.91 L1458.79 1411.65 L1467.05 1409.98 L1471.73 1409.98 L1471.73 1440.6 L1479.37 1440.6 L1479.37 1444.54 L1459.46 1444.54 L1459.46 1440.6 Z" fill="#000000" fill-rule="nonzero" fill-opacity="1" /><path clip-path="url(#clip370)" d="M1488.81 1438.66 L1493.7 1438.66 L1493.7 1444.54 L1488.81 1444.54 L1488.81 1438.66 Z" fill="#000000" fill-rule="nonzero" fill-opacity="1" /><path clip-path="url(#clip370)" d="M1513.88 1413.06 Q1510.27 1413.06 1508.44 1416.62 Q1506.64 1420.16 1506.64 1427.29 Q1506.64 1434.4 1508.44 1437.97 Q1510.27 1441.51 1513.88 1441.51 Q1517.52 1441.51 1519.32 1437.97 Q1521.15 1434.4 1521.15 1427.29 Q1521.15 1420.16 1519.32 1416.62 Q1517.52 1413.06 1513.88 1413.06 M1513.88 1409.35 Q1519.69 1409.35 1522.75 1413.96 Q1525.83 1418.54 1525.83 1427.29 Q1525.83 1436.02 1522.75 1440.63 Q1519.69 1445.21 1513.88 1445.21 Q1508.07 1445.21 1504.99 1440.63 Q1501.94 1436.02 1501.94 1427.29 Q1501.94 1418.54 1504.99 1413.96 Q1508.07 1409.35 1513.88 1409.35 Z" fill="#000000" fill-rule="nonzero" fill-opacity="1" /><path clip-path="url(#clip370)" d="M926.721 1469.04 L926.721 1475.31 Q923.061 1473.56 919.815 1472.7 Q916.568 1471.84 913.544 1471.84 Q908.293 1471.84 905.428 1473.88 Q902.595 1475.92 902.595 1479.67 Q902.595 1482.83 904.473 1484.45 Q906.383 1486.04 911.666 1487.03 L915.549 1487.82 Q922.743 1489.19 926.148 1492.66 Q929.586 1496.1 929.586 1501.89 Q929.586 1508.8 924.939 1512.36 Q920.324 1515.93 911.38 1515.93 Q908.006 1515.93 904.187 1515.16 Q900.399 1514.4 896.325 1512.9 L896.325 1506.28 Q900.24 1508.48 903.996 1509.59 Q907.751 1510.71 911.38 1510.71 Q916.886 1510.71 919.878 1508.54 Q922.87 1506.38 922.87 1502.37 Q922.87 1498.87 920.706 1496.89 Q918.573 1494.92 913.672 1493.93 L909.757 1493.17 Q902.563 1491.74 899.349 1488.68 Q896.134 1485.63 896.134 1480.18 Q896.134 1473.88 900.558 1470.25 Q905.014 1466.62 912.812 1466.62 Q916.154 1466.62 919.624 1467.23 Q923.093 1467.83 926.721 1469.04 Z" fill="#000000" fill-rule="nonzero" fill-opacity="1" /><polyline clip-path="url(#clip372)" style="stroke:#000000; stroke-linecap:round; stroke-linejoin:round; stroke-width:2; stroke-opacity:0.1; fill:none" points="272.964,1347.37 1552.76,1347.37 "/>
<polyline clip-path="url(#clip372)" style="stroke:#000000; stroke-linecap:round; stroke-linejoin:round; stroke-width:2; stroke-opacity:0.1; fill:none" points="272.964,1057.65 1552.76,1057.65 "/>
<polyline clip-path="url(#clip372)" style="stroke:#000000; stroke-linecap:round; stroke-linejoin:round; stroke-width:2; stroke-opacity:0.1; fill:none" points="272.964,767.926 1552.76,767.926 "/>
<polyline clip-path="url(#clip372)" style="stroke:#000000; stroke-linecap:round; stroke-linejoin:round; stroke-width:2; stroke-opacity:0.1; fill:none" points="272.964,478.202 1552.76,478.202 "/>
<polyline clip-path="url(#clip372)" style="stroke:#000000; stroke-linecap:round; stroke-linejoin:round; stroke-width:2; stroke-opacity:0.1; fill:none" points="272.964,188.479 1552.76,188.479 "/>
<polyline clip-path="url(#clip370)" style="stroke:#000000; stroke-linecap:round; stroke-linejoin:round; stroke-width:4; stroke-opacity:1; fill:none" points="272.964,1382.14 272.964,153.712 "/>
<polyline clip-path="url(#clip370)" style="stroke:#000000; stroke-linecap:round; stroke-linejoin:round; stroke-width:4; stroke-opacity:1; fill:none" points="272.964,1347.37 254.066,1347.37 "/>
<polyline clip-path="url(#clip370)" style="stroke:#000000; stroke-linecap:round; stroke-linejoin:round; stroke-width:4; stroke-opacity:1; fill:none" points="272.964,1057.65 254.066,1057.65 "/>
<polyline clip-path="url(#clip370)" style="stroke:#000000; stroke-linecap:round; stroke-linejoin:round; stroke-width:4; stroke-opacity:1; fill:none" points="272.964,767.926 254.066,767.926 "/>
<polyline clip-path="url(#clip370)" style="stroke:#000000; stroke-linecap:round; stroke-linejoin:round; stroke-width:4; stroke-opacity:1; fill:none" points="272.964,478.202 254.066,478.202 "/>
<polyline clip-path="url(#clip370)" style="stroke:#000000; stroke-linecap:round; stroke-linejoin:round; stroke-width:4; stroke-opacity:1; fill:none" points="272.964,188.479 254.066,188.479 "/>
<path clip-path="url(#clip370)" d="M130.02 1347.82 L159.696 1347.82 L159.696 1351.76 L130.02 1351.76 L130.02 1347.82 Z" fill="#000000" fill-rule="nonzero" fill-opacity="1" /><path clip-path="url(#clip370)" d="M170.599 1360.72 L178.237 1360.72 L178.237 1334.35 L169.927 1336.02 L169.927 1331.76 L178.191 1330.09 L182.867 1330.09 L182.867 1360.72 L190.506 1360.72 L190.506 1364.65 L170.599 1364.65 L170.599 1360.72 Z" fill="#000000" fill-rule="nonzero" fill-opacity="1" /><path clip-path="url(#clip370)" d="M199.95 1358.77 L204.835 1358.77 L204.835 1364.65 L199.95 1364.65 L199.95 1358.77 Z" fill="#000000" fill-rule="nonzero" fill-opacity="1" /><path clip-path="url(#clip370)" d="M225.02 1333.17 Q221.409 1333.17 219.58 1336.74 Q217.774 1340.28 217.774 1347.41 Q217.774 1354.51 219.58 1358.08 Q221.409 1361.62 225.02 1361.62 Q228.654 1361.62 230.459 1358.08 Q232.288 1354.51 232.288 1347.41 Q232.288 1340.28 230.459 1336.74 Q228.654 1333.17 225.02 1333.17 M225.02 1329.47 Q230.83 1329.47 233.885 1334.07 Q236.964 1338.66 236.964 1347.41 Q236.964 1356.13 233.885 1360.74 Q230.83 1365.32 225.02 1365.32 Q219.209 1365.32 216.131 1360.74 Q213.075 1356.13 213.075 1347.41 Q213.075 1338.66 216.131 1334.07 Q219.209 1329.47 225.02 1329.47 Z" fill="#000000" fill-rule="nonzero" fill-opacity="1" /><path clip-path="url(#clip370)" d="M131.016 1058.1 L160.691 1058.1 L160.691 1062.04 L131.016 1062.04 L131.016 1058.1 Z" fill="#000000" fill-rule="nonzero" fill-opacity="1" /><path clip-path="url(#clip370)" d="M180.784 1043.45 Q177.173 1043.45 175.344 1047.01 Q173.538 1050.55 173.538 1057.68 Q173.538 1064.79 175.344 1068.36 Q177.173 1071.9 180.784 1071.9 Q184.418 1071.9 186.224 1068.36 Q188.052 1064.79 188.052 1057.68 Q188.052 1050.55 186.224 1047.01 Q184.418 1043.45 180.784 1043.45 M180.784 1039.74 Q186.594 1039.74 189.649 1044.35 Q192.728 1048.93 192.728 1057.68 Q192.728 1066.41 189.649 1071.02 Q186.594 1075.6 180.784 1075.6 Q174.974 1075.6 171.895 1071.02 Q168.839 1066.41 168.839 1057.68 Q168.839 1048.93 171.895 1044.35 Q174.974 1039.74 180.784 1039.74 Z" fill="#000000" fill-rule="nonzero" fill-opacity="1" /><path clip-path="url(#clip370)" d="M200.946 1069.05 L205.83 1069.05 L205.83 1074.93 L200.946 1074.93 L200.946 1069.05 Z" fill="#000000" fill-rule="nonzero" fill-opacity="1" /><path clip-path="url(#clip370)" d="M216.061 1040.37 L234.418 1040.37 L234.418 1044.3 L220.344 1044.3 L220.344 1052.78 Q221.362 1052.43 222.381 1052.27 Q223.399 1052.08 224.418 1052.08 Q230.205 1052.08 233.584 1055.25 Q236.964 1058.42 236.964 1063.84 Q236.964 1069.42 233.492 1072.52 Q230.02 1075.6 223.7 1075.6 Q221.524 1075.6 219.256 1075.23 Q217.01 1074.86 214.603 1074.12 L214.603 1069.42 Q216.686 1070.55 218.909 1071.11 Q221.131 1071.67 223.608 1071.67 Q227.612 1071.67 229.95 1069.56 Q232.288 1067.45 232.288 1063.84 Q232.288 1060.23 229.95 1058.12 Q227.612 1056.02 223.608 1056.02 Q221.733 1056.02 219.858 1056.43 Q218.006 1056.85 216.061 1057.73 L216.061 1040.37 Z" fill="#000000" fill-rule="nonzero" fill-opacity="1" /><path clip-path="url(#clip370)" d="M179.788 753.725 Q176.177 753.725 174.349 757.289 Q172.543 760.831 172.543 767.961 Q172.543 775.067 174.349 778.632 Q176.177 782.174 179.788 782.174 Q183.423 782.174 185.228 778.632 Q187.057 775.067 187.057 767.961 Q187.057 760.831 185.228 757.289 Q183.423 753.725 179.788 753.725 M179.788 750.021 Q185.599 750.021 188.654 754.627 Q191.733 759.211 191.733 767.961 Q191.733 776.688 188.654 781.294 Q185.599 785.877 179.788 785.877 Q173.978 785.877 170.9 781.294 Q167.844 776.688 167.844 767.961 Q167.844 759.211 170.9 754.627 Q173.978 750.021 179.788 750.021 Z" fill="#000000" fill-rule="nonzero" fill-opacity="1" /><path clip-path="url(#clip370)" d="M199.95 779.326 L204.835 779.326 L204.835 785.206 L199.95 785.206 L199.95 779.326 Z" fill="#000000" fill-rule="nonzero" fill-opacity="1" /><path clip-path="url(#clip370)" d="M225.02 753.725 Q221.409 753.725 219.58 757.289 Q217.774 760.831 217.774 767.961 Q217.774 775.067 219.58 778.632 Q221.409 782.174 225.02 782.174 Q228.654 782.174 230.459 778.632 Q232.288 775.067 232.288 767.961 Q232.288 760.831 230.459 757.289 Q228.654 753.725 225.02 753.725 M225.02 750.021 Q230.83 750.021 233.885 754.627 Q236.964 759.211 236.964 767.961 Q236.964 776.688 233.885 781.294 Q230.83 785.877 225.02 785.877 Q219.209 785.877 216.131 781.294 Q213.075 776.688 213.075 767.961 Q213.075 759.211 216.131 754.627 Q219.209 750.021 225.02 750.021 Z" fill="#000000" fill-rule="nonzero" fill-opacity="1" /><path clip-path="url(#clip370)" d="M180.784 464.001 Q177.173 464.001 175.344 467.566 Q173.538 471.108 173.538 478.237 Q173.538 485.344 175.344 488.908 Q177.173 492.45 180.784 492.45 Q184.418 492.45 186.224 488.908 Q188.052 485.344 188.052 478.237 Q188.052 471.108 186.224 467.566 Q184.418 464.001 180.784 464.001 M180.784 460.297 Q186.594 460.297 189.649 464.904 Q192.728 469.487 192.728 478.237 Q192.728 486.964 189.649 491.57 Q186.594 496.154 180.784 496.154 Q174.974 496.154 171.895 491.57 Q168.839 486.964 168.839 478.237 Q168.839 469.487 171.895 464.904 Q174.974 460.297 180.784 460.297 Z" fill="#000000" fill-rule="nonzero" fill-opacity="1" /><path clip-path="url(#clip370)" d="M200.946 489.603 L205.83 489.603 L205.83 495.482 L200.946 495.482 L200.946 489.603 Z" fill="#000000" fill-rule="nonzero" fill-opacity="1" /><path clip-path="url(#clip370)" d="M216.061 460.922 L234.418 460.922 L234.418 464.858 L220.344 464.858 L220.344 473.33 Q221.362 472.983 222.381 472.821 Q223.399 472.635 224.418 472.635 Q230.205 472.635 233.584 475.807 Q236.964 478.978 236.964 484.395 Q236.964 489.973 233.492 493.075 Q230.02 496.154 223.7 496.154 Q221.524 496.154 219.256 495.783 Q217.01 495.413 214.603 494.672 L214.603 489.973 Q216.686 491.107 218.909 491.663 Q221.131 492.219 223.608 492.219 Q227.612 492.219 229.95 490.112 Q232.288 488.006 232.288 484.395 Q232.288 480.783 229.95 478.677 Q227.612 476.571 223.608 476.571 Q221.733 476.571 219.858 476.987 Q218.006 477.404 216.061 478.283 L216.061 460.922 Z" fill="#000000" fill-rule="nonzero" fill-opacity="1" /><path clip-path="url(#clip370)" d="M170.599 201.824 L178.237 201.824 L178.237 175.458 L169.927 177.125 L169.927 172.866 L178.191 171.199 L182.867 171.199 L182.867 201.824 L190.506 201.824 L190.506 205.759 L170.599 205.759 L170.599 201.824 Z" fill="#000000" fill-rule="nonzero" fill-opacity="1" /><path clip-path="url(#clip370)" d="M199.95 199.879 L204.835 199.879 L204.835 205.759 L199.95 205.759 L199.95 199.879 Z" fill="#000000" fill-rule="nonzero" fill-opacity="1" /><path clip-path="url(#clip370)" d="M225.02 174.278 Q221.409 174.278 219.58 177.842 Q217.774 181.384 217.774 188.514 Q217.774 195.62 219.58 199.185 Q221.409 202.727 225.02 202.727 Q228.654 202.727 230.459 199.185 Q232.288 195.62 232.288 188.514 Q232.288 181.384 230.459 177.842 Q228.654 174.278 225.02 174.278 M225.02 170.574 Q230.83 170.574 233.885 175.18 Q236.964 179.764 236.964 188.514 Q236.964 197.24 233.885 201.847 Q230.83 206.43 225.02 206.43 Q219.209 206.43 216.131 201.847 Q213.075 197.24 213.075 188.514 Q213.075 179.764 216.131 175.18 Q219.209 170.574 225.02 170.574 Z" fill="#000000" fill-rule="nonzero" fill-opacity="1" /><path clip-path="url(#clip370)" d="M57.8038 754.065 L64.074 754.065 Q62.3234 757.725 61.464 760.971 Q60.6047 764.218 60.6047 767.242 Q60.6047 772.493 62.6417 775.358 Q64.6787 778.191 68.4345 778.191 Q71.5855 778.191 73.2088 776.313 Q74.8002 774.403 75.7869 769.12 L76.5826 765.236 Q77.9512 758.043 81.4205 754.638 Q84.858 751.2 90.6508 751.2 Q97.5576 751.2 101.122 755.847 Q104.687 760.462 104.687 769.406 Q104.687 772.78 103.923 776.599 Q103.159 780.387 101.663 784.461 L95.0431 784.461 Q97.2393 780.546 98.3533 776.79 Q99.4673 773.034 99.4673 769.406 Q99.4673 763.9 97.303 760.908 Q95.1386 757.916 91.1282 757.916 Q87.6271 757.916 85.6537 760.08 Q83.6804 762.213 82.6937 767.114 L81.9298 771.029 Q80.4975 778.223 77.442 781.437 Q74.3864 784.652 68.9437 784.652 Q62.6417 784.652 59.0132 780.228 Q55.3848 775.772 55.3848 767.974 Q55.3848 764.632 55.9895 761.162 Q56.5943 757.693 57.8038 754.065 Z" fill="#000000" fill-rule="nonzero" fill-opacity="1" /><path clip-path="url(#clip370)" d="M596.808 12.096 L604.991 12.096 L604.991 36.8875 L634.725 36.8875 L634.725 12.096 L642.908 12.096 L642.908 72.576 L634.725 72.576 L634.725 43.7741 L604.991 43.7741 L604.991 72.576 L596.808 72.576 L596.808 12.096 Z" fill="#000000" fill-rule="nonzero" fill-opacity="1" /><path clip-path="url(#clip370)" d="M695.448 14.0809 L695.448 22.0612 Q690.789 19.8332 686.657 18.7395 Q682.526 17.6457 678.677 17.6457 Q671.993 17.6457 668.347 20.2383 Q664.742 22.8309 664.742 27.611 Q664.742 31.6214 667.132 33.6873 Q669.563 35.7128 676.287 36.9686 L681.229 37.9813 Q690.384 39.7232 694.719 44.1387 Q699.094 48.5136 699.094 55.8863 Q699.094 64.6767 693.179 69.2137 Q687.306 73.7508 675.923 73.7508 Q671.629 73.7508 666.768 72.7785 Q661.947 71.8063 656.762 69.9024 L656.762 61.4765 Q661.744 64.2716 666.524 65.6895 Q671.305 67.1073 675.923 67.1073 Q682.931 67.1073 686.738 64.3527 Q690.546 61.598 690.546 56.4939 Q690.546 52.0379 687.792 49.5264 Q685.078 47.0148 678.839 45.759 L673.857 44.7868 Q664.702 42.9639 660.61 39.075 Q656.519 35.1862 656.519 28.2591 Q656.519 20.2383 662.15 15.6203 Q667.821 11.0023 677.745 11.0023 Q681.999 11.0023 686.414 11.7719 Q690.83 12.5416 695.448 14.0809 Z" fill="#000000" fill-rule="nonzero" fill-opacity="1" /><path clip-path="url(#clip370)" d="M711.854 12.096 L720.037 12.096 L720.037 65.6895 L749.487 65.6895 L749.487 72.576 L711.854 72.576 L711.854 12.096 Z" fill="#000000" fill-rule="nonzero" fill-opacity="1" /><path clip-path="url(#clip370)" d="M792.224 86.3491 L792.224 92.1419 L749.122 92.1419 L749.122 86.3491 L792.224 86.3491 Z" fill="#000000" fill-rule="nonzero" fill-opacity="1" /><path clip-path="url(#clip370)" d="M801.703 65.6895 L815.071 65.6895 L815.071 19.5497 L800.528 22.4663 L800.528 15.0127 L814.99 12.096 L823.173 12.096 L823.173 65.6895 L836.541 65.6895 L836.541 72.576 L801.703 72.576 L801.703 65.6895 Z" fill="#000000" fill-rule="nonzero" fill-opacity="1" /><path clip-path="url(#clip370)" d="M860.117 65.6895 L888.676 65.6895 L888.676 72.576 L850.273 72.576 L850.273 65.6895 Q854.932 60.8689 862.953 52.7671 Q871.014 44.6248 873.08 42.2752 Q877.009 37.8598 878.549 34.8216 Q880.129 31.7429 880.129 28.7857 Q880.129 23.9651 876.726 20.927 Q873.364 17.8888 867.935 17.8888 Q864.087 17.8888 859.793 19.2256 Q855.54 20.5624 850.679 23.2765 L850.679 15.0127 Q855.621 13.0277 859.915 12.015 Q864.209 11.0023 867.773 11.0023 Q877.172 11.0023 882.762 15.7013 Q888.352 20.4004 888.352 28.2591 Q888.352 31.9859 886.934 35.3482 Q885.557 38.6699 881.871 43.2069 Q880.858 44.3817 875.43 50.0125 Q870.001 55.6027 860.117 65.6895 Z" fill="#000000" fill-rule="nonzero" fill-opacity="1" /><path clip-path="url(#clip370)" d="M905.123 12.096 L913.306 12.096 L913.306 36.8875 L943.039 36.8875 L943.039 12.096 L951.222 12.096 L951.222 72.576 L943.039 72.576 L943.039 43.7741 L913.306 43.7741 L913.306 72.576 L905.123 72.576 L905.123 12.096 Z" fill="#000000" fill-rule="nonzero" fill-opacity="1" /><path clip-path="url(#clip370)" d="M966.413 54.671 L966.413 27.2059 L973.867 27.2059 L973.867 54.3874 Q973.867 60.8284 976.378 64.0691 Q978.89 67.2693 983.913 67.2693 Q989.949 67.2693 993.432 63.421 Q996.957 59.5726 996.957 52.9291 L996.957 27.2059 L1004.41 27.2059 L1004.41 72.576 L996.957 72.576 L996.957 65.6084 Q994.243 69.7404 990.637 71.7658 Q987.073 73.7508 982.333 73.7508 Q974.515 73.7508 970.464 68.8897 Q966.413 64.0286 966.413 54.671 M985.169 26.1121 L985.169 26.1121 Z" fill="#000000" fill-rule="nonzero" fill-opacity="1" /><path clip-path="url(#clip370)" d="M1058.57 48.0275 L1058.57 51.6733 L1024.3 51.6733 Q1024.79 59.3701 1028.92 63.421 Q1033.09 67.4314 1040.5 67.4314 Q1044.8 67.4314 1048.81 66.3781 Q1052.86 65.3249 1056.83 63.2184 L1056.83 70.267 Q1052.82 71.9684 1048.61 72.8596 Q1044.39 73.7508 1040.06 73.7508 Q1029.2 73.7508 1022.84 67.4314 Q1016.52 61.1119 1016.52 50.3365 Q1016.52 39.1965 1022.52 32.6746 Q1028.55 26.1121 1038.76 26.1121 Q1047.92 26.1121 1053.22 32.0264 Q1058.57 37.9003 1058.57 48.0275 M1051.12 45.84 Q1051.04 39.7232 1047.67 36.0774 Q1044.35 32.4315 1038.84 32.4315 Q1032.6 32.4315 1028.84 35.9558 Q1025.11 39.4801 1024.54 45.8805 L1051.12 45.84 Z" fill="#000000" fill-rule="nonzero" fill-opacity="1" /><path clip-path="url(#clip370)" d="M1105.28 86.3491 L1105.28 92.1419 L1062.18 92.1419 L1062.18 86.3491 L1105.28 86.3491 Z" fill="#000000" fill-rule="nonzero" fill-opacity="1" /><path clip-path="url(#clip370)" d="M1104.31 12.096 L1113.1 12.096 L1129.87 36.9686 L1146.52 12.096 L1155.31 12.096 L1133.92 43.7741 L1133.92 72.576 L1125.69 72.576 L1125.69 43.7741 L1104.31 12.096 Z" fill="#000000" fill-rule="nonzero" fill-opacity="1" /><path clip-path="url(#clip370)" d="M1198.29 35.9153 Q1201.08 30.8922 1204.97 28.5022 Q1208.86 26.1121 1214.13 26.1121 Q1221.21 26.1121 1225.06 31.0947 Q1228.91 36.0368 1228.91 45.1919 L1228.91 72.576 L1221.42 72.576 L1221.42 45.4349 Q1221.42 38.913 1219.11 35.7533 Q1216.8 32.5936 1212.06 32.5936 Q1206.27 32.5936 1202.9 36.4419 Q1199.54 40.2903 1199.54 46.9338 L1199.54 72.576 L1192.05 72.576 L1192.05 45.4349 Q1192.05 38.8725 1189.74 35.7533 Q1187.43 32.5936 1182.61 32.5936 Q1176.9 32.5936 1173.54 36.4824 Q1170.17 40.3308 1170.17 46.9338 L1170.17 72.576 L1162.68 72.576 L1162.68 27.2059 L1170.17 27.2059 L1170.17 34.2544 Q1172.73 30.082 1176.29 28.0971 Q1179.86 26.1121 1184.76 26.1121 Q1189.7 26.1121 1193.14 28.6237 Q1196.63 31.1352 1198.29 35.9153 Z" fill="#000000" fill-rule="nonzero" fill-opacity="1" /><polyline clip-path="url(#clip372)" style="stroke:#7f7f7f; stroke-linecap:round; stroke-linejoin:round; stroke-width:4; stroke-opacity:0.5; fill:none" points="912.86,767.926 1492.31,767.926 "/>
<polyline clip-path="url(#clip372)" style="stroke:#7f7f7f; stroke-linecap:round; stroke-linejoin:round; stroke-width:4; stroke-opacity:0.5; fill:none" points="912.86,767.926 1414.68,478.202 "/>
<polyline clip-path="url(#clip372)" style="stroke:#7f7f7f; stroke-linecap:round; stroke-linejoin:round; stroke-width:4; stroke-opacity:0.5; fill:none" points="912.86,767.926 1202.58,266.11 "/>
<polyline clip-path="url(#clip372)" style="stroke:#7f7f7f; stroke-linecap:round; stroke-linejoin:round; stroke-width:4; stroke-opacity:0.5; fill:none" points="912.86,767.926 912.86,188.479 "/>
<polyline clip-path="url(#clip372)" style="stroke:#7f7f7f; stroke-linecap:round; stroke-linejoin:round; stroke-width:4; stroke-opacity:0.5; fill:none" points="912.86,767.926 623.136,266.11 "/>
<polyline clip-path="url(#clip372)" style="stroke:#7f7f7f; stroke-linecap:round; stroke-linejoin:round; stroke-width:4; stroke-opacity:0.5; fill:none" points="912.86,767.926 411.044,478.202 "/>
<polyline clip-path="url(#clip372)" style="stroke:#7f7f7f; stroke-linecap:round; stroke-linejoin:round; stroke-width:4; stroke-opacity:0.5; fill:none" points="912.86,767.926 333.413,767.926 "/>
<polyline clip-path="url(#clip372)" style="stroke:#7f7f7f; stroke-linecap:round; stroke-linejoin:round; stroke-width:4; stroke-opacity:0.5; fill:none" points="912.86,767.926 411.044,1057.65 "/>
<polyline clip-path="url(#clip372)" style="stroke:#7f7f7f; stroke-linecap:round; stroke-linejoin:round; stroke-width:4; stroke-opacity:0.5; fill:none" points="912.86,767.926 623.136,1269.74 "/>
<polyline clip-path="url(#clip372)" style="stroke:#7f7f7f; stroke-linecap:round; stroke-linejoin:round; stroke-width:4; stroke-opacity:0.5; fill:none" points="912.86,767.926 912.86,1347.37 "/>
<polyline clip-path="url(#clip372)" style="stroke:#7f7f7f; stroke-linecap:round; stroke-linejoin:round; stroke-width:4; stroke-opacity:0.5; fill:none" points="912.86,767.926 1202.58,1269.74 "/>
<polyline clip-path="url(#clip372)" style="stroke:#7f7f7f; stroke-linecap:round; stroke-linejoin:round; stroke-width:4; stroke-opacity:0.5; fill:none" points="912.86,767.926 1414.68,1057.65 "/>
<polyline clip-path="url(#clip372)" style="stroke:#5e0200; stroke-linecap:round; stroke-linejoin:round; stroke-width:6; stroke-opacity:1; fill:none" points="1492.31,767.926 1414.68,478.202 "/>
<polyline clip-path="url(#clip372)" style="stroke:#390d00; stroke-linecap:round; stroke-linejoin:round; stroke-width:6; stroke-opacity:1; fill:none" points="1414.68,478.202 1202.58,266.11 "/>
<polyline clip-path="url(#clip372)" style="stroke:#161600; stroke-linecap:round; stroke-linejoin:round; stroke-width:6; stroke-opacity:1; fill:none" points="1202.58,266.11 912.86,188.479 "/>
<polyline clip-path="url(#clip372)" style="stroke:#071b00; stroke-linecap:round; stroke-linejoin:round; stroke-width:6; stroke-opacity:1; fill:none" points="912.86,188.479 623.136,266.11 "/>
<polyline clip-path="url(#clip372)" style="stroke:#011d00; stroke-linecap:round; stroke-linejoin:round; stroke-width:6; stroke-opacity:1; fill:none" points="623.136,266.11 411.044,478.202 "/>
<polyline clip-path="url(#clip372)" style="stroke:#001c07; stroke-linecap:round; stroke-linejoin:round; stroke-width:6; stroke-opacity:1; fill:none" points="411.044,478.202 333.413,767.926 "/>
<polyline clip-path="url(#clip372)" style="stroke:#001a1c; stroke-linecap:round; stroke-linejoin:round; stroke-width:6; stroke-opacity:1; fill:none" points="333.413,767.926 411.044,1057.65 "/>
<polyline clip-path="url(#clip372)" style="stroke:#001368; stroke-linecap:round; stroke-linejoin:round; stroke-width:6; stroke-opacity:1; fill:none" points="411.044,1057.65 623.136,1269.74 "/>
<polyline clip-path="url(#clip372)" style="stroke:#0007ff; stroke-linecap:round; stroke-linejoin:round; stroke-width:6; stroke-opacity:1; fill:none" points="623.136,1269.74 912.86,1347.37 "/>
<polyline clip-path="url(#clip372)" style="stroke:#1e078c; stroke-linecap:round; stroke-linejoin:round; stroke-width:6; stroke-opacity:1; fill:none" points="912.86,1347.37 1202.58,1269.74 "/>
<polyline clip-path="url(#clip372)" style="stroke:#470349; stroke-linecap:round; stroke-linejoin:round; stroke-width:6; stroke-opacity:1; fill:none" points="1202.58,1269.74 1414.68,1057.65 "/>
<circle clip-path="url(#clip372)" cx="1492.31" cy="767.926" r="28.8" fill="#5e0200" fill-rule="evenodd" fill-opacity="1" stroke="none"/>
<circle clip-path="url(#clip372)" cx="1414.68" cy="478.202" r="28.8" fill="#390d00" fill-rule="evenodd" fill-opacity="1" stroke="none"/>
<circle clip-path="url(#clip372)" cx="1202.58" cy="266.11" r="28.8" fill="#161600" fill-rule="evenodd" fill-opacity="1" stroke="none"/>
<circle clip-path="url(#clip372)" cx="912.86" cy="188.479" r="28.8" fill="#071b00" fill-rule="evenodd" fill-opacity="1" stroke="none"/>
<circle clip-path="url(#clip372)" cx="623.136" cy="266.11" r="28.8" fill="#011d00" fill-rule="evenodd" fill-opacity="1" stroke="none"/>
<circle clip-path="url(#clip372)" cx="411.044" cy="478.202" r="28.8" fill="#001c07" fill-rule="evenodd" fill-opacity="1" stroke="none"/>
<circle clip-path="url(#clip372)" cx="333.413" cy="767.926" r="28.8" fill="#001a1c" fill-rule="evenodd" fill-opacity="1" stroke="none"/>
<circle clip-path="url(#clip372)" cx="411.044" cy="1057.65" r="28.8" fill="#001368" fill-rule="evenodd" fill-opacity="1" stroke="none"/>
<circle clip-path="url(#clip372)" cx="623.136" cy="1269.74" r="28.8" fill="#0007ff" fill-rule="evenodd" fill-opacity="1" stroke="none"/>
<circle clip-path="url(#clip372)" cx="912.86" cy="1347.37" r="28.8" fill="#1e078c" fill-rule="evenodd" fill-opacity="1" stroke="none"/>
<circle clip-path="url(#clip372)" cx="1202.58" cy="1269.74" r="28.8" fill="#470349" fill-rule="evenodd" fill-opacity="1" stroke="none"/>
<circle clip-path="url(#clip372)" cx="1414.68" cy="1057.65" r="28.8" fill="#590211" fill-rule="evenodd" fill-opacity="1" stroke="none"/>
</svg>
