<?xml version="1.0" encoding="utf-8"?>
<svg xmlns="http://www.w3.org/2000/svg" xmlns:xlink="http://www.w3.org/1999/xlink" width="600" height="400" viewBox="0 0 2400 1600">
<defs>
  <clipPath id="clip980">
    <rect x="0" y="0" width="2400" height="1600"/>
  </clipPath>
</defs>
<path clip-path="url(#clip980)" d="
M0 1600 L2400 1600 L2400 0 L0 0  Z
  " fill="#ffffff" fill-rule="evenodd" fill-opacity="1"/>
<defs>
  <clipPath id="clip981">
    <rect x="480" y="0" width="1681" height="1600"/>
  </clipPath>
</defs>
<path clip-path="url(#clip980)" d="
M197.852 1423.18 L2352.76 1423.18 L2352.76 47.2441 L197.852 47.2441  Z
  " fill="#ffffff" fill-rule="evenodd" fill-opacity="1"/>
<defs>
  <clipPath id="clip982">
    <rect x="197" y="47" width="2156" height="1377"/>
  </clipPath>
</defs>
<polyline clip-path="url(#clip982)" style="stroke:#000000; stroke-width:2; stroke-opacity:0.1; fill:none" points="
  445.259,1423.18 445.259,47.2441 
  "/>
<polyline clip-path="url(#clip982)" style="stroke:#000000; stroke-width:2; stroke-opacity:0.1; fill:none" points="
  784.081,1423.18 784.081,47.2441 
  "/>
<polyline clip-path="url(#clip982)" style="stroke:#000000; stroke-width:2; stroke-opacity:0.1; fill:none" points="
  1122.9,1423.18 1122.9,47.2441 
  "/>
<polyline clip-path="url(#clip982)" style="stroke:#000000; stroke-width:2; stroke-opacity:0.1; fill:none" points="
  1800.55,1423.18 1800.55,47.2441 
  "/>
<polyline clip-path="url(#clip982)" style="stroke:#000000; stroke-width:2; stroke-opacity:0.1; fill:none" points="
  2139.37,1423.18 2139.37,47.2441 
  "/>
<polyline clip-path="url(#clip982)" style="stroke:#000000; stroke-width:2; stroke-opacity:0.1; fill:none" points="
  197.852,1108.77 2352.76,1108.77 
  "/>
<polyline clip-path="url(#clip982)" style="stroke:#000000; stroke-width:2; stroke-opacity:0.1; fill:none" points="
  197.852,923.135 2352.76,923.135 
  "/>
<polyline clip-path="url(#clip982)" style="stroke:#000000; stroke-width:2; stroke-opacity:0.1; fill:none" points="
  197.852,737.499 2352.76,737.499 
  "/>
<polyline clip-path="url(#clip982)" style="stroke:#000000; stroke-width:2; stroke-opacity:0.1; fill:none" points="
  197.852,551.863 2352.76,551.863 
  "/>
<polyline clip-path="url(#clip982)" style="stroke:#000000; stroke-width:2; stroke-opacity:0.1; fill:none" points="
  197.852,366.227 2352.76,366.227 
  "/>
<polyline clip-path="url(#clip982)" style="stroke:#000000; stroke-width:2; stroke-opacity:0.1; fill:none" points="
  197.852,180.591 2352.76,180.591 
  "/>
<polyline clip-path="url(#clip980)" style="stroke:#000000; stroke-width:4; stroke-opacity:1; fill:none" points="
  197.852,1294.41 2352.76,1294.41 
  "/>
<polyline clip-path="url(#clip980)" style="stroke:#000000; stroke-width:4; stroke-opacity:1; fill:none" points="
  1461.72,1423.18 1461.72,47.2441 
  "/>
<polyline clip-path="url(#clip980)" style="stroke:#000000; stroke-width:4; stroke-opacity:1; fill:none" points="
  445.259,1310.92 445.259,1277.9 
  "/>
<polyline clip-path="url(#clip980)" style="stroke:#000000; stroke-width:4; stroke-opacity:1; fill:none" points="
  784.081,1310.92 784.081,1277.9 
  "/>
<polyline clip-path="url(#clip980)" style="stroke:#000000; stroke-width:4; stroke-opacity:1; fill:none" points="
  1122.9,1310.92 1122.9,1277.9 
  "/>
<polyline clip-path="url(#clip980)" style="stroke:#000000; stroke-width:4; stroke-opacity:1; fill:none" points="
  1800.55,1310.92 1800.55,1277.9 
  "/>
<polyline clip-path="url(#clip980)" style="stroke:#000000; stroke-width:4; stroke-opacity:1; fill:none" points="
  2139.37,1310.92 2139.37,1277.9 
  "/>
<polyline clip-path="url(#clip980)" style="stroke:#000000; stroke-width:4; stroke-opacity:1; fill:none" points="
  1435.87,1108.77 1487.58,1108.77 
  "/>
<polyline clip-path="url(#clip980)" style="stroke:#000000; stroke-width:4; stroke-opacity:1; fill:none" points="
  1435.87,923.135 1487.58,923.135 
  "/>
<polyline clip-path="url(#clip980)" style="stroke:#000000; stroke-width:4; stroke-opacity:1; fill:none" points="
  1435.87,737.499 1487.58,737.499 
  "/>
<polyline clip-path="url(#clip980)" style="stroke:#000000; stroke-width:4; stroke-opacity:1; fill:none" points="
  1435.87,551.863 1487.58,551.863 
  "/>
<polyline clip-path="url(#clip980)" style="stroke:#000000; stroke-width:4; stroke-opacity:1; fill:none" points="
  1435.87,366.227 1487.58,366.227 
  "/>
<polyline clip-path="url(#clip980)" style="stroke:#000000; stroke-width:4; stroke-opacity:1; fill:none" points="
  1435.87,180.591 1487.58,180.591 
  "/>
<path clip-path="url(#clip980)" d="M 0 0 M385.872 1331.05 L415.548 1331.05 L415.548 1334.99 L385.872 1334.99 L385.872 1331.05 Z" fill="#000000" fill-rule="evenodd" fill-opacity="1" /><path clip-path="url(#clip980)" d="M 0 0 M430.618 1316.4 Q427.007 1316.4 425.178 1319.96 Q423.372 1323.5 423.372 1330.63 Q423.372 1337.74 425.178 1341.31 Q427.007 1344.85 430.618 1344.85 Q434.252 1344.85 436.057 1341.31 Q437.886 1337.74 437.886 1330.63 Q437.886 1323.5 436.057 1319.96 Q434.252 1316.4 430.618 1316.4 M430.618 1312.69 Q436.428 1312.69 439.483 1317.3 Q442.562 1321.88 442.562 1330.63 Q442.562 1339.36 439.483 1343.97 Q436.428 1348.55 430.618 1348.55 Q424.807 1348.55 421.729 1343.97 Q418.673 1339.36 418.673 1330.63 Q418.673 1321.88 421.729 1317.3 Q424.807 1312.69 430.618 1312.69 Z" fill="#000000" fill-rule="evenodd" fill-opacity="1" /><path clip-path="url(#clip980)" d="M 0 0 M447.631 1342 L452.516 1342 L452.516 1347.88 L447.631 1347.88 L447.631 1342 Z" fill="#000000" fill-rule="evenodd" fill-opacity="1" /><path clip-path="url(#clip980)" d="M 0 0 M456.404 1313.32 L478.627 1313.32 L478.627 1315.31 L466.08 1347.88 L461.196 1347.88 L473.002 1317.25 L456.404 1317.25 L456.404 1313.32 Z" fill="#000000" fill-rule="evenodd" fill-opacity="1" /><path clip-path="url(#clip980)" d="M 0 0 M483.742 1313.32 L502.099 1313.32 L502.099 1317.25 L488.025 1317.25 L488.025 1325.73 Q489.043 1325.38 490.062 1325.22 Q491.08 1325.03 492.099 1325.03 Q497.886 1325.03 501.265 1328.2 Q504.645 1331.37 504.645 1336.79 Q504.645 1342.37 501.173 1345.47 Q497.701 1348.55 491.381 1348.55 Q489.205 1348.55 486.937 1348.18 Q484.691 1347.81 482.284 1347.07 L482.284 1342.37 Q484.367 1343.5 486.59 1344.06 Q488.812 1344.62 491.289 1344.62 Q495.293 1344.62 497.631 1342.51 Q499.969 1340.4 499.969 1336.79 Q499.969 1333.18 497.631 1331.07 Q495.293 1328.97 491.289 1328.97 Q489.414 1328.97 487.539 1329.38 Q485.687 1329.8 483.742 1330.68 L483.742 1313.32 Z" fill="#000000" fill-rule="evenodd" fill-opacity="1" /><path clip-path="url(#clip980)" d="M 0 0 M724.243 1331.05 L753.919 1331.05 L753.919 1334.99 L724.243 1334.99 L724.243 1331.05 Z" fill="#000000" fill-rule="evenodd" fill-opacity="1" /><path clip-path="url(#clip980)" d="M 0 0 M768.988 1316.4 Q765.377 1316.4 763.548 1319.96 Q761.743 1323.5 761.743 1330.63 Q761.743 1337.74 763.548 1341.31 Q765.377 1344.85 768.988 1344.85 Q772.622 1344.85 774.428 1341.31 Q776.257 1337.74 776.257 1330.63 Q776.257 1323.5 774.428 1319.96 Q772.622 1316.4 768.988 1316.4 M768.988 1312.69 Q774.798 1312.69 777.854 1317.3 Q780.932 1321.88 780.932 1330.63 Q780.932 1339.36 777.854 1343.97 Q774.798 1348.55 768.988 1348.55 Q763.178 1348.55 760.099 1343.97 Q757.044 1339.36 757.044 1330.63 Q757.044 1321.88 760.099 1317.3 Q763.178 1312.69 768.988 1312.69 Z" fill="#000000" fill-rule="evenodd" fill-opacity="1" /><path clip-path="url(#clip980)" d="M 0 0 M786.002 1342 L790.886 1342 L790.886 1347.88 L786.002 1347.88 L786.002 1342 Z" fill="#000000" fill-rule="evenodd" fill-opacity="1" /><path clip-path="url(#clip980)" d="M 0 0 M796.002 1313.32 L814.358 1313.32 L814.358 1317.25 L800.284 1317.25 L800.284 1325.73 Q801.303 1325.38 802.321 1325.22 Q803.34 1325.03 804.358 1325.03 Q810.145 1325.03 813.525 1328.2 Q816.904 1331.37 816.904 1336.79 Q816.904 1342.37 813.432 1345.47 Q809.96 1348.55 803.641 1348.55 Q801.465 1348.55 799.196 1348.18 Q796.951 1347.81 794.543 1347.07 L794.543 1342.37 Q796.627 1343.5 798.849 1344.06 Q801.071 1344.62 803.548 1344.62 Q807.553 1344.62 809.891 1342.51 Q812.229 1340.4 812.229 1336.79 Q812.229 1333.18 809.891 1331.07 Q807.553 1328.97 803.548 1328.97 Q801.673 1328.97 799.798 1329.38 Q797.946 1329.8 796.002 1330.68 L796.002 1313.32 Z" fill="#000000" fill-rule="evenodd" fill-opacity="1" /><path clip-path="url(#clip980)" d="M 0 0 M831.974 1316.4 Q828.363 1316.4 826.534 1319.96 Q824.728 1323.5 824.728 1330.63 Q824.728 1337.74 826.534 1341.31 Q828.363 1344.85 831.974 1344.85 Q835.608 1344.85 837.414 1341.31 Q839.242 1337.74 839.242 1330.63 Q839.242 1323.5 837.414 1319.96 Q835.608 1316.4 831.974 1316.4 M831.974 1312.69 Q837.784 1312.69 840.84 1317.3 Q843.918 1321.88 843.918 1330.63 Q843.918 1339.36 840.84 1343.97 Q837.784 1348.55 831.974 1348.55 Q826.164 1348.55 823.085 1343.97 Q820.029 1339.36 820.029 1330.63 Q820.029 1321.88 823.085 1317.3 Q826.164 1312.69 831.974 1312.69 Z" fill="#000000" fill-rule="evenodd" fill-opacity="1" /><path clip-path="url(#clip980)" d="M 0 0 M1063.86 1331.05 L1093.54 1331.05 L1093.54 1334.99 L1063.86 1334.99 L1063.86 1331.05 Z" fill="#000000" fill-rule="evenodd" fill-opacity="1" /><path clip-path="url(#clip980)" d="M 0 0 M1108.61 1316.4 Q1105 1316.4 1103.17 1319.96 Q1101.36 1323.5 1101.36 1330.63 Q1101.36 1337.74 1103.17 1341.31 Q1105 1344.85 1108.61 1344.85 Q1112.24 1344.85 1114.05 1341.31 Q1115.88 1337.74 1115.88 1330.63 Q1115.88 1323.5 1114.05 1319.96 Q1112.24 1316.4 1108.61 1316.4 M1108.61 1312.69 Q1114.42 1312.69 1117.47 1317.3 Q1120.55 1321.88 1120.55 1330.63 Q1120.55 1339.36 1117.47 1343.97 Q1114.42 1348.55 1108.61 1348.55 Q1102.8 1348.55 1099.72 1343.97 Q1096.66 1339.36 1096.66 1330.63 Q1096.66 1321.88 1099.72 1317.3 Q1102.8 1312.69 1108.61 1312.69 Z" fill="#000000" fill-rule="evenodd" fill-opacity="1" /><path clip-path="url(#clip980)" d="M 0 0 M1125.62 1342 L1130.51 1342 L1130.51 1347.88 L1125.62 1347.88 L1125.62 1342 Z" fill="#000000" fill-rule="evenodd" fill-opacity="1" /><path clip-path="url(#clip980)" d="M 0 0 M1139.6 1343.94 L1155.92 1343.94 L1155.92 1347.88 L1133.98 1347.88 L1133.98 1343.94 Q1136.64 1341.19 1141.22 1336.56 Q1145.83 1331.91 1147.01 1330.56 Q1149.26 1328.04 1150.14 1326.31 Q1151.04 1324.55 1151.04 1322.86 Q1151.04 1320.1 1149.09 1318.37 Q1147.17 1316.63 1144.07 1316.63 Q1141.87 1316.63 1139.42 1317.39 Q1136.99 1318.16 1134.21 1319.71 L1134.21 1314.99 Q1137.03 1313.85 1139.49 1313.27 Q1141.94 1312.69 1143.98 1312.69 Q1149.35 1312.69 1152.54 1315.38 Q1155.74 1318.06 1155.74 1322.56 Q1155.74 1324.69 1154.93 1326.61 Q1154.14 1328.5 1152.03 1331.1 Q1151.46 1331.77 1148.35 1334.99 Q1145.25 1338.18 1139.6 1343.94 Z" fill="#000000" fill-rule="evenodd" fill-opacity="1" /><path clip-path="url(#clip980)" d="M 0 0 M1161.04 1313.32 L1179.4 1313.32 L1179.4 1317.25 L1165.32 1317.25 L1165.32 1325.73 Q1166.34 1325.38 1167.36 1325.22 Q1168.38 1325.03 1169.4 1325.03 Q1175.18 1325.03 1178.56 1328.2 Q1181.94 1331.37 1181.94 1336.79 Q1181.94 1342.37 1178.47 1345.47 Q1175 1348.55 1168.68 1348.55 Q1166.5 1348.55 1164.23 1348.18 Q1161.99 1347.81 1159.58 1347.07 L1159.58 1342.37 Q1161.66 1343.5 1163.89 1344.06 Q1166.11 1344.62 1168.58 1344.62 Q1172.59 1344.62 1174.93 1342.51 Q1177.27 1340.4 1177.27 1336.79 Q1177.27 1333.18 1174.93 1331.07 Q1172.59 1328.97 1168.58 1328.97 Q1166.71 1328.97 1164.84 1329.38 Q1162.98 1329.8 1161.04 1330.68 L1161.04 1313.32 Z" fill="#000000" fill-rule="evenodd" fill-opacity="1" /><path clip-path="url(#clip980)" d="M 0 0 M1769.85 1316.4 Q1766.24 1316.4 1764.41 1319.96 Q1762.61 1323.5 1762.61 1330.63 Q1762.61 1337.74 1764.41 1341.31 Q1766.24 1344.85 1769.85 1344.85 Q1773.49 1344.85 1775.29 1341.31 Q1777.12 1337.74 1777.12 1330.63 Q1777.12 1323.5 1775.29 1319.96 Q1773.49 1316.4 1769.85 1316.4 M1769.85 1312.69 Q1775.66 1312.69 1778.72 1317.3 Q1781.8 1321.88 1781.8 1330.63 Q1781.8 1339.36 1778.72 1343.97 Q1775.66 1348.55 1769.85 1348.55 Q1764.04 1348.55 1760.96 1343.97 Q1757.91 1339.36 1757.91 1330.63 Q1757.91 1321.88 1760.96 1317.3 Q1764.04 1312.69 1769.85 1312.69 Z" fill="#000000" fill-rule="evenodd" fill-opacity="1" /><path clip-path="url(#clip980)" d="M 0 0 M1786.87 1342 L1791.75 1342 L1791.75 1347.88 L1786.87 1347.88 L1786.87 1342 Z" fill="#000000" fill-rule="evenodd" fill-opacity="1" /><path clip-path="url(#clip980)" d="M 0 0 M1800.85 1343.94 L1817.17 1343.94 L1817.17 1347.88 L1795.22 1347.88 L1795.22 1343.94 Q1797.88 1341.19 1802.47 1336.56 Q1807.07 1331.91 1808.25 1330.56 Q1810.5 1328.04 1811.38 1326.31 Q1812.28 1324.55 1812.28 1322.86 Q1812.28 1320.1 1810.34 1318.37 Q1808.42 1316.63 1805.31 1316.63 Q1803.12 1316.63 1800.66 1317.39 Q1798.23 1318.16 1795.45 1319.71 L1795.45 1314.99 Q1798.28 1313.85 1800.73 1313.27 Q1803.18 1312.69 1805.22 1312.69 Q1810.59 1312.69 1813.79 1315.38 Q1816.98 1318.06 1816.98 1322.56 Q1816.98 1324.69 1816.17 1326.61 Q1815.38 1328.5 1813.28 1331.1 Q1812.7 1331.77 1809.6 1334.99 Q1806.5 1338.18 1800.85 1343.94 Z" fill="#000000" fill-rule="evenodd" fill-opacity="1" /><path clip-path="url(#clip980)" d="M 0 0 M1822.28 1313.32 L1840.64 1313.32 L1840.64 1317.25 L1826.56 1317.25 L1826.56 1325.73 Q1827.58 1325.38 1828.6 1325.22 Q1829.62 1325.03 1830.64 1325.03 Q1836.43 1325.03 1839.81 1328.2 Q1843.18 1331.37 1843.18 1336.79 Q1843.18 1342.37 1839.71 1345.47 Q1836.24 1348.55 1829.92 1348.55 Q1827.74 1348.55 1825.48 1348.18 Q1823.23 1347.81 1820.82 1347.07 L1820.82 1342.37 Q1822.91 1343.5 1825.13 1344.06 Q1827.35 1344.62 1829.83 1344.62 Q1833.83 1344.62 1836.17 1342.51 Q1838.51 1340.4 1838.51 1336.79 Q1838.51 1333.18 1836.17 1331.07 Q1833.83 1328.97 1829.83 1328.97 Q1827.95 1328.97 1826.08 1329.38 Q1824.23 1329.8 1822.28 1330.68 L1822.28 1313.32 Z" fill="#000000" fill-rule="evenodd" fill-opacity="1" /><path clip-path="url(#clip980)" d="M 0 0 M2107.87 1316.4 Q2104.26 1316.4 2102.44 1319.96 Q2100.63 1323.5 2100.63 1330.63 Q2100.63 1337.74 2102.44 1341.31 Q2104.26 1344.85 2107.87 1344.85 Q2111.51 1344.85 2113.31 1341.31 Q2115.14 1337.74 2115.14 1330.63 Q2115.14 1323.5 2113.31 1319.96 Q2111.51 1316.4 2107.87 1316.4 M2107.87 1312.69 Q2113.69 1312.69 2116.74 1317.3 Q2119.82 1321.88 2119.82 1330.63 Q2119.82 1339.36 2116.74 1343.97 Q2113.69 1348.55 2107.87 1348.55 Q2102.06 1348.55 2098.99 1343.97 Q2095.93 1339.36 2095.93 1330.63 Q2095.93 1321.88 2098.99 1317.3 Q2102.06 1312.69 2107.87 1312.69 Z" fill="#000000" fill-rule="evenodd" fill-opacity="1" /><path clip-path="url(#clip980)" d="M 0 0 M2124.89 1342 L2129.77 1342 L2129.77 1347.88 L2124.89 1347.88 L2124.89 1342 Z" fill="#000000" fill-rule="evenodd" fill-opacity="1" /><path clip-path="url(#clip980)" d="M 0 0 M2134.89 1313.32 L2153.25 1313.32 L2153.25 1317.25 L2139.17 1317.25 L2139.17 1325.73 Q2140.19 1325.38 2141.21 1325.22 Q2142.23 1325.03 2143.25 1325.03 Q2149.03 1325.03 2152.41 1328.2 Q2155.79 1331.37 2155.79 1336.79 Q2155.79 1342.37 2152.32 1345.47 Q2148.85 1348.55 2142.53 1348.55 Q2140.35 1348.55 2138.08 1348.18 Q2135.84 1347.81 2133.43 1347.07 L2133.43 1342.37 Q2135.51 1343.5 2137.74 1344.06 Q2139.96 1344.62 2142.43 1344.62 Q2146.44 1344.62 2148.78 1342.51 Q2151.12 1340.4 2151.12 1336.79 Q2151.12 1333.18 2148.78 1331.07 Q2146.44 1328.97 2142.43 1328.97 Q2140.56 1328.97 2138.68 1329.38 Q2136.83 1329.8 2134.89 1330.68 L2134.89 1313.32 Z" fill="#000000" fill-rule="evenodd" fill-opacity="1" /><path clip-path="url(#clip980)" d="M 0 0 M2170.86 1316.4 Q2167.25 1316.4 2165.42 1319.96 Q2163.62 1323.5 2163.62 1330.63 Q2163.62 1337.74 2165.42 1341.31 Q2167.25 1344.85 2170.86 1344.85 Q2174.49 1344.85 2176.3 1341.31 Q2178.13 1337.74 2178.13 1330.63 Q2178.13 1323.5 2176.3 1319.96 Q2174.49 1316.4 2170.86 1316.4 M2170.86 1312.69 Q2176.67 1312.69 2179.73 1317.3 Q2182.81 1321.88 2182.81 1330.63 Q2182.81 1339.36 2179.73 1343.97 Q2176.67 1348.55 2170.86 1348.55 Q2165.05 1348.55 2161.97 1343.97 Q2158.92 1339.36 2158.92 1330.63 Q2158.92 1321.88 2161.97 1317.3 Q2165.05 1312.69 2170.86 1312.69 Z" fill="#000000" fill-rule="evenodd" fill-opacity="1" /><path clip-path="url(#clip980)" d="M 0 0 M1421.4 1122.12 L1437.72 1122.12 L1437.72 1126.05 L1415.78 1126.05 L1415.78 1122.12 Q1418.44 1119.36 1423.03 1114.73 Q1427.63 1110.08 1428.81 1108.74 Q1431.06 1106.21 1431.94 1104.48 Q1432.84 1102.72 1432.84 1101.03 Q1432.84 1098.27 1430.9 1096.54 Q1428.97 1094.8 1425.87 1094.8 Q1423.67 1094.8 1421.22 1095.57 Q1418.79 1096.33 1416.01 1097.88 L1416.01 1093.16 Q1418.84 1092.02 1421.29 1091.44 Q1423.74 1090.87 1425.78 1090.87 Q1431.15 1090.87 1434.34 1093.55 Q1437.54 1096.24 1437.54 1100.73 Q1437.54 1102.86 1436.73 1104.78 Q1435.94 1106.68 1433.84 1109.27 Q1433.26 1109.94 1430.15 1113.16 Q1427.05 1116.35 1421.4 1122.12 Z" fill="#000000" fill-rule="evenodd" fill-opacity="1" /><path clip-path="url(#clip980)" d="M 0 0 M1428.14 909.929 L1416.34 928.378 L1428.14 928.378 L1428.14 909.929 M1426.91 905.855 L1432.79 905.855 L1432.79 928.378 L1437.72 928.378 L1437.72 932.267 L1432.79 932.267 L1432.79 940.415 L1428.14 940.415 L1428.14 932.267 L1412.54 932.267 L1412.54 927.753 L1426.91 905.855 Z" fill="#000000" fill-rule="evenodd" fill-opacity="1" /><path clip-path="url(#clip980)" d="M 0 0 M1426.2 735.636 Q1423.05 735.636 1421.2 737.788 Q1419.37 739.941 1419.37 743.691 Q1419.37 747.418 1421.2 749.594 Q1423.05 751.747 1426.2 751.747 Q1429.34 751.747 1431.17 749.594 Q1433.03 747.418 1433.03 743.691 Q1433.03 739.941 1431.17 737.788 Q1429.34 735.636 1426.2 735.636 M1435.48 720.983 L1435.48 725.242 Q1433.72 724.409 1431.91 723.969 Q1430.13 723.529 1428.37 723.529 Q1423.74 723.529 1421.29 726.654 Q1418.86 729.779 1418.51 736.099 Q1419.88 734.085 1421.94 733.02 Q1424 731.932 1426.47 731.932 Q1431.68 731.932 1434.69 735.103 Q1437.72 738.251 1437.72 743.691 Q1437.72 749.015 1434.58 752.233 Q1431.43 755.45 1426.2 755.45 Q1420.2 755.45 1417.03 750.867 Q1413.86 746.261 1413.86 737.534 Q1413.86 729.339 1417.75 724.478 Q1421.64 719.594 1428.19 719.594 Q1429.95 719.594 1431.73 719.941 Q1433.53 720.289 1435.48 720.983 Z" fill="#000000" fill-rule="evenodd" fill-opacity="1" /><path clip-path="url(#clip980)" d="M 0 0 M1425.87 552.731 Q1422.54 552.731 1420.62 554.513 Q1418.72 556.296 1418.72 559.421 Q1418.72 562.546 1420.62 564.328 Q1422.54 566.111 1425.87 566.111 Q1429.21 566.111 1431.13 564.328 Q1433.05 562.523 1433.05 559.421 Q1433.05 556.296 1431.13 554.513 Q1429.23 552.731 1425.87 552.731 M1421.2 550.74 Q1418.19 550 1416.5 547.939 Q1414.83 545.879 1414.83 542.916 Q1414.83 538.773 1417.77 536.365 Q1420.73 533.958 1425.87 533.958 Q1431.03 533.958 1433.97 536.365 Q1436.91 538.773 1436.91 542.916 Q1436.91 545.879 1435.22 547.939 Q1433.56 550 1430.57 550.74 Q1433.95 551.527 1435.83 553.819 Q1437.72 556.111 1437.72 559.421 Q1437.72 564.444 1434.65 567.129 Q1431.59 569.814 1425.87 569.814 Q1420.15 569.814 1417.08 567.129 Q1414.02 564.444 1414.02 559.421 Q1414.02 556.111 1415.92 553.819 Q1417.82 551.527 1421.2 550.74 M1419.48 543.356 Q1419.48 546.041 1421.15 547.546 Q1422.84 549.051 1425.87 549.051 Q1428.88 549.051 1430.57 547.546 Q1432.28 546.041 1432.28 543.356 Q1432.28 540.671 1430.57 539.166 Q1428.88 537.662 1425.87 537.662 Q1422.84 537.662 1421.15 539.166 Q1419.48 540.671 1419.48 543.356 Z" fill="#000000" fill-rule="evenodd" fill-opacity="1" /><path clip-path="url(#clip980)" d="M 0 0 M1390.8 379.572 L1398.44 379.572 L1398.44 353.206 L1390.13 354.873 L1390.13 350.614 L1398.4 348.947 L1403.07 348.947 L1403.07 379.572 L1410.71 379.572 L1410.71 383.507 L1390.8 383.507 L1390.8 379.572 Z" fill="#000000" fill-rule="evenodd" fill-opacity="1" /><path clip-path="url(#clip980)" d="M 0 0 M1425.78 352.026 Q1422.17 352.026 1420.34 355.59 Q1418.53 359.132 1418.53 366.262 Q1418.53 373.368 1420.34 376.933 Q1422.17 380.475 1425.78 380.475 Q1429.41 380.475 1431.22 376.933 Q1433.05 373.368 1433.05 366.262 Q1433.05 359.132 1431.22 355.59 Q1429.41 352.026 1425.78 352.026 M1425.78 348.322 Q1431.59 348.322 1434.65 352.928 Q1437.72 357.512 1437.72 366.262 Q1437.72 374.988 1434.65 379.595 Q1431.59 384.178 1425.78 384.178 Q1419.97 384.178 1416.89 379.595 Q1413.84 374.988 1413.84 366.262 Q1413.84 357.512 1416.89 352.928 Q1419.97 348.322 1425.78 348.322 Z" fill="#000000" fill-rule="evenodd" fill-opacity="1" /><path clip-path="url(#clip980)" d="M 0 0 M1392.4 193.936 L1400.04 193.936 L1400.04 167.57 L1391.73 169.237 L1391.73 164.978 L1399.99 163.311 L1404.67 163.311 L1404.67 193.936 L1412.31 193.936 L1412.31 197.871 L1392.4 197.871 L1392.4 193.936 Z" fill="#000000" fill-rule="evenodd" fill-opacity="1" /><path clip-path="url(#clip980)" d="M 0 0 M1421.4 193.936 L1437.72 193.936 L1437.72 197.871 L1415.78 197.871 L1415.78 193.936 Q1418.44 191.181 1423.03 186.551 Q1427.63 181.899 1428.81 180.556 Q1431.06 178.033 1431.94 176.297 Q1432.84 174.538 1432.84 172.848 Q1432.84 170.093 1430.9 168.357 Q1428.97 166.621 1425.87 166.621 Q1423.67 166.621 1421.22 167.385 Q1418.79 168.149 1416.01 169.7 L1416.01 164.978 Q1418.84 163.843 1421.29 163.265 Q1423.74 162.686 1425.78 162.686 Q1431.15 162.686 1434.34 165.371 Q1437.54 168.056 1437.54 172.547 Q1437.54 174.677 1436.73 176.598 Q1435.94 178.496 1433.84 181.089 Q1433.26 181.76 1430.15 184.977 Q1427.05 188.172 1421.4 193.936 Z" fill="#000000" fill-rule="evenodd" fill-opacity="1" /><path clip-path="url(#clip980)" d="M 0 0 M1225.99 1508.52 L1232.42 1508.52 L1232.42 1550.63 L1255.55 1550.63 L1255.55 1556.04 L1225.99 1556.04 L1225.99 1508.52 Z" fill="#000000" fill-rule="evenodd" fill-opacity="1" /><path clip-path="url(#clip980)" d="M 0 0 M1257.59 1535.58 L1274.75 1535.58 L1274.75 1540.8 L1257.59 1540.8 L1257.59 1535.58 Z" fill="#000000" fill-rule="evenodd" fill-opacity="1" /><path clip-path="url(#clip980)" d="M 0 0 M1281.14 1508.52 L1290.73 1508.52 L1302.85 1540.86 L1315.04 1508.52 L1324.62 1508.52 L1324.62 1556.04 L1318.35 1556.04 L1318.35 1514.32 L1306.1 1546.91 L1299.64 1546.91 L1287.38 1514.32 L1287.38 1556.04 L1281.14 1556.04 L1281.14 1508.52 Z" fill="#000000" fill-rule="evenodd" fill-opacity="1" /><path clip-path="url(#clip980)" d="M 0 0 M42.0438 818.316 L48.314 818.316 Q46.5634 821.977 45.704 825.223 Q44.8447 828.47 44.8447 831.493 Q44.8447 836.745 46.8817 839.61 Q48.9187 842.442 52.6745 842.442 Q55.8255 842.442 57.4488 840.564 Q59.0402 838.655 60.0269 833.371 L60.8226 829.488 Q62.1912 822.295 65.6605 818.889 Q69.098 815.452 74.8908 815.452 Q81.7976 815.452 85.3624 820.099 Q88.9272 824.714 88.9272 833.658 Q88.9272 837.031 88.1633 840.851 Q87.3994 844.638 85.9035 848.713 L79.2831 848.713 Q81.4793 844.798 82.5933 841.042 Q83.7073 837.286 83.7073 833.658 Q83.7073 828.151 81.543 825.159 Q79.3786 822.168 75.3682 822.168 Q71.8671 822.168 69.8937 824.332 Q67.9204 826.464 66.9337 831.366 L66.1698 835.281 Q64.7375 842.474 61.682 845.689 Q58.6264 848.903 53.1837 848.903 Q46.8817 848.903 43.2532 844.479 Q39.6248 840.023 39.6248 832.225 Q39.6248 828.883 40.2295 825.414 Q40.8343 821.945 42.0438 818.316 Z" fill="#000000" fill-rule="evenodd" fill-opacity="1" /><path clip-path="url(#clip980)" d="M 0 0 M67.5384 812.269 L67.5384 795.113 L72.7583 795.113 L72.7583 812.269 L67.5384 812.269 Z" fill="#000000" fill-rule="evenodd" fill-opacity="1" /><path clip-path="url(#clip980)" d="M 0 0 M38.5426 774.902 Q45.8632 779.167 53.0246 781.236 Q60.186 783.305 67.5384 783.305 Q74.8908 783.305 82.1159 781.236 Q89.3091 779.135 96.5979 774.902 L96.5979 779.995 Q89.1182 784.769 81.8931 787.156 Q74.668 789.511 67.5384 789.511 Q60.4406 789.511 53.2474 787.156 Q46.0542 784.801 38.5426 779.995 L38.5426 774.902 Z" fill="#000000" fill-rule="evenodd" fill-opacity="1" /><path clip-path="url(#clip980)" d="M 0 0 M40.4842 768.505 L40.4842 762.075 L82.5933 762.075 L82.5933 738.936 L88.0042 738.936 L88.0042 768.505 L40.4842 768.505 Z" fill="#000000" fill-rule="evenodd" fill-opacity="1" /><path clip-path="url(#clip980)" d="M 0 0 M47.1363 708.953 L64.8648 708.953 L64.8648 691.225 L70.2757 691.225 L70.2757 708.953 L88.0042 708.953 L88.0042 714.301 L70.2757 714.301 L70.2757 732.029 L64.8648 732.029 L64.8648 714.301 L47.1363 714.301 L47.1363 708.953 Z" fill="#000000" fill-rule="evenodd" fill-opacity="1" /><path clip-path="url(#clip980)" d="M 0 0 M40.4842 684.827 L40.4842 675.247 L72.8219 663.12 L40.4842 650.93 L40.4842 641.35 L88.0042 641.35 L88.0042 647.62 L46.277 647.62 L78.8694 659.874 L78.8694 666.335 L46.277 678.589 L88.0042 678.589 L88.0042 684.827 L40.4842 684.827 Z" fill="#000000" fill-rule="evenodd" fill-opacity="1" /><path clip-path="url(#clip980)" d="M 0 0 M38.5426 636.13 L38.5426 631.037 Q46.0542 626.263 53.2474 623.908 Q60.4406 621.52 67.5384 621.52 Q74.668 621.52 81.8931 623.908 Q89.1182 626.263 96.5979 631.037 L96.5979 636.13 Q89.3091 631.897 82.1159 629.828 Q74.8908 627.727 67.5384 627.727 Q60.186 627.727 53.0246 629.828 Q45.8632 631.897 38.5426 636.13 Z" fill="#000000" fill-rule="evenodd" fill-opacity="1" /><polyline clip-path="url(#clip982)" style="stroke:#cc0000; stroke-width:4; stroke-opacity:1; fill:none" points="
  2291.77,1384.24 1900.5,1378.55 
  "/>
<polyline clip-path="url(#clip982)" style="stroke:#cc6600; stroke-width:4; stroke-opacity:1; fill:none" points="
  1900.5,1378.55 1491.48,1380.11 
  "/>
<polyline clip-path="url(#clip982)" style="stroke:#cccc00; stroke-width:4; stroke-opacity:1; fill:none" points="
  1491.48,1380.11 1311.34,1378.93 
  "/>
<polyline clip-path="url(#clip982)" style="stroke:#66cc00; stroke-width:4; stroke-opacity:1; fill:none" points="
  1311.34,1378.93 1261.08,1378.08 
  "/>
<polyline clip-path="url(#clip982)" style="stroke:#00cc00; stroke-width:4; stroke-opacity:1; fill:none" points="
  1261.08,1378.08 1245.86,1350.37 
  "/>
<polyline clip-path="url(#clip982)" style="stroke:#00cc66; stroke-width:4; stroke-opacity:1; fill:none" points="
  1245.86,1350.37 1172.24,1251.63 
  "/>
<polyline clip-path="url(#clip982)" style="stroke:#00cccc; stroke-width:4; stroke-opacity:1; fill:none" points="
  1172.24,1251.63 898.682,902.457 
  "/>
<polyline clip-path="url(#clip982)" style="stroke:#0066cc; stroke-width:4; stroke-opacity:1; fill:none" points="
  898.682,902.457 258.84,86.1857 
  "/>
<polyline clip-path="url(#clip982)" style="stroke:#0000cc; stroke-width:4; stroke-opacity:1; fill:none" points="
  258.84,86.1857 1098.93,632.393 
  "/>
<polyline clip-path="url(#clip982)" style="stroke:#6600cc; stroke-width:4; stroke-opacity:1; fill:none" points="
  1098.93,632.393 1786.45,1071.84 
  "/>
<polyline clip-path="url(#clip982)" style="stroke:#cc00cc; stroke-width:4; stroke-opacity:1; fill:none" points="
  1786.45,1071.84 2157.71,1305.31 
  "/>
<circle clip-path="url(#clip982)" cx="2291.77" cy="1384.24" r="32" fill="#cc0000" fill-rule="evenodd" fill-opacity="1" stroke="#000000" stroke-opacity="1" stroke-width="3.2"/>
<circle clip-path="url(#clip982)" cx="1900.5" cy="1378.55" r="32" fill="#cc6600" fill-rule="evenodd" fill-opacity="1" stroke="#000000" stroke-opacity="1" stroke-width="3.2"/>
<circle clip-path="url(#clip982)" cx="1491.48" cy="1380.11" r="32" fill="#cccc00" fill-rule="evenodd" fill-opacity="1" stroke="#000000" stroke-opacity="1" stroke-width="3.2"/>
<circle clip-path="url(#clip982)" cx="1311.34" cy="1378.93" r="32" fill="#66cc00" fill-rule="evenodd" fill-opacity="1" stroke="#000000" stroke-opacity="1" stroke-width="3.2"/>
<circle clip-path="url(#clip982)" cx="1261.08" cy="1378.08" r="32" fill="#00cc00" fill-rule="evenodd" fill-opacity="1" stroke="#000000" stroke-opacity="1" stroke-width="3.2"/>
<circle clip-path="url(#clip982)" cx="1245.86" cy="1350.37" r="32" fill="#00cc66" fill-rule="evenodd" fill-opacity="1" stroke="#000000" stroke-opacity="1" stroke-width="3.2"/>
<circle clip-path="url(#clip982)" cx="1172.24" cy="1251.63" r="32" fill="#00cccc" fill-rule="evenodd" fill-opacity="1" stroke="#000000" stroke-opacity="1" stroke-width="3.2"/>
<circle clip-path="url(#clip982)" cx="898.682" cy="902.457" r="32" fill="#0066cc" fill-rule="evenodd" fill-opacity="1" stroke="#000000" stroke-opacity="1" stroke-width="3.2"/>
<circle clip-path="url(#clip982)" cx="258.84" cy="86.1857" r="32" fill="#0000cc" fill-rule="evenodd" fill-opacity="1" stroke="#000000" stroke-opacity="1" stroke-width="3.2"/>
<circle clip-path="url(#clip982)" cx="1098.93" cy="632.393" r="32" fill="#6600cc" fill-rule="evenodd" fill-opacity="1" stroke="#000000" stroke-opacity="1" stroke-width="3.2"/>
<circle clip-path="url(#clip982)" cx="1786.45" cy="1071.84" r="32" fill="#cc00cc" fill-rule="evenodd" fill-opacity="1" stroke="#000000" stroke-opacity="1" stroke-width="3.2"/>
<circle clip-path="url(#clip982)" cx="2157.71" cy="1305.31" r="32" fill="#cc0066" fill-rule="evenodd" fill-opacity="1" stroke="#000000" stroke-opacity="1" stroke-width="3.2"/>
<circle clip-path="url(#clip982)" cx="1461.72" cy="1294.41" r="32" fill="#808080" fill-rule="evenodd" fill-opacity="1" stroke="#000000" stroke-opacity="1" stroke-width="3.2"/>
<path clip-path="url(#clip980)" d="M 0 0 M2369.98 1347.62 Q2366.82 1347.62 2365.22 1350.74 Q2363.64 1353.84 2363.64 1360.08 Q2363.64 1366.29 2365.22 1369.41 Q2366.82 1372.51 2369.98 1372.51 Q2373.16 1372.51 2374.74 1369.41 Q2376.34 1366.29 2376.34 1360.08 Q2376.34 1353.84 2374.74 1350.74 Q2373.16 1347.62 2369.98 1347.62 M2369.98 1344.38 Q2375.07 1344.38 2377.74 1348.41 Q2380.44 1352.42 2380.44 1360.08 Q2380.44 1367.71 2377.74 1371.74 Q2375.07 1375.75 2369.98 1375.75 Q2364.9 1375.75 2362.21 1371.74 Q2359.53 1367.71 2359.53 1360.08 Q2359.53 1352.42 2362.21 1348.41 Q2364.9 1344.38 2369.98 1344.38 Z" fill="#0d0d0d" fill-rule="evenodd" fill-opacity="1" /><path clip-path="url(#clip980)" d="M 0 0 M1981.94 1353.17 Q1984.88 1353.8 1986.52 1355.78 Q1988.18 1357.77 1988.18 1360.68 Q1988.18 1365.16 1985.1 1367.61 Q1982.02 1370.06 1976.35 1370.06 Q1974.44 1370.06 1972.42 1369.68 Q1970.41 1369.31 1968.27 1368.56 L1968.27 1364.61 Q1969.97 1365.61 1971.99 1366.11 Q1974.02 1366.62 1976.23 1366.62 Q1980.07 1366.62 1982.08 1365.1 Q1984.11 1363.58 1984.11 1360.68 Q1984.11 1358.01 1982.22 1356.51 Q1980.36 1354.99 1977.02 1354.99 L1973.49 1354.99 L1973.49 1351.63 L1977.18 1351.63 Q1980.2 1351.63 1981.8 1350.44 Q1983.4 1349.22 1983.4 1346.95 Q1983.4 1344.62 1981.74 1343.39 Q1980.1 1342.13 1977.02 1342.13 Q1975.34 1342.13 1973.41 1342.5 Q1971.49 1342.86 1969.18 1343.63 L1969.18 1339.98 Q1971.51 1339.34 1973.53 1339.01 Q1975.58 1338.69 1977.38 1338.69 Q1982.04 1338.69 1984.75 1340.81 Q1987.47 1342.92 1987.47 1346.53 Q1987.47 1349.04 1986.03 1350.78 Q1984.59 1352.5 1981.94 1353.17 Z" fill="#0d0d0d" fill-rule="evenodd" fill-opacity="1" /><path clip-path="url(#clip980)" d="M 0 0 M2001.36 1341.93 Q1998.2 1341.93 1996.6 1345.05 Q1995.02 1348.15 1995.02 1354.39 Q1995.02 1360.6 1996.6 1363.72 Q1998.2 1366.82 2001.36 1366.82 Q2004.54 1366.82 2006.12 1363.72 Q2007.72 1360.6 2007.72 1354.39 Q2007.72 1348.15 2006.12 1345.05 Q2004.54 1341.93 2001.36 1341.93 M2001.36 1338.69 Q2006.45 1338.69 2009.12 1342.72 Q2011.81 1346.73 2011.81 1354.39 Q2011.81 1362.02 2009.12 1366.05 Q2006.45 1370.06 2001.36 1370.06 Q1996.28 1370.06 1993.58 1366.05 Q1990.91 1362.02 1990.91 1354.39 Q1990.91 1346.73 1993.58 1342.72 Q1996.28 1338.69 2001.36 1338.69 Z" fill="#0d0d0d" fill-rule="evenodd" fill-opacity="1" /><path clip-path="url(#clip980)" d="M 0 0 M1570.04 1354.28 Q1567.29 1354.28 1565.67 1356.17 Q1564.07 1358.05 1564.07 1361.33 Q1564.07 1364.59 1565.67 1366.5 Q1567.29 1368.38 1570.04 1368.38 Q1572.8 1368.38 1574.4 1366.5 Q1576.02 1364.59 1576.02 1361.33 Q1576.02 1358.05 1574.4 1356.17 Q1572.8 1354.28 1570.04 1354.28 M1578.17 1341.46 L1578.17 1345.19 Q1576.63 1344.46 1575.05 1344.08 Q1573.49 1343.69 1571.95 1343.69 Q1567.9 1343.69 1565.75 1346.43 Q1563.62 1349.16 1563.32 1354.69 Q1564.51 1352.93 1566.32 1351.99 Q1568.12 1351.04 1570.29 1351.04 Q1574.84 1351.04 1577.48 1353.82 Q1580.13 1356.57 1580.13 1361.33 Q1580.13 1365.99 1577.38 1368.81 Q1574.62 1371.62 1570.04 1371.62 Q1564.8 1371.62 1562.02 1367.61 Q1559.25 1363.58 1559.25 1355.94 Q1559.25 1348.77 1562.65 1344.52 Q1566.05 1340.25 1571.79 1340.25 Q1573.32 1340.25 1574.88 1340.55 Q1576.46 1340.86 1578.17 1341.46 Z" fill="#0d0d0d" fill-rule="evenodd" fill-opacity="1" /><path clip-path="url(#clip980)" d="M 0 0 M1593.32 1343.49 Q1590.16 1343.49 1588.56 1346.61 Q1586.98 1349.71 1586.98 1355.94 Q1586.98 1362.16 1588.56 1365.28 Q1590.16 1368.38 1593.32 1368.38 Q1596.5 1368.38 1598.08 1365.28 Q1599.68 1362.16 1599.68 1355.94 Q1599.68 1349.71 1598.08 1346.61 Q1596.5 1343.49 1593.32 1343.49 M1593.32 1340.25 Q1598.4 1340.25 1601.07 1344.28 Q1603.77 1348.29 1603.77 1355.94 Q1603.77 1363.58 1601.07 1367.61 Q1598.4 1371.62 1593.32 1371.62 Q1588.23 1371.62 1585.54 1367.61 Q1582.86 1363.58 1582.86 1355.94 Q1582.86 1348.29 1585.54 1344.28 Q1588.23 1340.25 1593.32 1340.25 Z" fill="#0d0d0d" fill-rule="evenodd" fill-opacity="1" /><path clip-path="url(#clip980)" d="M 0 0 M1381.05 1369.23 L1381.05 1365.5 Q1382.59 1366.23 1384.17 1366.62 Q1385.75 1367 1387.27 1367 Q1391.32 1367 1393.45 1364.29 Q1395.59 1361.55 1395.9 1356.01 Q1394.72 1357.75 1392.92 1358.68 Q1391.12 1359.61 1388.93 1359.61 Q1384.39 1359.61 1381.74 1356.88 Q1379.1 1354.12 1379.1 1349.36 Q1379.1 1344.7 1381.86 1341.89 Q1384.61 1339.07 1389.19 1339.07 Q1394.44 1339.07 1397.19 1343.1 Q1399.97 1347.11 1399.97 1354.77 Q1399.97 1361.92 1396.56 1366.19 Q1393.18 1370.45 1387.45 1370.45 Q1385.91 1370.45 1384.33 1370.14 Q1382.75 1369.84 1381.05 1369.23 M1389.19 1356.41 Q1391.95 1356.41 1393.55 1354.53 Q1395.17 1352.64 1395.17 1349.36 Q1395.17 1346.1 1393.55 1344.22 Q1391.95 1342.31 1389.19 1342.31 Q1386.44 1342.31 1384.82 1344.22 Q1383.22 1346.1 1383.22 1349.36 Q1383.22 1352.64 1384.82 1354.53 Q1386.44 1356.41 1389.19 1356.41 Z" fill="#0d0d0d" fill-rule="evenodd" fill-opacity="1" /><path clip-path="url(#clip980)" d="M 0 0 M1413.15 1342.31 Q1409.99 1342.31 1408.39 1345.43 Q1406.81 1348.53 1406.81 1354.77 Q1406.81 1360.99 1408.39 1364.11 Q1409.99 1367.21 1413.15 1367.21 Q1416.33 1367.21 1417.91 1364.11 Q1419.51 1360.99 1419.51 1354.77 Q1419.51 1348.53 1417.91 1345.43 Q1416.33 1342.31 1413.15 1342.31 M1413.15 1339.07 Q1418.24 1339.07 1420.91 1343.1 Q1423.6 1347.11 1423.6 1354.77 Q1423.6 1362.41 1420.91 1366.44 Q1418.24 1370.45 1413.15 1370.45 Q1408.07 1370.45 1405.38 1366.44 Q1402.7 1362.41 1402.7 1354.77 Q1402.7 1347.11 1405.38 1343.1 Q1408.07 1339.07 1413.15 1339.07 Z" fill="#0d0d0d" fill-rule="evenodd" fill-opacity="1" /><path clip-path="url(#clip980)" d="M 0 0 M1329.43 1365.57 L1336.12 1365.57 L1336.12 1342.5 L1328.85 1343.96 L1328.85 1340.23 L1336.08 1338.77 L1340.17 1338.77 L1340.17 1365.57 L1346.85 1365.57 L1346.85 1369.01 L1329.43 1369.01 L1329.43 1365.57 Z" fill="#0d0d0d" fill-rule="evenodd" fill-opacity="1" /><path clip-path="url(#clip980)" d="M 0 0 M1354.81 1365.57 L1369.09 1365.57 L1369.09 1369.01 L1349.89 1369.01 L1349.89 1365.57 Q1352.22 1363.16 1356.23 1359.11 Q1360.26 1355.04 1361.3 1353.86 Q1363.26 1351.65 1364.03 1350.13 Q1364.82 1348.6 1364.82 1347.12 Q1364.82 1344.71 1363.12 1343.19 Q1361.44 1341.67 1358.72 1341.67 Q1356.8 1341.67 1354.65 1342.34 Q1352.53 1343.01 1350.09 1344.36 L1350.09 1340.23 Q1352.57 1339.24 1354.71 1338.73 Q1356.86 1338.23 1358.64 1338.23 Q1363.34 1338.23 1366.14 1340.57 Q1368.93 1342.92 1368.93 1346.85 Q1368.93 1348.72 1368.22 1350.4 Q1367.53 1352.06 1365.69 1354.33 Q1365.18 1354.91 1362.47 1357.73 Q1359.76 1360.53 1354.81 1365.57 Z" fill="#0d0d0d" fill-rule="evenodd" fill-opacity="1" /><path clip-path="url(#clip980)" d="M 0 0 M1382.28 1341.47 Q1379.12 1341.47 1377.52 1344.58 Q1375.94 1347.68 1375.94 1353.92 Q1375.94 1360.14 1377.52 1363.26 Q1379.12 1366.36 1382.28 1366.36 Q1385.46 1366.36 1387.04 1363.26 Q1388.64 1360.14 1388.64 1353.92 Q1388.64 1347.68 1387.04 1344.58 Q1385.46 1341.47 1382.28 1341.47 M1382.28 1338.23 Q1387.36 1338.23 1390.04 1342.26 Q1392.73 1346.27 1392.73 1353.92 Q1392.73 1361.56 1390.04 1365.59 Q1387.36 1369.6 1382.28 1369.6 Q1377.2 1369.6 1374.5 1365.59 Q1371.83 1361.56 1371.83 1353.92 Q1371.83 1346.27 1374.5 1342.26 Q1377.2 1338.23 1382.28 1338.23 Z" fill="#0d0d0d" fill-rule="evenodd" fill-opacity="1" /><path clip-path="url(#clip980)" d="M 0 0 M1314.21 1337.85 L1320.9 1337.85 L1320.9 1314.78 L1313.62 1316.24 L1313.62 1312.51 L1320.86 1311.05 L1324.95 1311.05 L1324.95 1337.85 L1331.63 1337.85 L1331.63 1341.29 L1314.21 1341.29 L1314.21 1337.85 Z" fill="#0d0d0d" fill-rule="evenodd" fill-opacity="1" /><path clip-path="url(#clip980)" d="M 0 0 M1336.11 1311.05 L1352.17 1311.05 L1352.17 1314.5 L1339.85 1314.5 L1339.85 1321.91 Q1340.75 1321.61 1341.64 1321.47 Q1342.53 1321.3 1343.42 1321.3 Q1348.48 1321.3 1351.44 1324.08 Q1354.4 1326.85 1354.4 1331.59 Q1354.4 1336.47 1351.36 1339.19 Q1348.32 1341.88 1342.79 1341.88 Q1340.89 1341.88 1338.9 1341.56 Q1336.94 1341.23 1334.83 1340.59 L1334.83 1336.47 Q1336.65 1337.47 1338.6 1337.95 Q1340.54 1338.44 1342.71 1338.44 Q1346.21 1338.44 1348.26 1336.6 Q1350.31 1334.75 1350.31 1331.59 Q1350.31 1328.43 1348.26 1326.59 Q1346.21 1324.75 1342.71 1324.75 Q1341.07 1324.75 1339.43 1325.11 Q1337.81 1325.48 1336.11 1326.25 L1336.11 1311.05 Z" fill="#0d0d0d" fill-rule="evenodd" fill-opacity="1" /><path clip-path="url(#clip980)" d="M 0 0 M1367.58 1313.75 Q1364.42 1313.75 1362.82 1316.87 Q1361.24 1319.97 1361.24 1326.21 Q1361.24 1332.42 1362.82 1335.54 Q1364.42 1338.64 1367.58 1338.64 Q1370.76 1338.64 1372.34 1335.54 Q1373.94 1332.42 1373.94 1326.21 Q1373.94 1319.97 1372.34 1316.87 Q1370.76 1313.75 1367.58 1313.75 M1367.58 1310.51 Q1372.67 1310.51 1375.34 1314.54 Q1378.03 1318.55 1378.03 1326.21 Q1378.03 1333.84 1375.34 1337.87 Q1372.67 1341.88 1367.58 1341.88 Q1362.5 1341.88 1359.8 1337.87 Q1357.13 1333.84 1357.13 1326.21 Q1357.13 1318.55 1359.8 1314.54 Q1362.5 1310.51 1367.58 1310.51 Z" fill="#0d0d0d" fill-rule="evenodd" fill-opacity="1" /><path clip-path="url(#clip980)" d="M 0 0 M1240.59 1239.12 L1247.28 1239.12 L1247.28 1216.05 L1240.01 1217.51 L1240.01 1213.78 L1247.24 1212.32 L1251.33 1212.32 L1251.33 1239.12 L1258.01 1239.12 L1258.01 1242.56 L1240.59 1242.56 L1240.59 1239.12 Z" fill="#0d0d0d" fill-rule="evenodd" fill-opacity="1" /><path clip-path="url(#clip980)" d="M 0 0 M1271.2 1228.2 Q1268.28 1228.2 1266.6 1229.76 Q1264.94 1231.32 1264.94 1234.05 Q1264.94 1236.79 1266.6 1238.35 Q1268.28 1239.91 1271.2 1239.91 Q1274.12 1239.91 1275.8 1238.35 Q1277.48 1236.77 1277.48 1234.05 Q1277.48 1231.32 1275.8 1229.76 Q1274.14 1228.2 1271.2 1228.2 M1267.11 1226.46 Q1264.47 1225.81 1263 1224.01 Q1261.54 1222.21 1261.54 1219.61 Q1261.54 1215.99 1264.11 1213.88 Q1266.7 1211.77 1271.2 1211.77 Q1275.72 1211.77 1278.29 1213.88 Q1280.86 1215.99 1280.86 1219.61 Q1280.86 1222.21 1279.38 1224.01 Q1277.92 1225.81 1275.31 1226.46 Q1278.27 1227.15 1279.91 1229.15 Q1281.57 1231.16 1281.57 1234.05 Q1281.57 1238.45 1278.88 1240.8 Q1276.2 1243.15 1271.2 1243.15 Q1266.2 1243.15 1263.5 1240.8 Q1260.83 1238.45 1260.83 1234.05 Q1260.83 1231.16 1262.49 1229.15 Q1264.15 1227.15 1267.11 1226.46 M1265.61 1220 Q1265.61 1222.35 1267.07 1223.66 Q1268.55 1224.98 1271.2 1224.98 Q1273.83 1224.98 1275.31 1223.66 Q1276.81 1222.35 1276.81 1220 Q1276.81 1217.65 1275.31 1216.33 Q1273.83 1215.02 1271.2 1215.02 Q1268.55 1215.02 1267.07 1216.33 Q1265.61 1217.65 1265.61 1220 Z" fill="#0d0d0d" fill-rule="evenodd" fill-opacity="1" /><path clip-path="url(#clip980)" d="M 0 0 M1294.76 1215.02 Q1291.6 1215.02 1290 1218.13 Q1288.42 1221.23 1288.42 1227.47 Q1288.42 1233.69 1290 1236.81 Q1291.6 1239.91 1294.76 1239.91 Q1297.94 1239.91 1299.52 1236.81 Q1301.12 1233.69 1301.12 1227.47 Q1301.12 1221.23 1299.52 1218.13 Q1297.94 1215.02 1294.76 1215.02 M1294.76 1211.77 Q1299.84 1211.77 1302.51 1215.81 Q1305.21 1219.82 1305.21 1227.47 Q1305.21 1235.11 1302.51 1239.14 Q1299.84 1243.15 1294.76 1243.15 Q1289.67 1243.15 1286.98 1239.14 Q1284.3 1235.11 1284.3 1227.47 Q1284.3 1219.82 1286.98 1215.81 Q1289.67 1211.77 1294.76 1211.77 Z" fill="#0d0d0d" fill-rule="evenodd" fill-opacity="1" /><path clip-path="url(#clip980)" d="M 0 0 M971.368 889.942 L985.647 889.942 L985.647 893.385 L966.446 893.385 L966.446 889.942 Q968.775 887.532 972.786 883.481 Q976.816 879.41 977.849 878.235 Q979.814 876.027 980.584 874.508 Q981.374 872.969 981.374 871.49 Q981.374 869.08 979.672 867.561 Q977.991 866.042 975.277 866.042 Q973.353 866.042 971.206 866.71 Q969.079 867.378 966.648 868.736 L966.648 864.604 Q969.12 863.611 971.267 863.105 Q973.413 862.598 975.196 862.598 Q979.895 862.598 982.69 864.948 Q985.485 867.297 985.485 871.227 Q985.485 873.09 984.776 874.771 Q984.088 876.432 982.244 878.701 Q981.738 879.288 979.024 882.104 Q976.31 884.899 971.368 889.942 Z" fill="#0d0d0d" fill-rule="evenodd" fill-opacity="1" /><path clip-path="url(#clip980)" d="M 0 0 M990.792 889.942 L997.476 889.942 L997.476 866.872 L990.204 868.33 L990.204 864.604 L997.435 863.145 L1001.53 863.145 L1001.53 889.942 L1008.21 889.942 L1008.21 893.385 L990.792 893.385 L990.792 889.942 Z" fill="#0d0d0d" fill-rule="evenodd" fill-opacity="1" /><path clip-path="url(#clip980)" d="M 0 0 M1021.4 865.839 Q1018.24 865.839 1016.64 868.958 Q1015.06 872.057 1015.06 878.296 Q1015.06 884.514 1016.64 887.633 Q1018.24 890.732 1021.4 890.732 Q1024.58 890.732 1026.16 887.633 Q1027.76 884.514 1027.76 878.296 Q1027.76 872.057 1026.16 868.958 Q1024.58 865.839 1021.4 865.839 M1021.4 862.598 Q1026.48 862.598 1029.15 866.629 Q1031.85 870.639 1031.85 878.296 Q1031.85 885.932 1029.15 889.962 Q1026.48 893.973 1021.4 893.973 Q1016.31 893.973 1013.62 889.962 Q1010.95 885.932 1010.95 878.296 Q1010.95 870.639 1013.62 866.629 Q1016.31 862.598 1021.4 862.598 Z" fill="#0d0d0d" fill-rule="evenodd" fill-opacity="1" /><path clip-path="url(#clip980)" d="M 0 0 M331.527 73.6704 L345.806 73.6704 L345.806 77.1137 L326.605 77.1137 L326.605 73.6704 Q328.934 71.2601 332.944 67.2092 Q336.975 63.1381 338.008 61.9633 Q339.973 59.7555 340.742 58.2365 Q341.532 56.6971 341.532 55.2185 Q341.532 52.8082 339.831 51.2892 Q338.15 49.7701 335.436 49.7701 Q333.511 49.7701 331.365 50.4385 Q329.238 51.1069 326.807 52.4639 L326.807 48.332 Q329.278 47.3395 331.425 46.8332 Q333.572 46.3268 335.355 46.3268 Q340.054 46.3268 342.849 48.6763 Q345.644 51.0258 345.644 54.9552 Q345.644 56.8186 344.935 58.4998 Q344.246 60.1606 342.403 62.4291 Q341.897 63.0165 339.183 65.8319 Q336.469 68.627 331.527 73.6704 Z" fill="#0d0d0d" fill-rule="evenodd" fill-opacity="1" /><path clip-path="url(#clip980)" d="M 0 0 M361.483 50.4385 L351.153 66.5813 L361.483 66.5813 L361.483 50.4385 M360.409 46.8737 L365.554 46.8737 L365.554 66.5813 L369.868 66.5813 L369.868 69.9841 L365.554 69.9841 L365.554 77.1137 L361.483 77.1137 L361.483 69.9841 L347.831 69.9841 L347.831 66.0344 L360.409 46.8737 Z" fill="#0d0d0d" fill-rule="evenodd" fill-opacity="1" /><path clip-path="url(#clip980)" d="M 0 0 M383.054 49.5675 Q379.894 49.5675 378.294 52.6867 Q376.714 55.7857 376.714 62.0241 Q376.714 68.2422 378.294 71.3614 Q379.894 74.4603 383.054 74.4603 Q386.234 74.4603 387.814 71.3614 Q389.414 68.2422 389.414 62.0241 Q389.414 55.7857 387.814 52.6867 Q386.234 49.5675 383.054 49.5675 M383.054 46.3268 Q388.138 46.3268 390.812 50.3574 Q393.505 54.3678 393.505 62.0241 Q393.505 69.66 390.812 73.6907 Q388.138 77.7011 383.054 77.7011 Q377.97 77.7011 375.276 73.6907 Q372.603 69.66 372.603 62.0241 Q372.603 54.3678 375.276 50.3574 Q377.97 46.3268 383.054 46.3268 Z" fill="#0d0d0d" fill-rule="evenodd" fill-opacity="1" /><path clip-path="url(#clip980)" d="M 0 0 M1171.61 619.877 L1185.89 619.877 L1185.89 623.321 L1166.69 623.321 L1166.69 619.877 Q1169.02 617.467 1173.03 613.416 Q1177.06 609.345 1178.09 608.17 Q1180.06 605.963 1180.83 604.444 Q1181.62 602.904 1181.62 601.426 Q1181.62 599.015 1179.92 597.496 Q1178.23 595.977 1175.52 595.977 Q1173.6 595.977 1171.45 596.646 Q1169.32 597.314 1166.89 598.671 L1166.89 594.539 Q1169.36 593.547 1171.51 593.04 Q1173.66 592.534 1175.44 592.534 Q1180.14 592.534 1182.93 594.883 Q1185.73 597.233 1185.73 601.162 Q1185.73 603.026 1185.02 604.707 Q1184.33 606.368 1182.49 608.636 Q1181.98 609.224 1179.27 612.039 Q1176.55 614.834 1171.61 619.877 Z" fill="#0d0d0d" fill-rule="evenodd" fill-opacity="1" /><path clip-path="url(#clip980)" d="M 0 0 M1189.29 593.081 L1208.74 593.081 L1208.74 594.823 L1197.76 623.321 L1193.49 623.321 L1203.82 596.524 L1189.29 596.524 L1189.29 593.081 Z" fill="#0d0d0d" fill-rule="evenodd" fill-opacity="1" /><path clip-path="url(#clip980)" d="M 0 0 M1221.92 595.775 Q1218.76 595.775 1217.16 598.894 Q1215.58 601.993 1215.58 608.231 Q1215.58 614.449 1217.16 617.568 Q1218.76 620.667 1221.92 620.667 Q1225.1 620.667 1226.68 617.568 Q1228.28 614.449 1228.28 608.231 Q1228.28 601.993 1226.68 598.894 Q1225.1 595.775 1221.92 595.775 M1221.92 592.534 Q1227.01 592.534 1229.68 596.565 Q1232.38 600.575 1232.38 608.231 Q1232.38 615.867 1229.68 619.898 Q1227.01 623.908 1221.92 623.908 Q1216.84 623.908 1214.15 619.898 Q1211.47 615.867 1211.47 608.231 Q1211.47 600.575 1214.15 596.565 Q1216.84 592.534 1221.92 592.534 Z" fill="#0d0d0d" fill-rule="evenodd" fill-opacity="1" /><path clip-path="url(#clip980)" d="M 0 0 M1867.89 1046.46 Q1870.82 1047.09 1872.46 1049.08 Q1874.13 1051.06 1874.13 1053.98 Q1874.13 1058.46 1871.05 1060.91 Q1867.97 1063.36 1862.3 1063.36 Q1860.39 1063.36 1858.37 1062.97 Q1856.36 1062.61 1854.22 1061.86 L1854.22 1057.91 Q1855.92 1058.9 1857.94 1059.41 Q1859.97 1059.91 1862.18 1059.91 Q1866.02 1059.91 1868.03 1058.39 Q1870.05 1056.88 1870.05 1053.98 Q1870.05 1051.31 1868.17 1049.81 Q1866.31 1048.29 1862.97 1048.29 L1859.44 1048.29 L1859.44 1044.93 L1863.13 1044.93 Q1866.15 1044.93 1867.75 1043.73 Q1869.35 1042.52 1869.35 1040.25 Q1869.35 1037.92 1867.68 1036.68 Q1866.04 1035.43 1862.97 1035.43 Q1861.28 1035.43 1859.36 1035.79 Q1857.44 1036.16 1855.13 1036.92 L1855.13 1033.28 Q1857.46 1032.63 1859.48 1032.31 Q1861.53 1031.98 1863.33 1031.98 Q1867.99 1031.98 1870.7 1034.11 Q1873.42 1036.22 1873.42 1039.82 Q1873.42 1042.33 1871.98 1044.07 Q1870.54 1045.8 1867.89 1046.46 Z" fill="#0d0d0d" fill-rule="evenodd" fill-opacity="1" /><path clip-path="url(#clip980)" d="M 0 0 M1887.31 1035.22 Q1884.15 1035.22 1882.55 1038.34 Q1880.97 1041.44 1880.97 1047.68 Q1880.97 1053.9 1882.55 1057.02 Q1884.15 1060.12 1887.31 1060.12 Q1890.49 1060.12 1892.07 1057.02 Q1893.67 1053.9 1893.67 1047.68 Q1893.67 1041.44 1892.07 1038.34 Q1890.49 1035.22 1887.31 1035.22 M1887.31 1031.98 Q1892.39 1031.98 1895.07 1036.01 Q1897.76 1040.02 1897.76 1047.68 Q1897.76 1055.32 1895.07 1059.35 Q1892.39 1063.36 1887.31 1063.36 Q1882.23 1063.36 1879.53 1059.35 Q1876.86 1055.32 1876.86 1047.68 Q1876.86 1040.02 1879.53 1036.01 Q1882.23 1031.98 1887.31 1031.98 Z" fill="#0d0d0d" fill-rule="evenodd" fill-opacity="1" /><path clip-path="url(#clip980)" d="M 0 0 M1910.95 1035.22 Q1907.79 1035.22 1906.19 1038.34 Q1904.61 1041.44 1904.61 1047.68 Q1904.61 1053.9 1906.19 1057.02 Q1907.79 1060.12 1910.95 1060.12 Q1914.13 1060.12 1915.71 1057.02 Q1917.31 1053.9 1917.31 1047.68 Q1917.31 1041.44 1915.71 1038.34 Q1914.13 1035.22 1910.95 1035.22 M1910.95 1031.98 Q1916.03 1031.98 1918.71 1036.01 Q1921.4 1040.02 1921.4 1047.68 Q1921.4 1055.32 1918.71 1059.35 Q1916.03 1063.36 1910.95 1063.36 Q1905.86 1063.36 1903.17 1059.35 Q1900.5 1055.32 1900.5 1047.68 Q1900.5 1040.02 1903.17 1036.01 Q1905.86 1031.98 1910.95 1031.98 Z" fill="#0d0d0d" fill-rule="evenodd" fill-opacity="1" /><path clip-path="url(#clip980)" d="M 0 0 M2239.14 1279.93 Q2242.08 1280.56 2243.72 1282.54 Q2245.38 1284.53 2245.38 1287.45 Q2245.38 1291.92 2242.3 1294.37 Q2239.22 1296.82 2233.55 1296.82 Q2231.65 1296.82 2229.62 1296.44 Q2227.62 1296.07 2225.47 1295.32 L2225.47 1291.37 Q2227.17 1292.37 2229.2 1292.87 Q2231.22 1293.38 2233.43 1293.38 Q2237.28 1293.38 2239.28 1291.86 Q2241.31 1290.34 2241.31 1287.45 Q2241.31 1284.77 2239.43 1283.27 Q2237.56 1281.75 2234.22 1281.75 L2230.7 1281.75 L2230.7 1278.39 L2234.38 1278.39 Q2237.4 1278.39 2239 1277.2 Q2240.6 1275.98 2240.6 1273.71 Q2240.6 1271.38 2238.94 1270.15 Q2237.3 1268.89 2234.22 1268.89 Q2232.54 1268.89 2230.61 1269.26 Q2228.69 1269.62 2226.38 1270.39 L2226.38 1266.75 Q2228.71 1266.1 2230.74 1265.77 Q2232.78 1265.45 2234.58 1265.45 Q2239.24 1265.45 2241.96 1267.58 Q2244.67 1269.68 2244.67 1273.29 Q2244.67 1275.8 2243.23 1277.54 Q2241.79 1279.26 2239.14 1279.93 Z" fill="#0d0d0d" fill-rule="evenodd" fill-opacity="1" /><path clip-path="url(#clip980)" d="M 0 0 M2262.21 1279.93 Q2265.15 1280.56 2266.79 1282.54 Q2268.45 1284.53 2268.45 1287.45 Q2268.45 1291.92 2265.37 1294.37 Q2262.29 1296.82 2256.62 1296.82 Q2254.72 1296.82 2252.69 1296.44 Q2250.69 1296.07 2248.54 1295.32 L2248.54 1291.37 Q2250.24 1292.37 2252.27 1292.87 Q2254.29 1293.38 2256.5 1293.38 Q2260.35 1293.38 2262.35 1291.86 Q2264.38 1290.34 2264.38 1287.45 Q2264.38 1284.77 2262.49 1283.27 Q2260.63 1281.75 2257.29 1281.75 L2253.77 1281.75 L2253.77 1278.39 L2257.45 1278.39 Q2260.47 1278.39 2262.07 1277.2 Q2263.67 1275.98 2263.67 1273.71 Q2263.67 1271.38 2262.01 1270.15 Q2260.37 1268.89 2257.29 1268.89 Q2255.61 1268.89 2253.68 1269.26 Q2251.76 1269.62 2249.45 1270.39 L2249.45 1266.75 Q2251.78 1266.1 2253.81 1265.77 Q2255.85 1265.45 2257.65 1265.45 Q2262.31 1265.45 2265.03 1267.58 Q2267.74 1269.68 2267.74 1273.29 Q2267.74 1275.8 2266.3 1277.54 Q2264.86 1279.26 2262.21 1279.93 Z" fill="#0d0d0d" fill-rule="evenodd" fill-opacity="1" /><path clip-path="url(#clip980)" d="M 0 0 M2281.64 1268.69 Q2278.48 1268.69 2276.88 1271.81 Q2275.3 1274.91 2275.3 1281.15 Q2275.3 1287.36 2276.88 1290.48 Q2278.48 1293.58 2281.64 1293.58 Q2284.82 1293.58 2286.4 1290.48 Q2288 1287.36 2288 1281.15 Q2288 1274.91 2286.4 1271.81 Q2284.82 1268.69 2281.64 1268.69 M2281.64 1265.45 Q2286.72 1265.45 2289.39 1269.48 Q2292.09 1273.49 2292.09 1281.15 Q2292.09 1288.78 2289.39 1292.81 Q2286.72 1296.82 2281.64 1296.82 Q2276.55 1296.82 2273.86 1292.81 Q2271.18 1288.78 2271.18 1281.15 Q2271.18 1273.49 2273.86 1269.48 Q2276.55 1265.45 2281.64 1265.45 Z" fill="#0d0d0d" fill-rule="evenodd" fill-opacity="1" /></svg>
