<?xml version="1.0" encoding="utf-8"?>
<svg xmlns="http://www.w3.org/2000/svg" xmlns:xlink="http://www.w3.org/1999/xlink" width="600" height="400" viewBox="0 0 2400 1600">
<defs>
  <clipPath id="clip600">
    <rect x="0" y="0" width="2400" height="1600"/>
  </clipPath>
</defs>
<path clip-path="url(#clip600)" d="
M0 1600 L2400 1600 L2400 0 L0 0  Z
  " fill="#ffffff" fill-rule="evenodd" fill-opacity="1"/>
<defs>
  <clipPath id="clip601">
    <rect x="480" y="0" width="1681" height="1600"/>
  </clipPath>
</defs>
<path clip-path="url(#clip600)" d="
M287.366 1423.18 L2352.76 1423.18 L2352.76 123.472 L287.366 123.472  Z
  " fill="#ffffff" fill-rule="evenodd" fill-opacity="1"/>
<defs>
  <clipPath id="clip602">
    <rect x="287" y="123" width="2066" height="1301"/>
  </clipPath>
</defs>
<polyline clip-path="url(#clip602)" style="stroke:#000000; stroke-width:2; stroke-opacity:0.1; fill:none" points="
  621.485,1423.18 621.485,123.472 
  "/>
<polyline clip-path="url(#clip602)" style="stroke:#000000; stroke-width:2; stroke-opacity:0.1; fill:none" points="
  970.773,1423.18 970.773,123.472 
  "/>
<polyline clip-path="url(#clip602)" style="stroke:#000000; stroke-width:2; stroke-opacity:0.1; fill:none" points="
  1320.06,1423.18 1320.06,123.472 
  "/>
<polyline clip-path="url(#clip602)" style="stroke:#000000; stroke-width:2; stroke-opacity:0.1; fill:none" points="
  1669.35,1423.18 1669.35,123.472 
  "/>
<polyline clip-path="url(#clip602)" style="stroke:#000000; stroke-width:2; stroke-opacity:0.1; fill:none" points="
  2018.64,1423.18 2018.64,123.472 
  "/>
<polyline clip-path="url(#clip600)" style="stroke:#000000; stroke-width:4; stroke-opacity:1; fill:none" points="
  287.366,1423.18 2352.76,1423.18 
  "/>
<polyline clip-path="url(#clip600)" style="stroke:#000000; stroke-width:4; stroke-opacity:1; fill:none" points="
  621.485,1423.18 621.485,1407.58 
  "/>
<polyline clip-path="url(#clip600)" style="stroke:#000000; stroke-width:4; stroke-opacity:1; fill:none" points="
  970.773,1423.18 970.773,1407.58 
  "/>
<polyline clip-path="url(#clip600)" style="stroke:#000000; stroke-width:4; stroke-opacity:1; fill:none" points="
  1320.06,1423.18 1320.06,1407.58 
  "/>
<polyline clip-path="url(#clip600)" style="stroke:#000000; stroke-width:4; stroke-opacity:1; fill:none" points="
  1669.35,1423.18 1669.35,1407.58 
  "/>
<polyline clip-path="url(#clip600)" style="stroke:#000000; stroke-width:4; stroke-opacity:1; fill:none" points="
  2018.64,1423.18 2018.64,1407.58 
  "/>
<path clip-path="url(#clip600)" d="M 0 0 M568.013 1467.02 L597.689 1467.02 L597.689 1470.96 L568.013 1470.96 L568.013 1467.02 Z" fill="#000000" fill-rule="evenodd" fill-opacity="1" /><path clip-path="url(#clip600)" d="M 0 0 M608.592 1479.92 L616.23 1479.92 L616.23 1453.55 L607.92 1455.22 L607.92 1450.96 L616.184 1449.29 L620.86 1449.29 L620.86 1479.92 L628.499 1479.92 L628.499 1483.85 L608.592 1483.85 L608.592 1479.92 Z" fill="#000000" fill-rule="evenodd" fill-opacity="1" /><path clip-path="url(#clip600)" d="M 0 0 M637.943 1477.97 L642.828 1477.97 L642.828 1483.85 L637.943 1483.85 L637.943 1477.97 Z" fill="#000000" fill-rule="evenodd" fill-opacity="1" /><path clip-path="url(#clip600)" d="M 0 0 M663.013 1452.37 Q659.402 1452.37 657.573 1455.94 Q655.767 1459.48 655.767 1466.61 Q655.767 1473.71 657.573 1477.28 Q659.402 1480.82 663.013 1480.82 Q666.647 1480.82 668.452 1477.28 Q670.281 1473.71 670.281 1466.61 Q670.281 1459.48 668.452 1455.94 Q666.647 1452.37 663.013 1452.37 M663.013 1448.67 Q668.823 1448.67 671.878 1453.27 Q674.957 1457.86 674.957 1466.61 Q674.957 1475.33 671.878 1479.94 Q668.823 1484.52 663.013 1484.52 Q657.202 1484.52 654.124 1479.94 Q651.068 1475.33 651.068 1466.61 Q651.068 1457.86 654.124 1453.27 Q657.202 1448.67 663.013 1448.67 Z" fill="#000000" fill-rule="evenodd" fill-opacity="1" /><path clip-path="url(#clip600)" d="M 0 0 M917.799 1467.02 L947.475 1467.02 L947.475 1470.96 L917.799 1470.96 L917.799 1467.02 Z" fill="#000000" fill-rule="evenodd" fill-opacity="1" /><path clip-path="url(#clip600)" d="M 0 0 M967.567 1452.37 Q963.956 1452.37 962.127 1455.94 Q960.322 1459.48 960.322 1466.61 Q960.322 1473.71 962.127 1477.28 Q963.956 1480.82 967.567 1480.82 Q971.201 1480.82 973.007 1477.28 Q974.835 1473.71 974.835 1466.61 Q974.835 1459.48 973.007 1455.94 Q971.201 1452.37 967.567 1452.37 M967.567 1448.67 Q973.377 1448.67 976.433 1453.27 Q979.511 1457.86 979.511 1466.61 Q979.511 1475.33 976.433 1479.94 Q973.377 1484.52 967.567 1484.52 Q961.757 1484.52 958.678 1479.94 Q955.623 1475.33 955.623 1466.61 Q955.623 1457.86 958.678 1453.27 Q961.757 1448.67 967.567 1448.67 Z" fill="#000000" fill-rule="evenodd" fill-opacity="1" /><path clip-path="url(#clip600)" d="M 0 0 M987.729 1477.97 L992.613 1477.97 L992.613 1483.85 L987.729 1483.85 L987.729 1477.97 Z" fill="#000000" fill-rule="evenodd" fill-opacity="1" /><path clip-path="url(#clip600)" d="M 0 0 M1002.84 1449.29 L1021.2 1449.29 L1021.2 1453.23 L1007.13 1453.23 L1007.13 1461.7 Q1008.15 1461.35 1009.16 1461.19 Q1010.18 1461 1011.2 1461 Q1016.99 1461 1020.37 1464.18 Q1023.75 1467.35 1023.75 1472.76 Q1023.75 1478.34 1020.28 1481.44 Q1016.8 1484.52 1010.48 1484.52 Q1008.31 1484.52 1006.04 1484.15 Q1003.79 1483.78 1001.39 1483.04 L1001.39 1478.34 Q1003.47 1479.48 1005.69 1480.03 Q1007.91 1480.59 1010.39 1480.59 Q1014.4 1480.59 1016.73 1478.48 Q1019.07 1476.38 1019.07 1472.76 Q1019.07 1469.15 1016.73 1467.05 Q1014.4 1464.94 1010.39 1464.94 Q1008.52 1464.94 1006.64 1465.36 Q1004.79 1465.77 1002.84 1466.65 L1002.84 1449.29 Z" fill="#000000" fill-rule="evenodd" fill-opacity="1" /><path clip-path="url(#clip600)" d="M 0 0 M1297.45 1452.37 Q1293.83 1452.37 1292.01 1455.94 Q1290.2 1459.48 1290.2 1466.61 Q1290.2 1473.71 1292.01 1477.28 Q1293.83 1480.82 1297.45 1480.82 Q1301.08 1480.82 1302.89 1477.28 Q1304.71 1473.71 1304.71 1466.61 Q1304.71 1459.48 1302.89 1455.94 Q1301.08 1452.37 1297.45 1452.37 M1297.45 1448.67 Q1303.26 1448.67 1306.31 1453.27 Q1309.39 1457.86 1309.39 1466.61 Q1309.39 1475.33 1306.31 1479.94 Q1303.26 1484.52 1297.45 1484.52 Q1291.64 1484.52 1288.56 1479.94 Q1285.5 1475.33 1285.5 1466.61 Q1285.5 1457.86 1288.56 1453.27 Q1291.64 1448.67 1297.45 1448.67 Z" fill="#000000" fill-rule="evenodd" fill-opacity="1" /><path clip-path="url(#clip600)" d="M 0 0 M1317.61 1477.97 L1322.49 1477.97 L1322.49 1483.85 L1317.61 1483.85 L1317.61 1477.97 Z" fill="#000000" fill-rule="evenodd" fill-opacity="1" /><path clip-path="url(#clip600)" d="M 0 0 M1342.68 1452.37 Q1339.07 1452.37 1337.24 1455.94 Q1335.43 1459.48 1335.43 1466.61 Q1335.43 1473.71 1337.24 1477.28 Q1339.07 1480.82 1342.68 1480.82 Q1346.31 1480.82 1348.12 1477.28 Q1349.95 1473.71 1349.95 1466.61 Q1349.95 1459.48 1348.12 1455.94 Q1346.31 1452.37 1342.68 1452.37 M1342.68 1448.67 Q1348.49 1448.67 1351.54 1453.27 Q1354.62 1457.86 1354.62 1466.61 Q1354.62 1475.33 1351.54 1479.94 Q1348.49 1484.52 1342.68 1484.52 Q1336.87 1484.52 1333.79 1479.94 Q1330.73 1475.33 1330.73 1466.61 Q1330.73 1457.86 1333.79 1453.27 Q1336.87 1448.67 1342.68 1448.67 Z" fill="#000000" fill-rule="evenodd" fill-opacity="1" /><path clip-path="url(#clip600)" d="M 0 0 M1647.23 1452.37 Q1643.62 1452.37 1641.79 1455.94 Q1639.99 1459.48 1639.99 1466.61 Q1639.99 1473.71 1641.79 1477.28 Q1643.62 1480.82 1647.23 1480.82 Q1650.87 1480.82 1652.67 1477.28 Q1654.5 1473.71 1654.5 1466.61 Q1654.5 1459.48 1652.67 1455.94 Q1650.87 1452.37 1647.23 1452.37 M1647.23 1448.67 Q1653.04 1448.67 1656.1 1453.27 Q1659.18 1457.86 1659.18 1466.61 Q1659.18 1475.33 1656.1 1479.94 Q1653.04 1484.52 1647.23 1484.52 Q1641.42 1484.52 1638.34 1479.94 Q1635.29 1475.33 1635.29 1466.61 Q1635.29 1457.86 1638.34 1453.27 Q1641.42 1448.67 1647.23 1448.67 Z" fill="#000000" fill-rule="evenodd" fill-opacity="1" /><path clip-path="url(#clip600)" d="M 0 0 M1667.39 1477.97 L1672.28 1477.97 L1672.28 1483.85 L1667.39 1483.85 L1667.39 1477.97 Z" fill="#000000" fill-rule="evenodd" fill-opacity="1" /><path clip-path="url(#clip600)" d="M 0 0 M1682.51 1449.29 L1700.86 1449.29 L1700.86 1453.23 L1686.79 1453.23 L1686.79 1461.7 Q1687.81 1461.35 1688.83 1461.19 Q1689.85 1461 1690.86 1461 Q1696.65 1461 1700.03 1464.18 Q1703.41 1467.35 1703.41 1472.76 Q1703.41 1478.34 1699.94 1481.44 Q1696.47 1484.52 1690.15 1484.52 Q1687.97 1484.52 1685.7 1484.15 Q1683.46 1483.78 1681.05 1483.04 L1681.05 1478.34 Q1683.13 1479.48 1685.36 1480.03 Q1687.58 1480.59 1690.05 1480.59 Q1694.06 1480.59 1696.4 1478.48 Q1698.74 1476.38 1698.74 1472.76 Q1698.74 1469.15 1696.4 1467.05 Q1694.06 1464.94 1690.05 1464.94 Q1688.18 1464.94 1686.3 1465.36 Q1684.45 1465.77 1682.51 1466.65 L1682.51 1449.29 Z" fill="#000000" fill-rule="evenodd" fill-opacity="1" /><path clip-path="url(#clip600)" d="M 0 0 M1985.79 1479.92 L1993.43 1479.92 L1993.43 1453.55 L1985.12 1455.22 L1985.12 1450.96 L1993.38 1449.29 L1998.06 1449.29 L1998.06 1479.92 L2005.7 1479.92 L2005.7 1483.85 L1985.79 1483.85 L1985.79 1479.92 Z" fill="#000000" fill-rule="evenodd" fill-opacity="1" /><path clip-path="url(#clip600)" d="M 0 0 M2015.14 1477.97 L2020.03 1477.97 L2020.03 1483.85 L2015.14 1483.85 L2015.14 1477.97 Z" fill="#000000" fill-rule="evenodd" fill-opacity="1" /><path clip-path="url(#clip600)" d="M 0 0 M2040.21 1452.37 Q2036.6 1452.37 2034.77 1455.94 Q2032.97 1459.48 2032.97 1466.61 Q2032.97 1473.71 2034.77 1477.28 Q2036.6 1480.82 2040.21 1480.82 Q2043.84 1480.82 2045.65 1477.28 Q2047.48 1473.71 2047.48 1466.61 Q2047.48 1459.48 2045.65 1455.94 Q2043.84 1452.37 2040.21 1452.37 M2040.21 1448.67 Q2046.02 1448.67 2049.08 1453.27 Q2052.16 1457.86 2052.16 1466.61 Q2052.16 1475.33 2049.08 1479.94 Q2046.02 1484.52 2040.21 1484.52 Q2034.4 1484.52 2031.32 1479.94 Q2028.27 1475.33 2028.27 1466.61 Q2028.27 1457.86 2031.32 1453.27 Q2034.4 1448.67 2040.21 1448.67 Z" fill="#000000" fill-rule="evenodd" fill-opacity="1" /><path clip-path="url(#clip600)" d="M 0 0 M1268.98 1520.52 L1275.41 1520.52 L1275.41 1562.63 L1298.54 1562.63 L1298.54 1568.04 L1268.98 1568.04 L1268.98 1520.52 Z" fill="#000000" fill-rule="evenodd" fill-opacity="1" /><path clip-path="url(#clip600)" d="M 0 0 M1300.93 1547.58 L1318.09 1547.58 L1318.09 1552.8 L1300.93 1552.8 L1300.93 1547.58 Z" fill="#000000" fill-rule="evenodd" fill-opacity="1" /><path clip-path="url(#clip600)" d="M 0 0 M1327.67 1520.52 L1337.25 1520.52 L1349.37 1552.86 L1361.57 1520.52 L1371.15 1520.52 L1371.15 1568.04 L1364.88 1568.04 L1364.88 1526.32 L1352.62 1558.91 L1346.16 1558.91 L1333.91 1526.32 L1333.91 1568.04 L1327.67 1568.04 L1327.67 1520.52 Z" fill="#000000" fill-rule="evenodd" fill-opacity="1" /><polyline clip-path="url(#clip602)" style="stroke:#000000; stroke-width:2; stroke-opacity:0.1; fill:none" points="
  287.366,1297.26 2352.76,1297.26 
  "/>
<polyline clip-path="url(#clip602)" style="stroke:#000000; stroke-width:2; stroke-opacity:0.1; fill:none" points="
  287.366,1122.61 2352.76,1122.61 
  "/>
<polyline clip-path="url(#clip602)" style="stroke:#000000; stroke-width:2; stroke-opacity:0.1; fill:none" points="
  287.366,947.97 2352.76,947.97 
  "/>
<polyline clip-path="url(#clip602)" style="stroke:#000000; stroke-width:2; stroke-opacity:0.1; fill:none" points="
  287.366,773.326 2352.76,773.326 
  "/>
<polyline clip-path="url(#clip602)" style="stroke:#000000; stroke-width:2; stroke-opacity:0.1; fill:none" points="
  287.366,598.682 2352.76,598.682 
  "/>
<polyline clip-path="url(#clip602)" style="stroke:#000000; stroke-width:2; stroke-opacity:0.1; fill:none" points="
  287.366,424.038 2352.76,424.038 
  "/>
<polyline clip-path="url(#clip602)" style="stroke:#000000; stroke-width:2; stroke-opacity:0.1; fill:none" points="
  287.366,249.394 2352.76,249.394 
  "/>
<polyline clip-path="url(#clip600)" style="stroke:#000000; stroke-width:4; stroke-opacity:1; fill:none" points="
  287.366,1423.18 287.366,123.472 
  "/>
<polyline clip-path="url(#clip600)" style="stroke:#000000; stroke-width:4; stroke-opacity:1; fill:none" points="
  287.366,1297.26 312.151,1297.26 
  "/>
<polyline clip-path="url(#clip600)" style="stroke:#000000; stroke-width:4; stroke-opacity:1; fill:none" points="
  287.366,1122.61 312.151,1122.61 
  "/>
<polyline clip-path="url(#clip600)" style="stroke:#000000; stroke-width:4; stroke-opacity:1; fill:none" points="
  287.366,947.97 312.151,947.97 
  "/>
<polyline clip-path="url(#clip600)" style="stroke:#000000; stroke-width:4; stroke-opacity:1; fill:none" points="
  287.366,773.326 312.151,773.326 
  "/>
<polyline clip-path="url(#clip600)" style="stroke:#000000; stroke-width:4; stroke-opacity:1; fill:none" points="
  287.366,598.682 312.151,598.682 
  "/>
<polyline clip-path="url(#clip600)" style="stroke:#000000; stroke-width:4; stroke-opacity:1; fill:none" points="
  287.366,424.038 312.151,424.038 
  "/>
<polyline clip-path="url(#clip600)" style="stroke:#000000; stroke-width:4; stroke-opacity:1; fill:none" points="
  287.366,249.394 312.151,249.394 
  "/>
<path clip-path="url(#clip600)" d="M 0 0 M115.256 1297.71 L144.931 1297.71 L144.931 1301.64 L115.256 1301.64 L115.256 1297.71 Z" fill="#000000" fill-rule="evenodd" fill-opacity="1" /><path clip-path="url(#clip600)" d="M 0 0 M165.024 1283.06 Q161.413 1283.06 159.584 1286.62 Q157.778 1290.16 157.778 1297.29 Q157.778 1304.4 159.584 1307.96 Q161.413 1311.51 165.024 1311.51 Q168.658 1311.51 170.464 1307.96 Q172.292 1304.4 172.292 1297.29 Q172.292 1290.16 170.464 1286.62 Q168.658 1283.06 165.024 1283.06 M165.024 1279.35 Q170.834 1279.35 173.889 1283.96 Q176.968 1288.54 176.968 1297.29 Q176.968 1306.02 173.889 1310.63 Q170.834 1315.21 165.024 1315.21 Q159.214 1315.21 156.135 1310.63 Q153.079 1306.02 153.079 1297.29 Q153.079 1288.54 156.135 1283.96 Q159.214 1279.35 165.024 1279.35 Z" fill="#000000" fill-rule="evenodd" fill-opacity="1" /><path clip-path="url(#clip600)" d="M 0 0 M185.186 1308.66 L190.07 1308.66 L190.07 1314.54 L185.186 1314.54 L185.186 1308.66 Z" fill="#000000" fill-rule="evenodd" fill-opacity="1" /><path clip-path="url(#clip600)" d="M 0 0 M199.075 1279.98 L221.297 1279.98 L221.297 1281.97 L208.75 1314.54 L203.866 1314.54 L215.672 1283.91 L199.075 1283.91 L199.075 1279.98 Z" fill="#000000" fill-rule="evenodd" fill-opacity="1" /><path clip-path="url(#clip600)" d="M 0 0 M230.463 1279.98 L248.82 1279.98 L248.82 1283.91 L234.746 1283.91 L234.746 1292.39 Q235.764 1292.04 236.783 1291.88 Q237.801 1291.69 238.82 1291.69 Q244.607 1291.69 247.986 1294.86 Q251.366 1298.03 251.366 1303.45 Q251.366 1309.03 247.894 1312.13 Q244.421 1315.21 238.102 1315.21 Q235.926 1315.21 233.658 1314.84 Q231.412 1314.47 229.005 1313.73 L229.005 1309.03 Q231.088 1310.16 233.31 1310.72 Q235.533 1311.27 238.009 1311.27 Q242.014 1311.27 244.352 1309.17 Q246.69 1307.06 246.69 1303.45 Q246.69 1299.84 244.352 1297.73 Q242.014 1295.63 238.009 1295.63 Q236.135 1295.63 234.26 1296.04 Q232.408 1296.46 230.463 1297.34 L230.463 1279.98 Z" fill="#000000" fill-rule="evenodd" fill-opacity="1" /><path clip-path="url(#clip600)" d="M 0 0 M114.26 1123.07 L143.936 1123.07 L143.936 1127 L114.26 1127 L114.26 1123.07 Z" fill="#000000" fill-rule="evenodd" fill-opacity="1" /><path clip-path="url(#clip600)" d="M 0 0 M164.028 1108.41 Q160.417 1108.41 158.589 1111.98 Q156.783 1115.52 156.783 1122.65 Q156.783 1129.76 158.589 1133.32 Q160.417 1136.86 164.028 1136.86 Q167.663 1136.86 169.468 1133.32 Q171.297 1129.76 171.297 1122.65 Q171.297 1115.52 169.468 1111.98 Q167.663 1108.41 164.028 1108.41 M164.028 1104.71 Q169.839 1104.71 172.894 1109.32 Q175.973 1113.9 175.973 1122.65 Q175.973 1131.38 172.894 1135.98 Q169.839 1140.57 164.028 1140.57 Q158.218 1140.57 155.14 1135.98 Q152.084 1131.38 152.084 1122.65 Q152.084 1113.9 155.14 1109.32 Q158.218 1104.71 164.028 1104.71 Z" fill="#000000" fill-rule="evenodd" fill-opacity="1" /><path clip-path="url(#clip600)" d="M 0 0 M184.19 1134.01 L189.075 1134.01 L189.075 1139.89 L184.19 1139.89 L184.19 1134.01 Z" fill="#000000" fill-rule="evenodd" fill-opacity="1" /><path clip-path="url(#clip600)" d="M 0 0 M199.306 1105.33 L217.662 1105.33 L217.662 1109.27 L203.588 1109.27 L203.588 1117.74 Q204.607 1117.39 205.625 1117.23 Q206.644 1117.05 207.662 1117.05 Q213.449 1117.05 216.829 1120.22 Q220.209 1123.39 220.209 1128.81 Q220.209 1134.38 216.736 1137.49 Q213.264 1140.57 206.945 1140.57 Q204.769 1140.57 202.5 1140.19 Q200.255 1139.82 197.848 1139.08 L197.848 1134.38 Q199.931 1135.52 202.153 1136.07 Q204.375 1136.63 206.852 1136.63 Q210.857 1136.63 213.195 1134.52 Q215.533 1132.42 215.533 1128.81 Q215.533 1125.19 213.195 1123.09 Q210.857 1120.98 206.852 1120.98 Q204.977 1120.98 203.102 1121.4 Q201.25 1121.82 199.306 1122.69 L199.306 1105.33 Z" fill="#000000" fill-rule="evenodd" fill-opacity="1" /><path clip-path="url(#clip600)" d="M 0 0 M239.422 1108.41 Q235.81 1108.41 233.982 1111.98 Q232.176 1115.52 232.176 1122.65 Q232.176 1129.76 233.982 1133.32 Q235.81 1136.86 239.422 1136.86 Q243.056 1136.86 244.861 1133.32 Q246.69 1129.76 246.69 1122.65 Q246.69 1115.52 244.861 1111.98 Q243.056 1108.41 239.422 1108.41 M239.422 1104.71 Q245.232 1104.71 248.287 1109.32 Q251.366 1113.9 251.366 1122.65 Q251.366 1131.38 248.287 1135.98 Q245.232 1140.57 239.422 1140.57 Q233.611 1140.57 230.533 1135.98 Q227.477 1131.38 227.477 1122.65 Q227.477 1113.9 230.533 1109.32 Q233.611 1104.71 239.422 1104.71 Z" fill="#000000" fill-rule="evenodd" fill-opacity="1" /><path clip-path="url(#clip600)" d="M 0 0 M115.256 948.421 L144.931 948.421 L144.931 952.356 L115.256 952.356 L115.256 948.421 Z" fill="#000000" fill-rule="evenodd" fill-opacity="1" /><path clip-path="url(#clip600)" d="M 0 0 M165.024 933.769 Q161.413 933.769 159.584 937.333 Q157.778 940.875 157.778 948.005 Q157.778 955.111 159.584 958.676 Q161.413 962.218 165.024 962.218 Q168.658 962.218 170.464 958.676 Q172.292 955.111 172.292 948.005 Q172.292 940.875 170.464 937.333 Q168.658 933.769 165.024 933.769 M165.024 930.065 Q170.834 930.065 173.889 934.671 Q176.968 939.255 176.968 948.005 Q176.968 956.731 173.889 961.338 Q170.834 965.921 165.024 965.921 Q159.214 965.921 156.135 961.338 Q153.079 956.731 153.079 948.005 Q153.079 939.255 156.135 934.671 Q159.214 930.065 165.024 930.065 Z" fill="#000000" fill-rule="evenodd" fill-opacity="1" /><path clip-path="url(#clip600)" d="M 0 0 M185.186 959.37 L190.07 959.37 L190.07 965.25 L185.186 965.25 L185.186 959.37 Z" fill="#000000" fill-rule="evenodd" fill-opacity="1" /><path clip-path="url(#clip600)" d="M 0 0 M204.283 961.315 L220.602 961.315 L220.602 965.25 L198.658 965.25 L198.658 961.315 Q201.32 958.56 205.903 953.931 Q210.51 949.278 211.69 947.935 Q213.936 945.412 214.815 943.676 Q215.718 941.917 215.718 940.227 Q215.718 937.472 213.774 935.736 Q211.852 934 208.75 934 Q206.551 934 204.098 934.764 Q201.667 935.528 198.889 937.079 L198.889 932.357 Q201.713 931.222 204.167 930.644 Q206.621 930.065 208.658 930.065 Q214.028 930.065 217.223 932.75 Q220.417 935.435 220.417 939.926 Q220.417 942.056 219.607 943.977 Q218.82 945.875 216.713 948.468 Q216.135 949.139 213.033 952.356 Q209.931 955.551 204.283 961.315 Z" fill="#000000" fill-rule="evenodd" fill-opacity="1" /><path clip-path="url(#clip600)" d="M 0 0 M230.463 930.69 L248.82 930.69 L248.82 934.625 L234.746 934.625 L234.746 943.097 Q235.764 942.75 236.783 942.588 Q237.801 942.403 238.82 942.403 Q244.607 942.403 247.986 945.574 Q251.366 948.745 251.366 954.162 Q251.366 959.741 247.894 962.843 Q244.421 965.921 238.102 965.921 Q235.926 965.921 233.658 965.551 Q231.412 965.18 229.005 964.44 L229.005 959.741 Q231.088 960.875 233.31 961.431 Q235.533 961.986 238.009 961.986 Q242.014 961.986 244.352 959.88 Q246.69 957.773 246.69 954.162 Q246.69 950.551 244.352 948.444 Q242.014 946.338 238.009 946.338 Q236.135 946.338 234.26 946.755 Q232.408 947.171 230.463 948.051 L230.463 930.69 Z" fill="#000000" fill-rule="evenodd" fill-opacity="1" /><path clip-path="url(#clip600)" d="M 0 0 M164.028 759.125 Q160.417 759.125 158.589 762.689 Q156.783 766.231 156.783 773.361 Q156.783 780.467 158.589 784.032 Q160.417 787.574 164.028 787.574 Q167.663 787.574 169.468 784.032 Q171.297 780.467 171.297 773.361 Q171.297 766.231 169.468 762.689 Q167.663 759.125 164.028 759.125 M164.028 755.421 Q169.839 755.421 172.894 760.027 Q175.973 764.611 175.973 773.361 Q175.973 782.088 172.894 786.694 Q169.839 791.277 164.028 791.277 Q158.218 791.277 155.14 786.694 Q152.084 782.088 152.084 773.361 Q152.084 764.611 155.14 760.027 Q158.218 755.421 164.028 755.421 Z" fill="#000000" fill-rule="evenodd" fill-opacity="1" /><path clip-path="url(#clip600)" d="M 0 0 M184.19 784.726 L189.075 784.726 L189.075 790.606 L184.19 790.606 L184.19 784.726 Z" fill="#000000" fill-rule="evenodd" fill-opacity="1" /><path clip-path="url(#clip600)" d="M 0 0 M209.26 759.125 Q205.649 759.125 203.82 762.689 Q202.014 766.231 202.014 773.361 Q202.014 780.467 203.82 784.032 Q205.649 787.574 209.26 787.574 Q212.894 787.574 214.699 784.032 Q216.528 780.467 216.528 773.361 Q216.528 766.231 214.699 762.689 Q212.894 759.125 209.26 759.125 M209.26 755.421 Q215.07 755.421 218.125 760.027 Q221.204 764.611 221.204 773.361 Q221.204 782.088 218.125 786.694 Q215.07 791.277 209.26 791.277 Q203.449 791.277 200.371 786.694 Q197.315 782.088 197.315 773.361 Q197.315 764.611 200.371 760.027 Q203.449 755.421 209.26 755.421 Z" fill="#000000" fill-rule="evenodd" fill-opacity="1" /><path clip-path="url(#clip600)" d="M 0 0 M239.422 759.125 Q235.81 759.125 233.982 762.689 Q232.176 766.231 232.176 773.361 Q232.176 780.467 233.982 784.032 Q235.81 787.574 239.422 787.574 Q243.056 787.574 244.861 784.032 Q246.69 780.467 246.69 773.361 Q246.69 766.231 244.861 762.689 Q243.056 759.125 239.422 759.125 M239.422 755.421 Q245.232 755.421 248.287 760.027 Q251.366 764.611 251.366 773.361 Q251.366 782.088 248.287 786.694 Q245.232 791.277 239.422 791.277 Q233.611 791.277 230.533 786.694 Q227.477 782.088 227.477 773.361 Q227.477 764.611 230.533 760.027 Q233.611 755.421 239.422 755.421 Z" fill="#000000" fill-rule="evenodd" fill-opacity="1" /><path clip-path="url(#clip600)" d="M 0 0 M165.024 584.481 Q161.413 584.481 159.584 588.046 Q157.778 591.587 157.778 598.717 Q157.778 605.823 159.584 609.388 Q161.413 612.93 165.024 612.93 Q168.658 612.93 170.464 609.388 Q172.292 605.823 172.292 598.717 Q172.292 591.587 170.464 588.046 Q168.658 584.481 165.024 584.481 M165.024 580.777 Q170.834 580.777 173.889 585.383 Q176.968 589.967 176.968 598.717 Q176.968 607.444 173.889 612.05 Q170.834 616.633 165.024 616.633 Q159.214 616.633 156.135 612.05 Q153.079 607.444 153.079 598.717 Q153.079 589.967 156.135 585.383 Q159.214 580.777 165.024 580.777 Z" fill="#000000" fill-rule="evenodd" fill-opacity="1" /><path clip-path="url(#clip600)" d="M 0 0 M185.186 610.082 L190.07 610.082 L190.07 615.962 L185.186 615.962 L185.186 610.082 Z" fill="#000000" fill-rule="evenodd" fill-opacity="1" /><path clip-path="url(#clip600)" d="M 0 0 M204.283 612.027 L220.602 612.027 L220.602 615.962 L198.658 615.962 L198.658 612.027 Q201.32 609.272 205.903 604.643 Q210.51 599.99 211.69 598.647 Q213.936 596.124 214.815 594.388 Q215.718 592.629 215.718 590.939 Q215.718 588.184 213.774 586.448 Q211.852 584.712 208.75 584.712 Q206.551 584.712 204.098 585.476 Q201.667 586.24 198.889 587.791 L198.889 583.069 Q201.713 581.934 204.167 581.356 Q206.621 580.777 208.658 580.777 Q214.028 580.777 217.223 583.462 Q220.417 586.147 220.417 590.638 Q220.417 592.768 219.607 594.689 Q218.82 596.587 216.713 599.18 Q216.135 599.851 213.033 603.069 Q209.931 606.263 204.283 612.027 Z" fill="#000000" fill-rule="evenodd" fill-opacity="1" /><path clip-path="url(#clip600)" d="M 0 0 M230.463 581.402 L248.82 581.402 L248.82 585.337 L234.746 585.337 L234.746 593.809 Q235.764 593.462 236.783 593.3 Q237.801 593.115 238.82 593.115 Q244.607 593.115 247.986 596.286 Q251.366 599.457 251.366 604.874 Q251.366 610.453 247.894 613.555 Q244.421 616.633 238.102 616.633 Q235.926 616.633 233.658 616.263 Q231.412 615.893 229.005 615.152 L229.005 610.453 Q231.088 611.587 233.31 612.143 Q235.533 612.698 238.009 612.698 Q242.014 612.698 244.352 610.592 Q246.69 608.485 246.69 604.874 Q246.69 601.263 244.352 599.157 Q242.014 597.05 238.009 597.05 Q236.135 597.05 234.26 597.467 Q232.408 597.883 230.463 598.763 L230.463 581.402 Z" fill="#000000" fill-rule="evenodd" fill-opacity="1" /><path clip-path="url(#clip600)" d="M 0 0 M164.028 409.837 Q160.417 409.837 158.589 413.402 Q156.783 416.943 156.783 424.073 Q156.783 431.179 158.589 434.744 Q160.417 438.286 164.028 438.286 Q167.663 438.286 169.468 434.744 Q171.297 431.179 171.297 424.073 Q171.297 416.943 169.468 413.402 Q167.663 409.837 164.028 409.837 M164.028 406.133 Q169.839 406.133 172.894 410.74 Q175.973 415.323 175.973 424.073 Q175.973 432.8 172.894 437.406 Q169.839 441.989 164.028 441.989 Q158.218 441.989 155.14 437.406 Q152.084 432.8 152.084 424.073 Q152.084 415.323 155.14 410.74 Q158.218 406.133 164.028 406.133 Z" fill="#000000" fill-rule="evenodd" fill-opacity="1" /><path clip-path="url(#clip600)" d="M 0 0 M184.19 435.438 L189.075 435.438 L189.075 441.318 L184.19 441.318 L184.19 435.438 Z" fill="#000000" fill-rule="evenodd" fill-opacity="1" /><path clip-path="url(#clip600)" d="M 0 0 M199.306 406.758 L217.662 406.758 L217.662 410.693 L203.588 410.693 L203.588 419.165 Q204.607 418.818 205.625 418.656 Q206.644 418.471 207.662 418.471 Q213.449 418.471 216.829 421.642 Q220.209 424.814 220.209 430.23 Q220.209 435.809 216.736 438.911 Q213.264 441.989 206.945 441.989 Q204.769 441.989 202.5 441.619 Q200.255 441.249 197.848 440.508 L197.848 435.809 Q199.931 436.943 202.153 437.499 Q204.375 438.054 206.852 438.054 Q210.857 438.054 213.195 435.948 Q215.533 433.841 215.533 430.23 Q215.533 426.619 213.195 424.513 Q210.857 422.406 206.852 422.406 Q204.977 422.406 203.102 422.823 Q201.25 423.239 199.306 424.119 L199.306 406.758 Z" fill="#000000" fill-rule="evenodd" fill-opacity="1" /><path clip-path="url(#clip600)" d="M 0 0 M239.422 409.837 Q235.81 409.837 233.982 413.402 Q232.176 416.943 232.176 424.073 Q232.176 431.179 233.982 434.744 Q235.81 438.286 239.422 438.286 Q243.056 438.286 244.861 434.744 Q246.69 431.179 246.69 424.073 Q246.69 416.943 244.861 413.402 Q243.056 409.837 239.422 409.837 M239.422 406.133 Q245.232 406.133 248.287 410.74 Q251.366 415.323 251.366 424.073 Q251.366 432.8 248.287 437.406 Q245.232 441.989 239.422 441.989 Q233.611 441.989 230.533 437.406 Q227.477 432.8 227.477 424.073 Q227.477 415.323 230.533 410.74 Q233.611 406.133 239.422 406.133 Z" fill="#000000" fill-rule="evenodd" fill-opacity="1" /><path clip-path="url(#clip600)" d="M 0 0 M165.024 235.193 Q161.413 235.193 159.584 238.758 Q157.778 242.299 157.778 249.429 Q157.778 256.535 159.584 260.1 Q161.413 263.642 165.024 263.642 Q168.658 263.642 170.464 260.1 Q172.292 256.535 172.292 249.429 Q172.292 242.299 170.464 238.758 Q168.658 235.193 165.024 235.193 M165.024 231.489 Q170.834 231.489 173.889 236.096 Q176.968 240.679 176.968 249.429 Q176.968 258.156 173.889 262.762 Q170.834 267.345 165.024 267.345 Q159.214 267.345 156.135 262.762 Q153.079 258.156 153.079 249.429 Q153.079 240.679 156.135 236.096 Q159.214 231.489 165.024 231.489 Z" fill="#000000" fill-rule="evenodd" fill-opacity="1" /><path clip-path="url(#clip600)" d="M 0 0 M185.186 260.795 L190.07 260.795 L190.07 266.674 L185.186 266.674 L185.186 260.795 Z" fill="#000000" fill-rule="evenodd" fill-opacity="1" /><path clip-path="url(#clip600)" d="M 0 0 M199.075 232.114 L221.297 232.114 L221.297 234.105 L208.75 266.674 L203.866 266.674 L215.672 236.049 L199.075 236.049 L199.075 232.114 Z" fill="#000000" fill-rule="evenodd" fill-opacity="1" /><path clip-path="url(#clip600)" d="M 0 0 M230.463 232.114 L248.82 232.114 L248.82 236.049 L234.746 236.049 L234.746 244.521 Q235.764 244.174 236.783 244.012 Q237.801 243.827 238.82 243.827 Q244.607 243.827 247.986 246.998 Q251.366 250.17 251.366 255.586 Q251.366 261.165 247.894 264.267 Q244.421 267.345 238.102 267.345 Q235.926 267.345 233.658 266.975 Q231.412 266.605 229.005 265.864 L229.005 261.165 Q231.088 262.299 233.31 262.855 Q235.533 263.41 238.009 263.41 Q242.014 263.41 244.352 261.304 Q246.69 259.197 246.69 255.586 Q246.69 251.975 244.352 249.869 Q242.014 247.762 238.009 247.762 Q236.135 247.762 234.26 248.179 Q232.408 248.596 230.463 249.475 L230.463 232.114 Z" fill="#000000" fill-rule="evenodd" fill-opacity="1" /><path clip-path="url(#clip600)" d="M 0 0 M18.0438 869.257 L24.314 869.257 Q22.5634 872.917 21.704 876.164 Q20.8447 879.41 20.8447 882.434 Q20.8447 887.686 22.8817 890.55 Q24.9187 893.383 28.6745 893.383 Q31.8255 893.383 33.4488 891.505 Q35.0402 889.596 36.0269 884.312 L36.8226 880.429 Q38.1912 873.236 41.6605 869.83 Q45.098 866.393 50.8908 866.393 Q57.7976 866.393 61.3624 871.04 Q64.9272 875.655 64.9272 884.599 Q64.9272 887.972 64.1633 891.792 Q63.3994 895.579 61.9035 899.653 L55.2831 899.653 Q57.4793 895.739 58.5933 891.983 Q59.7073 888.227 59.7073 884.599 Q59.7073 879.092 57.543 876.1 Q55.3786 873.108 51.3682 873.108 Q47.8671 873.108 45.8937 875.273 Q43.9204 877.405 42.9337 882.307 L42.1698 886.222 Q40.7375 893.415 37.682 896.63 Q34.6264 899.844 29.1837 899.844 Q22.8817 899.844 19.2532 895.42 Q15.6248 890.964 15.6248 883.166 Q15.6248 879.824 16.2295 876.355 Q16.8343 872.886 18.0438 869.257 Z" fill="#000000" fill-rule="evenodd" fill-opacity="1" /><path clip-path="url(#clip600)" d="M 0 0 M43.5384 859.581 L43.5384 842.426 L48.7583 842.426 L48.7583 859.581 L43.5384 859.581 Z" fill="#000000" fill-rule="evenodd" fill-opacity="1" /><path clip-path="url(#clip600)" d="M 0 0 M14.5426 819.032 Q21.8632 823.297 29.0246 825.366 Q36.186 827.434 43.5384 827.434 Q50.8908 827.434 58.1159 825.366 Q65.3091 823.265 72.5979 819.032 L72.5979 824.124 Q65.1182 828.899 57.8931 831.286 Q50.668 833.641 43.5384 833.641 Q36.4406 833.641 29.2474 831.286 Q22.0542 828.93 14.5426 824.124 L14.5426 819.032 Z" fill="#000000" fill-rule="evenodd" fill-opacity="1" /><path clip-path="url(#clip600)" d="M 0 0 M16.4842 807.414 L16.4842 800.985 L58.5933 800.985 L58.5933 777.846 L64.0042 777.846 L64.0042 807.414 L16.4842 807.414 Z" fill="#000000" fill-rule="evenodd" fill-opacity="1" /><path clip-path="url(#clip600)" d="M 0 0 M23.1363 747.513 L40.8648 747.513 L40.8648 729.785 L46.2757 729.785 L46.2757 747.513 L64.0042 747.513 L64.0042 752.86 L46.2757 752.86 L46.2757 770.589 L40.8648 770.589 L40.8648 752.86 L23.1363 752.86 L23.1363 747.513 Z" fill="#000000" fill-rule="evenodd" fill-opacity="1" /><path clip-path="url(#clip600)" d="M 0 0 M16.4842 716.48 L16.4842 706.9 L48.8219 694.773 L16.4842 682.583 L16.4842 673.002 L64.0042 673.002 L64.0042 679.273 L22.277 679.273 L54.8694 691.527 L54.8694 697.988 L22.277 710.242 L64.0042 710.242 L64.0042 716.48 L16.4842 716.48 Z" fill="#000000" fill-rule="evenodd" fill-opacity="1" /><path clip-path="url(#clip600)" d="M 0 0 M14.5426 661.417 L14.5426 656.324 Q22.0542 651.55 29.2474 649.195 Q36.4406 646.808 43.5384 646.808 Q50.668 646.808 57.8931 649.195 Q65.1182 651.55 72.5979 656.324 L72.5979 661.417 Q65.3091 657.184 58.1159 655.115 Q50.8908 653.014 43.5384 653.014 Q36.186 653.014 29.0246 655.115 Q21.8632 657.184 14.5426 661.417 Z" fill="#000000" fill-rule="evenodd" fill-opacity="1" /><path clip-path="url(#clip600)" d="M 0 0 M1026.05 18.8205 L1026.05 65.8515 L1035.93 65.8515 Q1048.45 65.8515 1054.24 60.1802 Q1060.07 54.509 1060.07 42.2752 Q1060.07 30.1225 1054.24 24.4918 Q1048.45 18.8205 1035.93 18.8205 L1026.05 18.8205 M1017.86 12.096 L1034.67 12.096 Q1052.26 12.096 1060.48 19.4281 Q1068.7 26.7198 1068.7 42.2752 Q1068.7 57.9117 1060.44 65.2439 Q1052.17 72.576 1034.67 72.576 L1017.86 72.576 L1017.86 12.096 Z" fill="#000000" fill-rule="evenodd" fill-opacity="1" /><path clip-path="url(#clip600)" d="M 0 0 M1081.75 12.096 L1089.93 12.096 L1089.93 37.6572 L1117.07 12.096 L1127.6 12.096 L1097.59 40.2903 L1129.75 72.576 L1118.97 72.576 L1089.93 43.45 L1089.93 72.576 L1081.75 72.576 L1081.75 12.096 Z" fill="#000000" fill-rule="evenodd" fill-opacity="1" /><path clip-path="url(#clip600)" d="M 0 0 M1136.15 12.096 L1144.33 12.096 L1144.33 65.6895 L1173.78 65.6895 L1173.78 72.576 L1136.15 72.576 L1136.15 12.096 Z" fill="#000000" fill-rule="evenodd" fill-opacity="1" /><path clip-path="url(#clip600)" d="M 0 0 M1216.52 86.3491 L1216.52 92.1419 L1173.42 92.1419 L1173.42 86.3491 L1216.52 86.3491 Z" fill="#000000" fill-rule="evenodd" fill-opacity="1" /><path clip-path="url(#clip600)" d="M 0 0 M1231.63 65.6895 L1260.19 65.6895 L1260.19 72.576 L1221.79 72.576 L1221.79 65.6895 Q1226.44 60.8689 1234.47 52.7671 Q1242.53 44.6248 1244.59 42.2752 Q1248.52 37.8598 1250.06 34.8216 Q1251.64 31.7429 1251.64 28.7857 Q1251.64 23.9651 1248.24 20.927 Q1244.88 17.8888 1239.45 17.8888 Q1235.6 17.8888 1231.31 19.2256 Q1227.05 20.5624 1222.19 23.2765 L1222.19 15.0127 Q1227.13 13.0277 1231.43 12.015 Q1235.72 11.0023 1239.29 11.0023 Q1248.68 11.0023 1254.27 15.7013 Q1259.86 20.4004 1259.86 28.2591 Q1259.86 31.9859 1258.45 35.3482 Q1257.07 38.6699 1253.38 43.2069 Q1252.37 44.3817 1246.94 50.0125 Q1241.51 55.6027 1231.63 65.6895 Z" fill="#000000" fill-rule="evenodd" fill-opacity="1" /><path clip-path="url(#clip600)" d="M 0 0 M1295.88 39.075 Q1290.37 39.075 1287.13 42.8424 Q1283.93 46.6097 1283.93 53.1722 Q1283.93 59.6941 1287.13 63.502 Q1290.37 67.2693 1295.88 67.2693 Q1301.39 67.2693 1304.59 63.502 Q1307.83 59.6941 1307.83 53.1722 Q1307.83 46.6097 1304.59 42.8424 Q1301.39 39.075 1295.88 39.075 M1312.12 13.4328 L1312.12 20.8865 Q1309.04 19.4281 1305.88 18.6585 Q1302.76 17.8888 1299.68 17.8888 Q1291.58 17.8888 1287.29 23.3575 Q1283.04 28.8262 1282.43 39.8852 Q1284.82 36.3609 1288.42 34.4975 Q1292.03 32.5936 1296.36 32.5936 Q1305.48 32.5936 1310.74 38.1433 Q1316.05 43.6525 1316.05 53.1722 Q1316.05 62.4892 1310.54 68.12 Q1305.03 73.7508 1295.88 73.7508 Q1285.39 73.7508 1279.84 65.73 Q1274.29 57.6687 1274.29 42.3968 Q1274.29 28.0566 1281.09 19.5497 Q1287.9 11.0023 1299.36 11.0023 Q1302.44 11.0023 1305.56 11.6099 Q1308.72 12.2175 1312.12 13.4328 Z" fill="#000000" fill-rule="evenodd" fill-opacity="1" /><path clip-path="url(#clip600)" d="M 0 0 M1329.42 12.096 L1337.6 12.096 L1337.6 36.8875 L1367.33 36.8875 L1367.33 12.096 L1375.52 12.096 L1375.52 72.576 L1367.33 72.576 L1367.33 43.7741 L1337.6 43.7741 L1337.6 72.576 L1329.42 72.576 L1329.42 12.096 Z" fill="#000000" fill-rule="evenodd" fill-opacity="1" /><path clip-path="url(#clip600)" d="M 0 0 M1390.71 54.671 L1390.71 27.2059 L1398.16 27.2059 L1398.16 54.3874 Q1398.16 60.8284 1400.67 64.0691 Q1403.19 67.2693 1408.21 67.2693 Q1414.24 67.2693 1417.73 63.421 Q1421.25 59.5726 1421.25 52.9291 L1421.25 27.2059 L1428.71 27.2059 L1428.71 72.576 L1421.25 72.576 L1421.25 65.6084 Q1418.54 69.7404 1414.93 71.7658 Q1411.37 73.7508 1406.63 73.7508 Q1398.81 73.7508 1394.76 68.8897 Q1390.71 64.0286 1390.71 54.671 M1409.46 26.1121 L1409.46 26.1121 Z" fill="#000000" fill-rule="evenodd" fill-opacity="1" /><path clip-path="url(#clip600)" d="M 0 0 M1482.87 48.0275 L1482.87 51.6733 L1448.6 51.6733 Q1449.08 59.3701 1453.21 63.421 Q1457.39 67.4314 1464.8 67.4314 Q1469.09 67.4314 1473.1 66.3781 Q1477.15 65.3249 1481.12 63.2184 L1481.12 70.267 Q1477.11 71.9684 1472.9 72.8596 Q1468.69 73.7508 1464.35 73.7508 Q1453.5 73.7508 1447.14 67.4314 Q1440.82 61.1119 1440.82 50.3365 Q1440.82 39.1965 1446.81 32.6746 Q1452.85 26.1121 1463.06 26.1121 Q1472.21 26.1121 1477.52 32.0264 Q1482.87 37.9003 1482.87 48.0275 M1475.41 45.84 Q1475.33 39.7232 1471.97 36.0774 Q1468.65 32.4315 1463.14 32.4315 Q1456.9 32.4315 1453.13 35.9558 Q1449.41 39.4801 1448.84 45.8805 L1475.41 45.84 Z" fill="#000000" fill-rule="evenodd" fill-opacity="1" /><path clip-path="url(#clip600)" d="M 0 0 M1529.57 86.3491 L1529.57 92.1419 L1486.47 92.1419 L1486.47 86.3491 L1529.57 86.3491 Z" fill="#000000" fill-rule="evenodd" fill-opacity="1" /><path clip-path="url(#clip600)" d="M 0 0 M1536.91 12.096 L1545.09 12.096 L1545.09 65.6895 L1574.54 65.6895 L1574.54 72.576 L1536.91 72.576 L1536.91 12.096 Z" fill="#000000" fill-rule="evenodd" fill-opacity="1" /><path clip-path="url(#clip600)" d="M 0 0 M1601.36 17.4837 Q1595.04 17.4837 1591.84 23.7221 Q1588.68 29.92 1588.68 42.3968 Q1588.68 54.833 1591.84 61.0714 Q1595.04 67.2693 1601.36 67.2693 Q1607.72 67.2693 1610.88 61.0714 Q1614.08 54.833 1614.08 42.3968 Q1614.08 29.92 1610.88 23.7221 Q1607.72 17.4837 1601.36 17.4837 M1601.36 11.0023 Q1611.52 11.0023 1616.87 19.0636 Q1622.26 27.0843 1622.26 42.3968 Q1622.26 57.6687 1616.87 65.73 Q1611.52 73.7508 1601.36 73.7508 Q1591.19 73.7508 1585.8 65.73 Q1580.45 57.6687 1580.45 42.3968 Q1580.45 27.0843 1585.8 19.0636 Q1591.19 11.0023 1601.36 11.0023 Z" fill="#000000" fill-rule="evenodd" fill-opacity="1" /><polyline clip-path="url(#clip602)" style="stroke:#7f7f7f; stroke-width:4; stroke-opacity:0.5; fill:none" points="
  1320.06,773.326 1423.12,773.326 
  "/>
<polyline clip-path="url(#clip602)" style="stroke:#7f7f7f; stroke-width:4; stroke-opacity:0.5; fill:none" points="
  1320.06,773.326 1420.76,715.188 
  "/>
<polyline clip-path="url(#clip602)" style="stroke:#7f7f7f; stroke-width:4; stroke-opacity:0.5; fill:none" points="
  1320.06,773.326 1416.36,606.539 
  "/>
<polyline clip-path="url(#clip602)" style="stroke:#7f7f7f; stroke-width:4; stroke-opacity:0.5; fill:none" points="
  1320.06,773.326 1409.58,439.254 
  "/>
<polyline clip-path="url(#clip602)" style="stroke:#7f7f7f; stroke-width:4; stroke-opacity:0.5; fill:none" points="
  1320.06,773.326 1403.85,298.109 
  "/>
<polyline clip-path="url(#clip602)" style="stroke:#7f7f7f; stroke-width:4; stroke-opacity:0.5; fill:none" points="
  1320.06,773.326 1394.21,169.406 
  "/>
<polyline clip-path="url(#clip602)" style="stroke:#7f7f7f; stroke-width:4; stroke-opacity:0.5; fill:none" points="
  1320.06,773.326 1320.06,165.897 
  "/>
<polyline clip-path="url(#clip602)" style="stroke:#7f7f7f; stroke-width:4; stroke-opacity:0.5; fill:none" points="
  1320.06,773.326 1266.7,163.371 
  "/>
<polyline clip-path="url(#clip602)" style="stroke:#7f7f7f; stroke-width:4; stroke-opacity:0.5; fill:none" points="
  1320.06,773.326 1200.89,160.256 
  "/>
<polyline clip-path="url(#clip602)" style="stroke:#7f7f7f; stroke-width:4; stroke-opacity:0.5; fill:none" points="
  1320.06,773.326 1198.64,320.176 
  "/>
<polyline clip-path="url(#clip602)" style="stroke:#7f7f7f; stroke-width:4; stroke-opacity:0.5; fill:none" points="
  1320.06,773.326 1204.09,454.705 
  "/>
<polyline clip-path="url(#clip602)" style="stroke:#7f7f7f; stroke-width:4; stroke-opacity:0.5; fill:none" points="
  1320.06,773.326 1209.23,581.353 
  "/>
<polyline clip-path="url(#clip602)" style="stroke:#7f7f7f; stroke-width:4; stroke-opacity:0.5; fill:none" points="
  1320.06,773.326 1214.54,712.402 
  "/>
<polyline clip-path="url(#clip602)" style="stroke:#7f7f7f; stroke-width:4; stroke-opacity:0.5; fill:none" points="
  1320.06,773.326 1217.01,773.326 
  "/>
<polyline clip-path="url(#clip602)" style="stroke:#7f7f7f; stroke-width:4; stroke-opacity:0.5; fill:none" points="
  1320.06,773.326 1219.36,831.464 
  "/>
<polyline clip-path="url(#clip602)" style="stroke:#7f7f7f; stroke-width:4; stroke-opacity:0.5; fill:none" points="
  1320.06,773.326 1223.77,940.113 
  "/>
<polyline clip-path="url(#clip602)" style="stroke:#7f7f7f; stroke-width:4; stroke-opacity:0.5; fill:none" points="
  1320.06,773.326 1230.55,1107.4 
  "/>
<polyline clip-path="url(#clip602)" style="stroke:#7f7f7f; stroke-width:4; stroke-opacity:0.5; fill:none" points="
  1320.06,773.326 1236.27,1248.54 
  "/>
<polyline clip-path="url(#clip602)" style="stroke:#7f7f7f; stroke-width:4; stroke-opacity:0.5; fill:none" points="
  1320.06,773.326 1245.91,1377.25 
  "/>
<polyline clip-path="url(#clip602)" style="stroke:#7f7f7f; stroke-width:4; stroke-opacity:0.5; fill:none" points="
  1320.06,773.326 1320.06,1380.76 
  "/>
<polyline clip-path="url(#clip602)" style="stroke:#7f7f7f; stroke-width:4; stroke-opacity:0.5; fill:none" points="
  1320.06,773.326 1373.43,1383.28 
  "/>
<polyline clip-path="url(#clip602)" style="stroke:#7f7f7f; stroke-width:4; stroke-opacity:0.5; fill:none" points="
  1320.06,773.326 1439.23,1386.4 
  "/>
<polyline clip-path="url(#clip602)" style="stroke:#7f7f7f; stroke-width:4; stroke-opacity:0.5; fill:none" points="
  1320.06,773.326 1441.48,1226.48 
  "/>
<polyline clip-path="url(#clip602)" style="stroke:#7f7f7f; stroke-width:4; stroke-opacity:0.5; fill:none" points="
  1320.06,773.326 1436.03,1091.95 
  "/>
<polyline clip-path="url(#clip602)" style="stroke:#7f7f7f; stroke-width:4; stroke-opacity:0.5; fill:none" points="
  1320.06,773.326 1430.9,965.299 
  "/>
<polyline clip-path="url(#clip602)" style="stroke:#7f7f7f; stroke-width:4; stroke-opacity:0.5; fill:none" points="
  1320.06,773.326 1425.58,834.25 
  "/>
<polyline clip-path="url(#clip602)" style="stroke:#ff5780; stroke-width:6; stroke-opacity:1; fill:none" points="
  1423.12,773.326 1420.76,715.188 
  "/>
<polyline clip-path="url(#clip602)" style="stroke:#ff558c; stroke-width:6; stroke-opacity:1; fill:none" points="
  1420.76,715.188 1416.36,606.539 
  "/>
<polyline clip-path="url(#clip602)" style="stroke:#ff52a3; stroke-width:6; stroke-opacity:1; fill:none" points="
  1416.36,606.539 1409.58,439.254 
  "/>
<polyline clip-path="url(#clip602)" style="stroke:#ff4cc6; stroke-width:6; stroke-opacity:1; fill:none" points="
  1409.58,439.254 1403.85,298.109 
  "/>
<polyline clip-path="url(#clip602)" style="stroke:#ff47e4; stroke-width:6; stroke-opacity:1; fill:none" points="
  1403.85,298.109 1394.21,169.406 
  "/>
<polyline clip-path="url(#clip602)" style="stroke:#f944ff; stroke-width:6; stroke-opacity:1; fill:none" points="
  1394.21,169.406 1320.06,165.897 
  "/>
<polyline clip-path="url(#clip602)" style="stroke:#9d61ff; stroke-width:6; stroke-opacity:1; fill:none" points="
  1320.06,165.897 1266.7,163.371 
  "/>
<polyline clip-path="url(#clip602)" style="stroke:#5c75ff; stroke-width:6; stroke-opacity:1; fill:none" points="
  1266.7,163.371 1200.89,160.256 
  "/>
<polyline clip-path="url(#clip602)" style="stroke:#0a8eff; stroke-width:6; stroke-opacity:1; fill:none" points="
  1200.89,160.256 1198.64,320.176 
  "/>
<polyline clip-path="url(#clip602)" style="stroke:#0097dd; stroke-width:6; stroke-opacity:1; fill:none" points="
  1198.64,320.176 1204.09,454.705 
  "/>
<polyline clip-path="url(#clip602)" style="stroke:#009cc1; stroke-width:6; stroke-opacity:1; fill:none" points="
  1204.09,454.705 1209.23,581.353 
  "/>
<polyline clip-path="url(#clip602)" style="stroke:#00a0a6; stroke-width:6; stroke-opacity:1; fill:none" points="
  1209.23,581.353 1214.54,712.402 
  "/>
<polyline clip-path="url(#clip602)" style="stroke:#00a48b; stroke-width:6; stroke-opacity:1; fill:none" points="
  1214.54,712.402 1217.01,773.326 
  "/>
<polyline clip-path="url(#clip602)" style="stroke:#00a77e; stroke-width:6; stroke-opacity:1; fill:none" points="
  1217.01,773.326 1219.36,831.464 
  "/>
<polyline clip-path="url(#clip602)" style="stroke:#00a972; stroke-width:6; stroke-opacity:1; fill:none" points="
  1219.36,831.464 1223.77,940.113 
  "/>
<polyline clip-path="url(#clip602)" style="stroke:#00ac5b; stroke-width:6; stroke-opacity:1; fill:none" points="
  1223.77,940.113 1230.55,1107.4 
  "/>
<polyline clip-path="url(#clip602)" style="stroke:#00b238; stroke-width:6; stroke-opacity:1; fill:none" points="
  1230.55,1107.4 1236.27,1248.54 
  "/>
<polyline clip-path="url(#clip602)" style="stroke:#00b71a; stroke-width:6; stroke-opacity:1; fill:none" points="
  1236.27,1248.54 1245.91,1377.25 
  "/>
<polyline clip-path="url(#clip602)" style="stroke:#05ba00; stroke-width:6; stroke-opacity:1; fill:none" points="
  1245.91,1377.25 1320.06,1380.76 
  "/>
<polyline clip-path="url(#clip602)" style="stroke:#619d00; stroke-width:6; stroke-opacity:1; fill:none" points="
  1320.06,1380.76 1373.43,1383.28 
  "/>
<polyline clip-path="url(#clip602)" style="stroke:#a28900; stroke-width:6; stroke-opacity:1; fill:none" points="
  1373.43,1383.28 1439.23,1386.4 
  "/>
<polyline clip-path="url(#clip602)" style="stroke:#f47000; stroke-width:6; stroke-opacity:1; fill:none" points="
  1439.23,1386.4 1441.48,1226.48 
  "/>
<polyline clip-path="url(#clip602)" style="stroke:#ff6721; stroke-width:6; stroke-opacity:1; fill:none" points="
  1441.48,1226.48 1436.03,1091.95 
  "/>
<polyline clip-path="url(#clip602)" style="stroke:#ff623d; stroke-width:6; stroke-opacity:1; fill:none" points="
  1436.03,1091.95 1430.9,965.299 
  "/>
<polyline clip-path="url(#clip602)" style="stroke:#ff5e58; stroke-width:6; stroke-opacity:1; fill:none" points="
  1430.9,965.299 1425.58,834.25 
  "/>
<circle clip-path="url(#clip602)" cx="1423.12" cy="773.326" r="21" fill="#ff5780" fill-rule="evenodd" fill-opacity="1" stroke="#000000" stroke-opacity="1" stroke-width="0"/>
<circle clip-path="url(#clip602)" cx="1420.76" cy="715.188" r="21" fill="#ff558c" fill-rule="evenodd" fill-opacity="1" stroke="#000000" stroke-opacity="1" stroke-width="0"/>
<circle clip-path="url(#clip602)" cx="1416.36" cy="606.539" r="21" fill="#ff52a3" fill-rule="evenodd" fill-opacity="1" stroke="#000000" stroke-opacity="1" stroke-width="0"/>
<circle clip-path="url(#clip602)" cx="1409.58" cy="439.254" r="21" fill="#ff4cc6" fill-rule="evenodd" fill-opacity="1" stroke="#000000" stroke-opacity="1" stroke-width="0"/>
<circle clip-path="url(#clip602)" cx="1403.85" cy="298.109" r="21" fill="#ff47e4" fill-rule="evenodd" fill-opacity="1" stroke="#000000" stroke-opacity="1" stroke-width="0"/>
<circle clip-path="url(#clip602)" cx="1394.21" cy="169.406" r="21" fill="#f944ff" fill-rule="evenodd" fill-opacity="1" stroke="#000000" stroke-opacity="1" stroke-width="0"/>
<circle clip-path="url(#clip602)" cx="1320.06" cy="165.897" r="21" fill="#9d61ff" fill-rule="evenodd" fill-opacity="1" stroke="#000000" stroke-opacity="1" stroke-width="0"/>
<circle clip-path="url(#clip602)" cx="1266.7" cy="163.371" r="21" fill="#5c75ff" fill-rule="evenodd" fill-opacity="1" stroke="#000000" stroke-opacity="1" stroke-width="0"/>
<circle clip-path="url(#clip602)" cx="1200.89" cy="160.256" r="21" fill="#0a8eff" fill-rule="evenodd" fill-opacity="1" stroke="#000000" stroke-opacity="1" stroke-width="0"/>
<circle clip-path="url(#clip602)" cx="1198.64" cy="320.176" r="21" fill="#0097dd" fill-rule="evenodd" fill-opacity="1" stroke="#000000" stroke-opacity="1" stroke-width="0"/>
<circle clip-path="url(#clip602)" cx="1204.09" cy="454.705" r="21" fill="#009cc1" fill-rule="evenodd" fill-opacity="1" stroke="#000000" stroke-opacity="1" stroke-width="0"/>
<circle clip-path="url(#clip602)" cx="1209.23" cy="581.353" r="21" fill="#00a0a6" fill-rule="evenodd" fill-opacity="1" stroke="#000000" stroke-opacity="1" stroke-width="0"/>
<circle clip-path="url(#clip602)" cx="1214.54" cy="712.402" r="21" fill="#00a48b" fill-rule="evenodd" fill-opacity="1" stroke="#000000" stroke-opacity="1" stroke-width="0"/>
<circle clip-path="url(#clip602)" cx="1217.01" cy="773.326" r="21" fill="#00a77e" fill-rule="evenodd" fill-opacity="1" stroke="#000000" stroke-opacity="1" stroke-width="0"/>
<circle clip-path="url(#clip602)" cx="1219.36" cy="831.464" r="21" fill="#00a972" fill-rule="evenodd" fill-opacity="1" stroke="#000000" stroke-opacity="1" stroke-width="0"/>
<circle clip-path="url(#clip602)" cx="1223.77" cy="940.113" r="21" fill="#00ac5b" fill-rule="evenodd" fill-opacity="1" stroke="#000000" stroke-opacity="1" stroke-width="0"/>
<circle clip-path="url(#clip602)" cx="1230.55" cy="1107.4" r="21" fill="#00b238" fill-rule="evenodd" fill-opacity="1" stroke="#000000" stroke-opacity="1" stroke-width="0"/>
<circle clip-path="url(#clip602)" cx="1236.27" cy="1248.54" r="21" fill="#00b71a" fill-rule="evenodd" fill-opacity="1" stroke="#000000" stroke-opacity="1" stroke-width="0"/>
<circle clip-path="url(#clip602)" cx="1245.91" cy="1377.25" r="21" fill="#05ba00" fill-rule="evenodd" fill-opacity="1" stroke="#000000" stroke-opacity="1" stroke-width="0"/>
<circle clip-path="url(#clip602)" cx="1320.06" cy="1380.76" r="21" fill="#619d00" fill-rule="evenodd" fill-opacity="1" stroke="#000000" stroke-opacity="1" stroke-width="0"/>
<circle clip-path="url(#clip602)" cx="1373.43" cy="1383.28" r="21" fill="#a28900" fill-rule="evenodd" fill-opacity="1" stroke="#000000" stroke-opacity="1" stroke-width="0"/>
<circle clip-path="url(#clip602)" cx="1439.23" cy="1386.4" r="21" fill="#f47000" fill-rule="evenodd" fill-opacity="1" stroke="#000000" stroke-opacity="1" stroke-width="0"/>
<circle clip-path="url(#clip602)" cx="1441.48" cy="1226.48" r="21" fill="#ff6721" fill-rule="evenodd" fill-opacity="1" stroke="#000000" stroke-opacity="1" stroke-width="0"/>
<circle clip-path="url(#clip602)" cx="1436.03" cy="1091.95" r="21" fill="#ff623d" fill-rule="evenodd" fill-opacity="1" stroke="#000000" stroke-opacity="1" stroke-width="0"/>
<circle clip-path="url(#clip602)" cx="1430.9" cy="965.299" r="21" fill="#ff5e58" fill-rule="evenodd" fill-opacity="1" stroke="#000000" stroke-opacity="1" stroke-width="0"/>
<circle clip-path="url(#clip602)" cx="1425.58" cy="834.25" r="21" fill="#ff5a73" fill-rule="evenodd" fill-opacity="1" stroke="#000000" stroke-opacity="1" stroke-width="0"/>
</svg>
