<?xml version="1.0" encoding="utf-8"?>
<svg xmlns="http://www.w3.org/2000/svg" xmlns:xlink="http://www.w3.org/1999/xlink" width="600" height="400" viewBox="0 0 2400 1600">
<defs>
  <clipPath id="clip650">
    <rect x="0" y="0" width="2400" height="1600"/>
  </clipPath>
</defs>
<path clip-path="url(#clip650)" d="
M0 1600 L2400 1600 L2400 0 L0 0  Z
  " fill="#ffffff" fill-rule="evenodd" fill-opacity="1"/>
<defs>
  <clipPath id="clip651">
    <rect x="480" y="0" width="1681" height="1600"/>
  </clipPath>
</defs>
<path clip-path="url(#clip650)" d="
M257.204 1423.18 L2352.76 1423.18 L2352.76 123.472 L257.204 123.472  Z
  " fill="#ffffff" fill-rule="evenodd" fill-opacity="1"/>
<defs>
  <clipPath id="clip652">
    <rect x="257" y="123" width="2097" height="1301"/>
  </clipPath>
</defs>
<polyline clip-path="url(#clip652)" style="stroke:#000000; stroke-width:2; stroke-opacity:0.1; fill:none" points="
  385.375,1423.18 385.375,123.472 
  "/>
<polyline clip-path="url(#clip652)" style="stroke:#000000; stroke-width:2; stroke-opacity:0.1; fill:none" points="
  691.91,1423.18 691.91,123.472 
  "/>
<polyline clip-path="url(#clip652)" style="stroke:#000000; stroke-width:2; stroke-opacity:0.1; fill:none" points="
  998.445,1423.18 998.445,123.472 
  "/>
<polyline clip-path="url(#clip652)" style="stroke:#000000; stroke-width:2; stroke-opacity:0.1; fill:none" points="
  1304.98,1423.18 1304.98,123.472 
  "/>
<polyline clip-path="url(#clip652)" style="stroke:#000000; stroke-width:2; stroke-opacity:0.1; fill:none" points="
  1611.51,1423.18 1611.51,123.472 
  "/>
<polyline clip-path="url(#clip652)" style="stroke:#000000; stroke-width:2; stroke-opacity:0.1; fill:none" points="
  1918.05,1423.18 1918.05,123.472 
  "/>
<polyline clip-path="url(#clip652)" style="stroke:#000000; stroke-width:2; stroke-opacity:0.1; fill:none" points="
  2224.58,1423.18 2224.58,123.472 
  "/>
<polyline clip-path="url(#clip650)" style="stroke:#000000; stroke-width:4; stroke-opacity:1; fill:none" points="
  257.204,1423.18 2352.76,1423.18 
  "/>
<polyline clip-path="url(#clip650)" style="stroke:#000000; stroke-width:4; stroke-opacity:1; fill:none" points="
  385.375,1423.18 385.375,1407.58 
  "/>
<polyline clip-path="url(#clip650)" style="stroke:#000000; stroke-width:4; stroke-opacity:1; fill:none" points="
  691.91,1423.18 691.91,1407.58 
  "/>
<polyline clip-path="url(#clip650)" style="stroke:#000000; stroke-width:4; stroke-opacity:1; fill:none" points="
  998.445,1423.18 998.445,1407.58 
  "/>
<polyline clip-path="url(#clip650)" style="stroke:#000000; stroke-width:4; stroke-opacity:1; fill:none" points="
  1304.98,1423.18 1304.98,1407.58 
  "/>
<polyline clip-path="url(#clip650)" style="stroke:#000000; stroke-width:4; stroke-opacity:1; fill:none" points="
  1611.51,1423.18 1611.51,1407.58 
  "/>
<polyline clip-path="url(#clip650)" style="stroke:#000000; stroke-width:4; stroke-opacity:1; fill:none" points="
  1918.05,1423.18 1918.05,1407.58 
  "/>
<polyline clip-path="url(#clip650)" style="stroke:#000000; stroke-width:4; stroke-opacity:1; fill:none" points="
  2224.58,1423.18 2224.58,1407.58 
  "/>
<path clip-path="url(#clip650)" d="M 0 0 M332.401 1467.02 L362.077 1467.02 L362.077 1470.96 L332.401 1470.96 L332.401 1467.02 Z" fill="#000000" fill-rule="evenodd" fill-opacity="1" /><path clip-path="url(#clip650)" d="M 0 0 M372.98 1479.92 L380.619 1479.92 L380.619 1453.55 L372.308 1455.22 L372.308 1450.96 L380.572 1449.29 L385.248 1449.29 L385.248 1479.92 L392.887 1479.92 L392.887 1483.85 L372.98 1483.85 L372.98 1479.92 Z" fill="#000000" fill-rule="evenodd" fill-opacity="1" /><path clip-path="url(#clip650)" d="M 0 0 M402.331 1477.97 L407.216 1477.97 L407.216 1483.85 L402.331 1483.85 L402.331 1477.97 Z" fill="#000000" fill-rule="evenodd" fill-opacity="1" /><path clip-path="url(#clip650)" d="M 0 0 M417.447 1449.29 L435.803 1449.29 L435.803 1453.23 L421.729 1453.23 L421.729 1461.7 Q422.748 1461.35 423.766 1461.19 Q424.785 1461 425.803 1461 Q431.59 1461 434.97 1464.18 Q438.35 1467.35 438.35 1472.76 Q438.35 1478.34 434.878 1481.44 Q431.405 1484.52 425.086 1484.52 Q422.91 1484.52 420.641 1484.15 Q418.396 1483.78 415.989 1483.04 L415.989 1478.34 Q418.072 1479.48 420.294 1480.03 Q422.516 1480.59 424.993 1480.59 Q428.998 1480.59 431.336 1478.48 Q433.674 1476.38 433.674 1472.76 Q433.674 1469.15 431.336 1467.05 Q428.998 1464.94 424.993 1464.94 Q423.118 1464.94 421.243 1465.36 Q419.391 1465.77 417.447 1466.65 L417.447 1449.29 Z" fill="#000000" fill-rule="evenodd" fill-opacity="1" /><path clip-path="url(#clip650)" d="M 0 0 M638.438 1467.02 L668.114 1467.02 L668.114 1470.96 L638.438 1470.96 L638.438 1467.02 Z" fill="#000000" fill-rule="evenodd" fill-opacity="1" /><path clip-path="url(#clip650)" d="M 0 0 M679.017 1479.92 L686.656 1479.92 L686.656 1453.55 L678.346 1455.22 L678.346 1450.96 L686.609 1449.29 L691.285 1449.29 L691.285 1479.92 L698.924 1479.92 L698.924 1483.85 L679.017 1483.85 L679.017 1479.92 Z" fill="#000000" fill-rule="evenodd" fill-opacity="1" /><path clip-path="url(#clip650)" d="M 0 0 M708.369 1477.97 L713.253 1477.97 L713.253 1483.85 L708.369 1483.85 L708.369 1477.97 Z" fill="#000000" fill-rule="evenodd" fill-opacity="1" /><path clip-path="url(#clip650)" d="M 0 0 M733.438 1452.37 Q729.827 1452.37 727.998 1455.94 Q726.193 1459.48 726.193 1466.61 Q726.193 1473.71 727.998 1477.28 Q729.827 1480.82 733.438 1480.82 Q737.072 1480.82 738.878 1477.28 Q740.706 1473.71 740.706 1466.61 Q740.706 1459.48 738.878 1455.94 Q737.072 1452.37 733.438 1452.37 M733.438 1448.67 Q739.248 1448.67 742.304 1453.27 Q745.382 1457.86 745.382 1466.61 Q745.382 1475.33 742.304 1479.94 Q739.248 1484.52 733.438 1484.52 Q727.628 1484.52 724.549 1479.94 Q721.493 1475.33 721.493 1466.61 Q721.493 1457.86 724.549 1453.27 Q727.628 1448.67 733.438 1448.67 Z" fill="#000000" fill-rule="evenodd" fill-opacity="1" /><path clip-path="url(#clip650)" d="M 0 0 M945.471 1467.02 L975.147 1467.02 L975.147 1470.96 L945.471 1470.96 L945.471 1467.02 Z" fill="#000000" fill-rule="evenodd" fill-opacity="1" /><path clip-path="url(#clip650)" d="M 0 0 M995.239 1452.37 Q991.628 1452.37 989.799 1455.94 Q987.994 1459.48 987.994 1466.61 Q987.994 1473.71 989.799 1477.28 Q991.628 1480.82 995.239 1480.82 Q998.873 1480.82 1000.68 1477.28 Q1002.51 1473.71 1002.51 1466.61 Q1002.51 1459.48 1000.68 1455.94 Q998.873 1452.37 995.239 1452.37 M995.239 1448.67 Q1001.05 1448.67 1004.1 1453.27 Q1007.18 1457.86 1007.18 1466.61 Q1007.18 1475.33 1004.1 1479.94 Q1001.05 1484.52 995.239 1484.52 Q989.429 1484.52 986.35 1479.94 Q983.295 1475.33 983.295 1466.61 Q983.295 1457.86 986.35 1453.27 Q989.429 1448.67 995.239 1448.67 Z" fill="#000000" fill-rule="evenodd" fill-opacity="1" /><path clip-path="url(#clip650)" d="M 0 0 M1015.4 1477.97 L1020.29 1477.97 L1020.29 1483.85 L1015.4 1483.85 L1015.4 1477.97 Z" fill="#000000" fill-rule="evenodd" fill-opacity="1" /><path clip-path="url(#clip650)" d="M 0 0 M1030.52 1449.29 L1048.87 1449.29 L1048.87 1453.23 L1034.8 1453.23 L1034.8 1461.7 Q1035.82 1461.35 1036.84 1461.19 Q1037.85 1461 1038.87 1461 Q1044.66 1461 1048.04 1464.18 Q1051.42 1467.35 1051.42 1472.76 Q1051.42 1478.34 1047.95 1481.44 Q1044.47 1484.52 1038.16 1484.52 Q1035.98 1484.52 1033.71 1484.15 Q1031.47 1483.78 1029.06 1483.04 L1029.06 1478.34 Q1031.14 1479.48 1033.36 1480.03 Q1035.59 1480.59 1038.06 1480.59 Q1042.07 1480.59 1044.41 1478.48 Q1046.74 1476.38 1046.74 1472.76 Q1046.74 1469.15 1044.41 1467.05 Q1042.07 1464.94 1038.06 1464.94 Q1036.19 1464.94 1034.31 1465.36 Q1032.46 1465.77 1030.52 1466.65 L1030.52 1449.29 Z" fill="#000000" fill-rule="evenodd" fill-opacity="1" /><path clip-path="url(#clip650)" d="M 0 0 M1282.36 1452.37 Q1278.75 1452.37 1276.92 1455.94 Q1275.12 1459.48 1275.12 1466.61 Q1275.12 1473.71 1276.92 1477.28 Q1278.75 1480.82 1282.36 1480.82 Q1286 1480.82 1287.8 1477.28 Q1289.63 1473.71 1289.63 1466.61 Q1289.63 1459.48 1287.8 1455.94 Q1286 1452.37 1282.36 1452.37 M1282.36 1448.67 Q1288.17 1448.67 1291.23 1453.27 Q1294.31 1457.86 1294.31 1466.61 Q1294.31 1475.33 1291.23 1479.94 Q1288.17 1484.52 1282.36 1484.52 Q1276.55 1484.52 1273.48 1479.94 Q1270.42 1475.33 1270.42 1466.61 Q1270.42 1457.86 1273.48 1453.27 Q1276.55 1448.67 1282.36 1448.67 Z" fill="#000000" fill-rule="evenodd" fill-opacity="1" /><path clip-path="url(#clip650)" d="M 0 0 M1302.53 1477.97 L1307.41 1477.97 L1307.41 1483.85 L1302.53 1483.85 L1302.53 1477.97 Z" fill="#000000" fill-rule="evenodd" fill-opacity="1" /><path clip-path="url(#clip650)" d="M 0 0 M1327.6 1452.37 Q1323.98 1452.37 1322.16 1455.94 Q1320.35 1459.48 1320.35 1466.61 Q1320.35 1473.71 1322.16 1477.28 Q1323.98 1480.82 1327.6 1480.82 Q1331.23 1480.82 1333.04 1477.28 Q1334.86 1473.71 1334.86 1466.61 Q1334.86 1459.48 1333.04 1455.94 Q1331.23 1452.37 1327.6 1452.37 M1327.6 1448.67 Q1333.41 1448.67 1336.46 1453.27 Q1339.54 1457.86 1339.54 1466.61 Q1339.54 1475.33 1336.46 1479.94 Q1333.41 1484.52 1327.6 1484.52 Q1321.79 1484.52 1318.71 1479.94 Q1315.65 1475.33 1315.65 1466.61 Q1315.65 1457.86 1318.71 1453.27 Q1321.79 1448.67 1327.6 1448.67 Z" fill="#000000" fill-rule="evenodd" fill-opacity="1" /><path clip-path="url(#clip650)" d="M 0 0 M1589.4 1452.37 Q1585.79 1452.37 1583.96 1455.94 Q1582.15 1459.48 1582.15 1466.61 Q1582.15 1473.71 1583.96 1477.28 Q1585.79 1480.82 1589.4 1480.82 Q1593.03 1480.82 1594.84 1477.28 Q1596.67 1473.71 1596.67 1466.61 Q1596.67 1459.48 1594.84 1455.94 Q1593.03 1452.37 1589.4 1452.37 M1589.4 1448.67 Q1595.21 1448.67 1598.26 1453.27 Q1601.34 1457.86 1601.34 1466.61 Q1601.34 1475.33 1598.26 1479.94 Q1595.21 1484.52 1589.4 1484.52 Q1583.59 1484.52 1580.51 1479.94 Q1577.45 1475.33 1577.45 1466.61 Q1577.45 1457.86 1580.51 1453.27 Q1583.59 1448.67 1589.4 1448.67 Z" fill="#000000" fill-rule="evenodd" fill-opacity="1" /><path clip-path="url(#clip650)" d="M 0 0 M1609.56 1477.97 L1614.44 1477.97 L1614.44 1483.85 L1609.56 1483.85 L1609.56 1477.97 Z" fill="#000000" fill-rule="evenodd" fill-opacity="1" /><path clip-path="url(#clip650)" d="M 0 0 M1624.67 1449.29 L1643.03 1449.29 L1643.03 1453.23 L1628.96 1453.23 L1628.96 1461.7 Q1629.98 1461.35 1630.99 1461.19 Q1632.01 1461 1633.03 1461 Q1638.82 1461 1642.2 1464.18 Q1645.58 1467.35 1645.58 1472.76 Q1645.58 1478.34 1642.1 1481.44 Q1638.63 1484.52 1632.31 1484.52 Q1630.14 1484.52 1627.87 1484.15 Q1625.62 1483.78 1623.22 1483.04 L1623.22 1478.34 Q1625.3 1479.48 1627.52 1480.03 Q1629.74 1480.59 1632.22 1480.59 Q1636.23 1480.59 1638.56 1478.48 Q1640.9 1476.38 1640.9 1472.76 Q1640.9 1469.15 1638.56 1467.05 Q1636.23 1464.94 1632.22 1464.94 Q1630.35 1464.94 1628.47 1465.36 Q1626.62 1465.77 1624.67 1466.65 L1624.67 1449.29 Z" fill="#000000" fill-rule="evenodd" fill-opacity="1" /><path clip-path="url(#clip650)" d="M 0 0 M1885.2 1479.92 L1892.84 1479.92 L1892.84 1453.55 L1884.53 1455.22 L1884.53 1450.96 L1892.8 1449.29 L1897.47 1449.29 L1897.47 1479.92 L1905.11 1479.92 L1905.11 1483.85 L1885.2 1483.85 L1885.2 1479.92 Z" fill="#000000" fill-rule="evenodd" fill-opacity="1" /><path clip-path="url(#clip650)" d="M 0 0 M1914.55 1477.97 L1919.44 1477.97 L1919.44 1483.85 L1914.55 1483.85 L1914.55 1477.97 Z" fill="#000000" fill-rule="evenodd" fill-opacity="1" /><path clip-path="url(#clip650)" d="M 0 0 M1939.62 1452.37 Q1936.01 1452.37 1934.18 1455.94 Q1932.38 1459.48 1932.38 1466.61 Q1932.38 1473.71 1934.18 1477.28 Q1936.01 1480.82 1939.62 1480.82 Q1943.26 1480.82 1945.06 1477.28 Q1946.89 1473.71 1946.89 1466.61 Q1946.89 1459.48 1945.06 1455.94 Q1943.26 1452.37 1939.62 1452.37 M1939.62 1448.67 Q1945.43 1448.67 1948.49 1453.27 Q1951.57 1457.86 1951.57 1466.61 Q1951.57 1475.33 1948.49 1479.94 Q1945.43 1484.52 1939.62 1484.52 Q1933.81 1484.52 1930.73 1479.94 Q1927.68 1475.33 1927.68 1466.61 Q1927.68 1457.86 1930.73 1453.27 Q1933.81 1448.67 1939.62 1448.67 Z" fill="#000000" fill-rule="evenodd" fill-opacity="1" /><path clip-path="url(#clip650)" d="M 0 0 M2192.24 1479.92 L2199.87 1479.92 L2199.87 1453.55 L2191.56 1455.22 L2191.56 1450.96 L2199.83 1449.29 L2204.5 1449.29 L2204.5 1479.92 L2212.14 1479.92 L2212.14 1483.85 L2192.24 1483.85 L2192.24 1479.92 Z" fill="#000000" fill-rule="evenodd" fill-opacity="1" /><path clip-path="url(#clip650)" d="M 0 0 M2221.59 1477.97 L2226.47 1477.97 L2226.47 1483.85 L2221.59 1483.85 L2221.59 1477.97 Z" fill="#000000" fill-rule="evenodd" fill-opacity="1" /><path clip-path="url(#clip650)" d="M 0 0 M2236.7 1449.29 L2255.06 1449.29 L2255.06 1453.23 L2240.98 1453.23 L2240.98 1461.7 Q2242 1461.35 2243.02 1461.19 Q2244.04 1461 2245.06 1461 Q2250.85 1461 2254.23 1464.18 Q2257.61 1467.35 2257.61 1472.76 Q2257.61 1478.34 2254.13 1481.44 Q2250.66 1484.52 2244.34 1484.52 Q2242.17 1484.52 2239.9 1484.15 Q2237.65 1483.78 2235.24 1483.04 L2235.24 1478.34 Q2237.33 1479.48 2239.55 1480.03 Q2241.77 1480.59 2244.25 1480.59 Q2248.25 1480.59 2250.59 1478.48 Q2252.93 1476.38 2252.93 1472.76 Q2252.93 1469.15 2250.59 1467.05 Q2248.25 1464.94 2244.25 1464.94 Q2242.37 1464.94 2240.5 1465.36 Q2238.65 1465.77 2236.7 1466.65 L2236.7 1449.29 Z" fill="#000000" fill-rule="evenodd" fill-opacity="1" /><path clip-path="url(#clip650)" d="M 0 0 M1318.84 1522.08 L1318.84 1528.35 Q1315.18 1526.6 1311.93 1525.74 Q1308.69 1524.88 1305.66 1524.88 Q1300.41 1524.88 1297.55 1526.92 Q1294.72 1528.96 1294.72 1532.71 Q1294.72 1535.87 1296.59 1537.49 Q1298.5 1539.08 1303.79 1540.07 L1307.67 1540.86 Q1314.86 1542.23 1318.27 1545.7 Q1321.71 1549.14 1321.71 1554.93 Q1321.71 1561.84 1317.06 1565.4 Q1312.44 1568.97 1303.5 1568.97 Q1300.13 1568.97 1296.31 1568.2 Q1292.52 1567.44 1288.45 1565.94 L1288.45 1559.32 Q1292.36 1561.52 1296.12 1562.63 Q1299.87 1563.75 1303.5 1563.75 Q1309.01 1563.75 1312 1561.58 Q1314.99 1559.42 1314.99 1555.41 Q1314.99 1551.91 1312.83 1549.93 Q1310.69 1547.96 1305.79 1546.97 L1301.88 1546.21 Q1294.68 1544.78 1291.47 1541.72 Q1288.25 1538.67 1288.25 1533.22 Q1288.25 1526.92 1292.68 1523.29 Q1297.13 1519.66 1304.93 1519.66 Q1308.27 1519.66 1311.74 1520.27 Q1315.21 1520.87 1318.84 1522.08 Z" fill="#000000" fill-rule="evenodd" fill-opacity="1" /><polyline clip-path="url(#clip652)" style="stroke:#000000; stroke-width:2; stroke-opacity:0.1; fill:none" points="
  257.204,1386.4 2352.76,1386.4 
  "/>
<polyline clip-path="url(#clip652)" style="stroke:#000000; stroke-width:2; stroke-opacity:0.1; fill:none" points="
  257.204,1079.86 2352.76,1079.86 
  "/>
<polyline clip-path="url(#clip652)" style="stroke:#000000; stroke-width:2; stroke-opacity:0.1; fill:none" points="
  257.204,773.326 2352.76,773.326 
  "/>
<polyline clip-path="url(#clip652)" style="stroke:#000000; stroke-width:2; stroke-opacity:0.1; fill:none" points="
  257.204,466.791 2352.76,466.791 
  "/>
<polyline clip-path="url(#clip652)" style="stroke:#000000; stroke-width:2; stroke-opacity:0.1; fill:none" points="
  257.204,160.256 2352.76,160.256 
  "/>
<polyline clip-path="url(#clip650)" style="stroke:#000000; stroke-width:4; stroke-opacity:1; fill:none" points="
  257.204,1423.18 257.204,123.472 
  "/>
<polyline clip-path="url(#clip650)" style="stroke:#000000; stroke-width:4; stroke-opacity:1; fill:none" points="
  257.204,1386.4 282.351,1386.4 
  "/>
<polyline clip-path="url(#clip650)" style="stroke:#000000; stroke-width:4; stroke-opacity:1; fill:none" points="
  257.204,1079.86 282.351,1079.86 
  "/>
<polyline clip-path="url(#clip650)" style="stroke:#000000; stroke-width:4; stroke-opacity:1; fill:none" points="
  257.204,773.326 282.351,773.326 
  "/>
<polyline clip-path="url(#clip650)" style="stroke:#000000; stroke-width:4; stroke-opacity:1; fill:none" points="
  257.204,466.791 282.351,466.791 
  "/>
<polyline clip-path="url(#clip650)" style="stroke:#000000; stroke-width:4; stroke-opacity:1; fill:none" points="
  257.204,160.256 282.351,160.256 
  "/>
<path clip-path="url(#clip650)" d="M 0 0 M114.26 1386.85 L143.936 1386.85 L143.936 1390.78 L114.26 1390.78 L114.26 1386.85 Z" fill="#000000" fill-rule="evenodd" fill-opacity="1" /><path clip-path="url(#clip650)" d="M 0 0 M154.839 1399.74 L162.477 1399.74 L162.477 1373.37 L154.167 1375.04 L154.167 1370.78 L162.431 1369.12 L167.107 1369.12 L167.107 1399.74 L174.746 1399.74 L174.746 1403.68 L154.839 1403.68 L154.839 1399.74 Z" fill="#000000" fill-rule="evenodd" fill-opacity="1" /><path clip-path="url(#clip650)" d="M 0 0 M184.19 1397.8 L189.075 1397.8 L189.075 1403.68 L184.19 1403.68 L184.19 1397.8 Z" fill="#000000" fill-rule="evenodd" fill-opacity="1" /><path clip-path="url(#clip650)" d="M 0 0 M209.26 1372.19 Q205.649 1372.19 203.82 1375.76 Q202.014 1379.3 202.014 1386.43 Q202.014 1393.54 203.82 1397.1 Q205.649 1400.64 209.26 1400.64 Q212.894 1400.64 214.699 1397.1 Q216.528 1393.54 216.528 1386.43 Q216.528 1379.3 214.699 1375.76 Q212.894 1372.19 209.26 1372.19 M209.26 1368.49 Q215.07 1368.49 218.125 1373.1 Q221.204 1377.68 221.204 1386.43 Q221.204 1395.16 218.125 1399.76 Q215.07 1404.35 209.26 1404.35 Q203.449 1404.35 200.371 1399.76 Q197.315 1395.16 197.315 1386.43 Q197.315 1377.68 200.371 1373.1 Q203.449 1368.49 209.26 1368.49 Z" fill="#000000" fill-rule="evenodd" fill-opacity="1" /><path clip-path="url(#clip650)" d="M 0 0 M115.256 1080.31 L144.931 1080.31 L144.931 1084.25 L115.256 1084.25 L115.256 1080.31 Z" fill="#000000" fill-rule="evenodd" fill-opacity="1" /><path clip-path="url(#clip650)" d="M 0 0 M165.024 1065.66 Q161.413 1065.66 159.584 1069.22 Q157.778 1072.77 157.778 1079.9 Q157.778 1087 159.584 1090.57 Q161.413 1094.11 165.024 1094.11 Q168.658 1094.11 170.464 1090.57 Q172.292 1087 172.292 1079.9 Q172.292 1072.77 170.464 1069.22 Q168.658 1065.66 165.024 1065.66 M165.024 1061.96 Q170.834 1061.96 173.889 1066.56 Q176.968 1071.15 176.968 1079.9 Q176.968 1088.62 173.889 1093.23 Q170.834 1097.81 165.024 1097.81 Q159.214 1097.81 156.135 1093.23 Q153.079 1088.62 153.079 1079.9 Q153.079 1071.15 156.135 1066.56 Q159.214 1061.96 165.024 1061.96 Z" fill="#000000" fill-rule="evenodd" fill-opacity="1" /><path clip-path="url(#clip650)" d="M 0 0 M185.186 1091.26 L190.07 1091.26 L190.07 1097.14 L185.186 1097.14 L185.186 1091.26 Z" fill="#000000" fill-rule="evenodd" fill-opacity="1" /><path clip-path="url(#clip650)" d="M 0 0 M200.301 1062.58 L218.658 1062.58 L218.658 1066.52 L204.584 1066.52 L204.584 1074.99 Q205.602 1074.64 206.621 1074.48 Q207.639 1074.29 208.658 1074.29 Q214.445 1074.29 217.824 1077.47 Q221.204 1080.64 221.204 1086.05 Q221.204 1091.63 217.732 1094.73 Q214.26 1097.81 207.94 1097.81 Q205.764 1097.81 203.496 1097.44 Q201.25 1097.07 198.843 1096.33 L198.843 1091.63 Q200.926 1092.77 203.149 1093.32 Q205.371 1093.88 207.848 1093.88 Q211.852 1093.88 214.19 1091.77 Q216.528 1089.66 216.528 1086.05 Q216.528 1082.44 214.19 1080.34 Q211.852 1078.23 207.848 1078.23 Q205.973 1078.23 204.098 1078.65 Q202.246 1079.06 200.301 1079.94 L200.301 1062.58 Z" fill="#000000" fill-rule="evenodd" fill-opacity="1" /><path clip-path="url(#clip650)" d="M 0 0 M164.028 759.125 Q160.417 759.125 158.589 762.689 Q156.783 766.231 156.783 773.361 Q156.783 780.467 158.589 784.032 Q160.417 787.574 164.028 787.574 Q167.663 787.574 169.468 784.032 Q171.297 780.467 171.297 773.361 Q171.297 766.231 169.468 762.689 Q167.663 759.125 164.028 759.125 M164.028 755.421 Q169.839 755.421 172.894 760.027 Q175.973 764.611 175.973 773.361 Q175.973 782.088 172.894 786.694 Q169.839 791.277 164.028 791.277 Q158.218 791.277 155.14 786.694 Q152.084 782.088 152.084 773.361 Q152.084 764.611 155.14 760.027 Q158.218 755.421 164.028 755.421 Z" fill="#000000" fill-rule="evenodd" fill-opacity="1" /><path clip-path="url(#clip650)" d="M 0 0 M184.19 784.726 L189.075 784.726 L189.075 790.606 L184.19 790.606 L184.19 784.726 Z" fill="#000000" fill-rule="evenodd" fill-opacity="1" /><path clip-path="url(#clip650)" d="M 0 0 M209.26 759.125 Q205.649 759.125 203.82 762.689 Q202.014 766.231 202.014 773.361 Q202.014 780.467 203.82 784.032 Q205.649 787.574 209.26 787.574 Q212.894 787.574 214.699 784.032 Q216.528 780.467 216.528 773.361 Q216.528 766.231 214.699 762.689 Q212.894 759.125 209.26 759.125 M209.26 755.421 Q215.07 755.421 218.125 760.027 Q221.204 764.611 221.204 773.361 Q221.204 782.088 218.125 786.694 Q215.07 791.277 209.26 791.277 Q203.449 791.277 200.371 786.694 Q197.315 782.088 197.315 773.361 Q197.315 764.611 200.371 760.027 Q203.449 755.421 209.26 755.421 Z" fill="#000000" fill-rule="evenodd" fill-opacity="1" /><path clip-path="url(#clip650)" d="M 0 0 M165.024 452.59 Q161.413 452.59 159.584 456.155 Q157.778 459.696 157.778 466.826 Q157.778 473.932 159.584 477.497 Q161.413 481.039 165.024 481.039 Q168.658 481.039 170.464 477.497 Q172.292 473.932 172.292 466.826 Q172.292 459.696 170.464 456.155 Q168.658 452.59 165.024 452.59 M165.024 448.886 Q170.834 448.886 173.889 453.493 Q176.968 458.076 176.968 466.826 Q176.968 475.553 173.889 480.159 Q170.834 484.742 165.024 484.742 Q159.214 484.742 156.135 480.159 Q153.079 475.553 153.079 466.826 Q153.079 458.076 156.135 453.493 Q159.214 448.886 165.024 448.886 Z" fill="#000000" fill-rule="evenodd" fill-opacity="1" /><path clip-path="url(#clip650)" d="M 0 0 M185.186 478.192 L190.07 478.192 L190.07 484.071 L185.186 484.071 L185.186 478.192 Z" fill="#000000" fill-rule="evenodd" fill-opacity="1" /><path clip-path="url(#clip650)" d="M 0 0 M200.301 449.511 L218.658 449.511 L218.658 453.446 L204.584 453.446 L204.584 461.918 Q205.602 461.571 206.621 461.409 Q207.639 461.224 208.658 461.224 Q214.445 461.224 217.824 464.395 Q221.204 467.567 221.204 472.983 Q221.204 478.562 217.732 481.664 Q214.26 484.742 207.94 484.742 Q205.764 484.742 203.496 484.372 Q201.25 484.002 198.843 483.261 L198.843 478.562 Q200.926 479.696 203.149 480.252 Q205.371 480.807 207.848 480.807 Q211.852 480.807 214.19 478.701 Q216.528 476.594 216.528 472.983 Q216.528 469.372 214.19 467.266 Q211.852 465.159 207.848 465.159 Q205.973 465.159 204.098 465.576 Q202.246 465.993 200.301 466.872 L200.301 449.511 Z" fill="#000000" fill-rule="evenodd" fill-opacity="1" /><path clip-path="url(#clip650)" d="M 0 0 M154.839 173.601 L162.477 173.601 L162.477 147.236 L154.167 148.902 L154.167 144.643 L162.431 142.976 L167.107 142.976 L167.107 173.601 L174.746 173.601 L174.746 177.536 L154.839 177.536 L154.839 173.601 Z" fill="#000000" fill-rule="evenodd" fill-opacity="1" /><path clip-path="url(#clip650)" d="M 0 0 M184.19 171.657 L189.075 171.657 L189.075 177.536 L184.19 177.536 L184.19 171.657 Z" fill="#000000" fill-rule="evenodd" fill-opacity="1" /><path clip-path="url(#clip650)" d="M 0 0 M209.26 146.055 Q205.649 146.055 203.82 149.62 Q202.014 153.161 202.014 160.291 Q202.014 167.397 203.82 170.962 Q205.649 174.504 209.26 174.504 Q212.894 174.504 214.699 170.962 Q216.528 167.397 216.528 160.291 Q216.528 153.161 214.699 149.62 Q212.894 146.055 209.26 146.055 M209.26 142.351 Q215.07 142.351 218.125 146.958 Q221.204 151.541 221.204 160.291 Q221.204 169.018 218.125 173.624 Q215.07 178.208 209.26 178.208 Q203.449 178.208 200.371 173.624 Q197.315 169.018 197.315 160.291 Q197.315 151.541 200.371 146.958 Q203.449 142.351 209.26 142.351 Z" fill="#000000" fill-rule="evenodd" fill-opacity="1" /><path clip-path="url(#clip650)" d="M 0 0 M18.0438 759.465 L24.314 759.465 Q22.5634 763.125 21.704 766.371 Q20.8447 769.618 20.8447 772.642 Q20.8447 777.893 22.8817 780.758 Q24.9187 783.591 28.6745 783.591 Q31.8255 783.591 33.4488 781.713 Q35.0402 779.803 36.0269 774.52 L36.8226 770.636 Q38.1912 763.443 41.6605 760.038 Q45.098 756.6 50.8908 756.6 Q57.7976 756.6 61.3624 761.247 Q64.9272 765.862 64.9272 774.806 Q64.9272 778.18 64.1633 781.999 Q63.3994 785.787 61.9035 789.861 L55.2831 789.861 Q57.4793 785.946 58.5933 782.19 Q59.7073 778.434 59.7073 774.806 Q59.7073 769.3 57.543 766.308 Q55.3786 763.316 51.3682 763.316 Q47.8671 763.316 45.8937 765.48 Q43.9204 767.613 42.9337 772.514 L42.1698 776.429 Q40.7375 783.623 37.682 786.837 Q34.6264 790.052 29.1837 790.052 Q22.8817 790.052 19.2532 785.628 Q15.6248 781.172 15.6248 773.374 Q15.6248 770.032 16.2295 766.562 Q16.8343 763.093 18.0438 759.465 Z" fill="#000000" fill-rule="evenodd" fill-opacity="1" /><path clip-path="url(#clip650)" d="M 0 0 M988.928 12.096 L997.111 12.096 L997.111 36.8875 L1026.84 36.8875 L1026.84 12.096 L1035.03 12.096 L1035.03 72.576 L1026.84 72.576 L1026.84 43.7741 L997.111 43.7741 L997.111 72.576 L988.928 72.576 L988.928 12.096 Z" fill="#000000" fill-rule="evenodd" fill-opacity="1" /><path clip-path="url(#clip650)" d="M 0 0 M1087.57 14.0809 L1087.57 22.0612 Q1082.91 19.8332 1078.78 18.7395 Q1074.65 17.6457 1070.8 17.6457 Q1064.11 17.6457 1060.47 20.2383 Q1056.86 22.8309 1056.86 27.611 Q1056.86 31.6214 1059.25 33.6873 Q1061.68 35.7128 1068.41 36.9686 L1073.35 37.9813 Q1082.5 39.7232 1086.84 44.1387 Q1091.21 48.5136 1091.21 55.8863 Q1091.21 64.6767 1085.3 69.2137 Q1079.43 73.7508 1068.04 73.7508 Q1063.75 73.7508 1058.89 72.7785 Q1054.07 71.8063 1048.88 69.9024 L1048.88 61.4765 Q1053.86 64.2716 1058.64 65.6895 Q1063.42 67.1073 1068.04 67.1073 Q1075.05 67.1073 1078.86 64.3527 Q1082.67 61.598 1082.67 56.4939 Q1082.67 52.0379 1079.91 49.5264 Q1077.2 47.0148 1070.96 45.759 L1065.98 44.7868 Q1056.82 42.9639 1052.73 39.075 Q1048.64 35.1862 1048.64 28.2591 Q1048.64 20.2383 1054.27 15.6203 Q1059.94 11.0023 1069.87 11.0023 Q1074.12 11.0023 1078.53 11.7719 Q1082.95 12.5416 1087.57 14.0809 Z" fill="#000000" fill-rule="evenodd" fill-opacity="1" /><path clip-path="url(#clip650)" d="M 0 0 M1103.97 12.096 L1112.16 12.096 L1112.16 65.6895 L1141.61 65.6895 L1141.61 72.576 L1103.97 72.576 L1103.97 12.096 Z" fill="#000000" fill-rule="evenodd" fill-opacity="1" /><path clip-path="url(#clip650)" d="M 0 0 M1184.34 86.3491 L1184.34 92.1419 L1141.24 92.1419 L1141.24 86.3491 L1184.34 86.3491 Z" fill="#000000" fill-rule="evenodd" fill-opacity="1" /><path clip-path="url(#clip650)" d="M 0 0 M1193.82 65.6895 L1207.19 65.6895 L1207.19 19.5497 L1192.65 22.4663 L1192.65 15.0127 L1207.11 12.096 L1215.29 12.096 L1215.29 65.6895 L1228.66 65.6895 L1228.66 72.576 L1193.82 72.576 L1193.82 65.6895 Z" fill="#000000" fill-rule="evenodd" fill-opacity="1" /><path clip-path="url(#clip650)" d="M 0 0 M1252.24 65.6895 L1280.8 65.6895 L1280.8 72.576 L1242.39 72.576 L1242.39 65.6895 Q1247.05 60.8689 1255.07 52.7671 Q1263.13 44.6248 1265.2 42.2752 Q1269.13 37.8598 1270.67 34.8216 Q1272.25 31.7429 1272.25 28.7857 Q1272.25 23.9651 1268.85 20.927 Q1265.48 17.8888 1260.06 17.8888 Q1256.21 17.8888 1251.91 19.2256 Q1247.66 20.5624 1242.8 23.2765 L1242.8 15.0127 Q1247.74 13.0277 1252.03 12.015 Q1256.33 11.0023 1259.89 11.0023 Q1269.29 11.0023 1274.88 15.7013 Q1280.47 20.4004 1280.47 28.2591 Q1280.47 31.9859 1279.05 35.3482 Q1277.68 38.6699 1273.99 43.2069 Q1272.98 44.3817 1267.55 50.0125 Q1262.12 55.6027 1252.24 65.6895 Z" fill="#000000" fill-rule="evenodd" fill-opacity="1" /><path clip-path="url(#clip650)" d="M 0 0 M1297.24 12.096 L1305.43 12.096 L1305.43 36.8875 L1335.16 36.8875 L1335.16 12.096 L1343.34 12.096 L1343.34 72.576 L1335.16 72.576 L1335.16 43.7741 L1305.43 43.7741 L1305.43 72.576 L1297.24 72.576 L1297.24 12.096 Z" fill="#000000" fill-rule="evenodd" fill-opacity="1" /><path clip-path="url(#clip650)" d="M 0 0 M1358.53 54.671 L1358.53 27.2059 L1365.99 27.2059 L1365.99 54.3874 Q1365.99 60.8284 1368.5 64.0691 Q1371.01 67.2693 1376.03 67.2693 Q1382.07 67.2693 1385.55 63.421 Q1389.08 59.5726 1389.08 52.9291 L1389.08 27.2059 L1396.53 27.2059 L1396.53 72.576 L1389.08 72.576 L1389.08 65.6084 Q1386.36 69.7404 1382.76 71.7658 Q1379.19 73.7508 1374.45 73.7508 Q1366.63 73.7508 1362.58 68.8897 Q1358.53 64.0286 1358.53 54.671 M1377.29 26.1121 L1377.29 26.1121 Z" fill="#000000" fill-rule="evenodd" fill-opacity="1" /><path clip-path="url(#clip650)" d="M 0 0 M1450.69 48.0275 L1450.69 51.6733 L1416.42 51.6733 Q1416.91 59.3701 1421.04 63.421 Q1425.21 67.4314 1432.62 67.4314 Q1436.92 67.4314 1440.93 66.3781 Q1444.98 65.3249 1448.95 63.2184 L1448.95 70.267 Q1444.94 71.9684 1440.73 72.8596 Q1436.51 73.7508 1432.18 73.7508 Q1421.32 73.7508 1414.96 67.4314 Q1408.64 61.1119 1408.64 50.3365 Q1408.64 39.1965 1414.64 32.6746 Q1420.67 26.1121 1430.88 26.1121 Q1440.04 26.1121 1445.34 32.0264 Q1450.69 37.9003 1450.69 48.0275 M1443.24 45.84 Q1443.16 39.7232 1439.79 36.0774 Q1436.47 32.4315 1430.96 32.4315 Q1424.72 32.4315 1420.96 35.9558 Q1417.23 39.4801 1416.66 45.8805 L1443.24 45.84 Z" fill="#000000" fill-rule="evenodd" fill-opacity="1" /><path clip-path="url(#clip650)" d="M 0 0 M1497.4 86.3491 L1497.4 92.1419 L1454.3 92.1419 L1454.3 86.3491 L1497.4 86.3491 Z" fill="#000000" fill-rule="evenodd" fill-opacity="1" /><path clip-path="url(#clip650)" d="M 0 0 M1496.43 12.096 L1505.22 12.096 L1521.99 36.9686 L1538.64 12.096 L1547.43 12.096 L1526.04 43.7741 L1526.04 72.576 L1517.81 72.576 L1517.81 43.7741 L1496.43 12.096 Z" fill="#000000" fill-rule="evenodd" fill-opacity="1" /><path clip-path="url(#clip650)" d="M 0 0 M1590.41 35.9153 Q1593.2 30.8922 1597.09 28.5022 Q1600.98 26.1121 1606.25 26.1121 Q1613.33 26.1121 1617.18 31.0947 Q1621.03 36.0368 1621.03 45.1919 L1621.03 72.576 L1613.54 72.576 L1613.54 45.4349 Q1613.54 38.913 1611.23 35.7533 Q1608.92 32.5936 1604.18 32.5936 Q1598.39 32.5936 1595.02 36.4419 Q1591.66 40.2903 1591.66 46.9338 L1591.66 72.576 L1584.17 72.576 L1584.17 45.4349 Q1584.17 38.8725 1581.86 35.7533 Q1579.55 32.5936 1574.73 32.5936 Q1569.02 32.5936 1565.66 36.4824 Q1562.29 40.3308 1562.29 46.9338 L1562.29 72.576 L1554.8 72.576 L1554.8 27.2059 L1562.29 27.2059 L1562.29 34.2544 Q1564.85 30.082 1568.41 28.0971 Q1571.98 26.1121 1576.88 26.1121 Q1581.82 26.1121 1585.26 28.6237 Q1588.75 31.1352 1590.41 35.9153 Z" fill="#000000" fill-rule="evenodd" fill-opacity="1" /><polyline clip-path="url(#clip652)" style="stroke:#7f7f7f; stroke-width:4; stroke-opacity:0.5; fill:none" points="
  1304.98,773.326 1918.05,773.326 
  "/>
<polyline clip-path="url(#clip652)" style="stroke:#7f7f7f; stroke-width:4; stroke-opacity:0.5; fill:none" points="
  1304.98,773.326 1835.91,466.791 
  "/>
<polyline clip-path="url(#clip652)" style="stroke:#7f7f7f; stroke-width:4; stroke-opacity:0.5; fill:none" points="
  1304.98,773.326 1611.51,242.392 
  "/>
<polyline clip-path="url(#clip652)" style="stroke:#7f7f7f; stroke-width:4; stroke-opacity:0.5; fill:none" points="
  1304.98,773.326 1304.98,160.256 
  "/>
<polyline clip-path="url(#clip652)" style="stroke:#7f7f7f; stroke-width:4; stroke-opacity:0.5; fill:none" points="
  1304.98,773.326 998.445,242.392 
  "/>
<polyline clip-path="url(#clip652)" style="stroke:#7f7f7f; stroke-width:4; stroke-opacity:0.5; fill:none" points="
  1304.98,773.326 774.046,466.791 
  "/>
<polyline clip-path="url(#clip652)" style="stroke:#7f7f7f; stroke-width:4; stroke-opacity:0.5; fill:none" points="
  1304.98,773.326 691.91,773.326 
  "/>
<polyline clip-path="url(#clip652)" style="stroke:#7f7f7f; stroke-width:4; stroke-opacity:0.5; fill:none" points="
  1304.98,773.326 774.046,1079.86 
  "/>
<polyline clip-path="url(#clip652)" style="stroke:#7f7f7f; stroke-width:4; stroke-opacity:0.5; fill:none" points="
  1304.98,773.326 998.445,1304.26 
  "/>
<polyline clip-path="url(#clip652)" style="stroke:#7f7f7f; stroke-width:4; stroke-opacity:0.5; fill:none" points="
  1304.98,773.326 1304.98,1386.4 
  "/>
<polyline clip-path="url(#clip652)" style="stroke:#7f7f7f; stroke-width:4; stroke-opacity:0.5; fill:none" points="
  1304.98,773.326 1611.51,1304.26 
  "/>
<polyline clip-path="url(#clip652)" style="stroke:#7f7f7f; stroke-width:4; stroke-opacity:0.5; fill:none" points="
  1304.98,773.326 1835.91,1079.86 
  "/>
<polyline clip-path="url(#clip652)" style="stroke:#920100; stroke-width:6; stroke-opacity:1; fill:none" points="
  1918.05,773.326 1835.91,466.791 
  "/>
<polyline clip-path="url(#clip652)" style="stroke:#541400; stroke-width:6; stroke-opacity:1; fill:none" points="
  1835.91,466.791 1611.51,242.392 
  "/>
<polyline clip-path="url(#clip652)" style="stroke:#1d2400; stroke-width:6; stroke-opacity:1; fill:none" points="
  1611.51,242.392 1304.98,160.256 
  "/>
<polyline clip-path="url(#clip652)" style="stroke:#022d00; stroke-width:6; stroke-opacity:1; fill:none" points="
  1304.98,160.256 998.445,242.392 
  "/>
<polyline clip-path="url(#clip652)" style="stroke:#003000; stroke-width:6; stroke-opacity:1; fill:none" points="
  998.445,242.392 774.046,466.791 
  "/>
<polyline clip-path="url(#clip652)" style="stroke:#002f09; stroke-width:6; stroke-opacity:1; fill:none" points="
  774.046,466.791 691.91,773.326 
  "/>
<polyline clip-path="url(#clip652)" style="stroke:#002a26; stroke-width:6; stroke-opacity:1; fill:none" points="
  691.91,773.326 774.046,1079.86 
  "/>
<polyline clip-path="url(#clip652)" style="stroke:#00188a; stroke-width:6; stroke-opacity:1; fill:none" points="
  774.046,1079.86 998.445,1304.26 
  "/>
<polyline clip-path="url(#clip652)" style="stroke:#0a00ff; stroke-width:6; stroke-opacity:1; fill:none" points="
  998.445,1304.26 1304.98,1386.4 
  "/>
<polyline clip-path="url(#clip652)" style="stroke:#3900d8; stroke-width:6; stroke-opacity:1; fill:none" points="
  1304.98,1386.4 1611.51,1304.26 
  "/>
<polyline clip-path="url(#clip652)" style="stroke:#720062; stroke-width:6; stroke-opacity:1; fill:none" points="
  1611.51,1304.26 1835.91,1079.86 
  "/>
<circle clip-path="url(#clip652)" cx="1918.05" cy="773.326" r="32" fill="#920100" fill-rule="evenodd" fill-opacity="1" stroke="#000000" stroke-opacity="1" stroke-width="0"/>
<circle clip-path="url(#clip652)" cx="1835.91" cy="466.791" r="32" fill="#541400" fill-rule="evenodd" fill-opacity="1" stroke="#000000" stroke-opacity="1" stroke-width="0"/>
<circle clip-path="url(#clip652)" cx="1611.51" cy="242.392" r="32" fill="#1d2400" fill-rule="evenodd" fill-opacity="1" stroke="#000000" stroke-opacity="1" stroke-width="0"/>
<circle clip-path="url(#clip652)" cx="1304.98" cy="160.256" r="32" fill="#022d00" fill-rule="evenodd" fill-opacity="1" stroke="#000000" stroke-opacity="1" stroke-width="0"/>
<circle clip-path="url(#clip652)" cx="998.445" cy="242.392" r="32" fill="#003000" fill-rule="evenodd" fill-opacity="1" stroke="#000000" stroke-opacity="1" stroke-width="0"/>
<circle clip-path="url(#clip652)" cx="774.046" cy="466.791" r="32" fill="#002f09" fill-rule="evenodd" fill-opacity="1" stroke="#000000" stroke-opacity="1" stroke-width="0"/>
<circle clip-path="url(#clip652)" cx="691.91" cy="773.326" r="32" fill="#002a26" fill-rule="evenodd" fill-opacity="1" stroke="#000000" stroke-opacity="1" stroke-width="0"/>
<circle clip-path="url(#clip652)" cx="774.046" cy="1079.86" r="32" fill="#00188a" fill-rule="evenodd" fill-opacity="1" stroke="#000000" stroke-opacity="1" stroke-width="0"/>
<circle clip-path="url(#clip652)" cx="998.445" cy="1304.26" r="32" fill="#0a00ff" fill-rule="evenodd" fill-opacity="1" stroke="#000000" stroke-opacity="1" stroke-width="0"/>
<circle clip-path="url(#clip652)" cx="1304.98" cy="1386.4" r="32" fill="#3900d8" fill-rule="evenodd" fill-opacity="1" stroke="#000000" stroke-opacity="1" stroke-width="0"/>
<circle clip-path="url(#clip652)" cx="1611.51" cy="1304.26" r="32" fill="#720062" fill-rule="evenodd" fill-opacity="1" stroke="#000000" stroke-opacity="1" stroke-width="0"/>
<circle clip-path="url(#clip652)" cx="1835.91" cy="1079.86" r="32" fill="#860017" fill-rule="evenodd" fill-opacity="1" stroke="#000000" stroke-opacity="1" stroke-width="0"/>
</svg>
