<?xml version="1.0" encoding="UTF-8" standalone="no"?>
<svg
   width="1024"
   height="1024"
   viewBox="0 0 270.93333 270.93333"
   version="1.1"
   id="svg8"
   sodipodi:docname="Command_Logo.svg"
   inkscape:export-filename="C:\Users\Alex\Command\Assets\Resources\Command_Logo.png"
   inkscape:export-xdpi="96.000008"
   inkscape:export-ydpi="96.000008"
   inkscape:version="1.4 (86a8ad7, 2024-10-11)"
   xmlns:inkscape="http://www.inkscape.org/namespaces/inkscape"
   xmlns:sodipodi="http://sodipodi.sourceforge.net/DTD/sodipodi-0.dtd"
   xmlns="http://www.w3.org/2000/svg"
   xmlns:svg="http://www.w3.org/2000/svg"
   xmlns:rdf="http://www.w3.org/1999/02/22-rdf-syntax-ns#"
   xmlns:cc="http://creativecommons.org/ns#"
   xmlns:dc="http://purl.org/dc/elements/1.1/">
  <defs
     id="defs2" />
  <sodipodi:namedview
     id="base"
     pagecolor="#ffffff"
     bordercolor="#666666"
     borderopacity="1.0"
     inkscape:pageopacity="0"
     inkscape:pageshadow="2"
     inkscape:zoom="0.5"
     inkscape:cx="488"
     inkscape:cy="479"
     inkscape:document-units="mm"
     inkscape:current-layer="layer1"
     showgrid="false"
     fit-margin-top="0"
     fit-margin-right="0"
     fit-margin-left="0"
     fit-margin-bottom="0"
     units="px"
     inkscape:pagecheckerboard="false"
     showborder="true"
     borderlayer="false"
     inkscape:showpageshadow="true"
     inkscape:window-width="2560"
     inkscape:window-height="1377"
     inkscape:window-x="-8"
     inkscape:window-y="-8"
     inkscape:window-maximized="1"
     inkscape:document-rotation="0"
     inkscape:deskcolor="#d1d1d1" />
  <metadata
     id="metadata5">
    <rdf:RDF>
      <cc:Work
         rdf:about="">
        <dc:format>image/svg+xml</dc:format>
        <dc:type
           rdf:resource="http://purl.org/dc/dcmitype/StillImage" />
      </cc:Work>
    </rdf:RDF>
  </metadata>
  <g
     inkscape:label="Layer 1"
     inkscape:groupmode="layer"
     id="layer1"
     transform="translate(-400.78352,145.3077)"
     style="display:inline">
    <g
       id="g1"
       transform="matrix(1.254,0,0,1.254,-120.95763,17.749158)">
      <path
         style="fill:#262626;fill-opacity:1;stroke:none;stroke-width:0.463;stroke-miterlimit:4;stroke-dasharray:none;stroke-dashoffset:0;stroke-opacity:1;filter:url(#filter4138)"
         d="m 536.69849,-124.75671 v 54.549651 a 49.888568,49.888568 0 0 1 35.6267,35.59627 h 54.4783 a 103.61472,103.61472 0 0 0 -90.105,-90.145921 z m -25.2186,0.0408 a 103.61472,103.61472 0 0 0 -90.14544,90.105101 h 54.54912 a 49.888568,49.888568 0 0 1 35.59632,-35.62675 z M 421.37474,-9.3927074 A 103.61472,103.61472 0 0 0 511.47989,80.753215 V 26.203561 a 49.888568,49.888568 0 0 1 -35.6268,-35.5962684 z m 150.91945,0 a 49.888568,49.888568 0 0 1 -35.5957,35.6267784 v 54.478324 a 103.61472,103.61472 0 0 0 90.1454,-90.1051024 z"
         id="path1279"
         inkscape:connector-curvature="0" />
      <circle
         style="fill:#d51032;fill-opacity:1;stroke:none;stroke-width:0.443038;stroke-miterlimit:4;stroke-dasharray:none;stroke-dashoffset:0;stroke-opacity:1;filter:url(#filter4126)"
         id="path1330"
         cx="524.08917"
         cy="-22.001747"
         r="38.375824" />
    </g>
  </g>
</svg>
