<?xml version="1.0" encoding="UTF-8" standalone="no"?>
<!-- Created with Inkscape (http://www.inkscape.org/) -->

<svg
   width="59.733597mm"
   height="61.000004mm"
   viewBox="0 0 59.733597 61.000004"
   version="1.1"
   id="svg1"
   inkscape:version="1.4 (86a8ad7, 2024-10-11)"
   sodipodi:docname="parse.svg"
   xmlns:inkscape="http://www.inkscape.org/namespaces/inkscape"
   xmlns:sodipodi="http://sodipodi.sourceforge.net/DTD/sodipodi-0.dtd"
   xmlns="http://www.w3.org/2000/svg"
   xmlns:svg="http://www.w3.org/2000/svg">
  <sodipodi:namedview
     id="namedview1"
     pagecolor="#ffffff"
     bordercolor="#666666"
     borderopacity="1.0"
     inkscape:showpageshadow="2"
     inkscape:pageopacity="0.0"
     inkscape:pagecheckerboard="0"
     inkscape:deskcolor="#d1d1d1"
     inkscape:document-units="mm"
     inkscape:zoom="1.5357649"
     inkscape:cx="96.368917"
     inkscape:cy="192.41226"
     inkscape:window-width="2560"
     inkscape:window-height="1377"
     inkscape:window-x="-8"
     inkscape:window-y="-8"
     inkscape:window-maximized="1"
     inkscape:current-layer="g8" />
  <defs
     id="defs1" />
  <g
     inkscape:label="Layer 1"
     inkscape:groupmode="layer"
     id="layer1"
     transform="translate(-51.37079,-61.392494)">
    <g
       id="g8"
       transform="translate(0.50020258,0.51136871)">
      <g
         id="g10"
         transform="translate(1.000203,1.0214074)">
        <g
           id="g9"
           transform="translate(1.2059679,-0.0799815)">
          <path
             style="fill:none;stroke:#0d0d0d;stroke-width:5;stroke-linecap:round;stroke-linejoin:miter;stroke-dasharray:none;stroke-opacity:1"
             d="M 59.047566,73.010001 H 77.183428"
             id="path1"
             sodipodi:nodetypes="cc" />
          <path
             style="fill:none;stroke:#0d0d0d;stroke-width:5;stroke-linecap:round;stroke-linejoin:miter;stroke-dasharray:none;stroke-opacity:1"
             d="M 59.047566,81.724851 H 73.479258"
             id="path1-8"
             sodipodi:nodetypes="cc" />
          <path
             style="fill:none;stroke:#0d0d0d;stroke-width:5;stroke-linecap:round;stroke-linejoin:miter;stroke-dasharray:none;stroke-opacity:1"
             d="M 59.047566,90.439701 H 76.654262"
             id="path1-5"
             sodipodi:nodetypes="cc" />
          <path
             style="fill:none;stroke:#0d0d0d;stroke-width:5;stroke-linecap:round;stroke-linejoin:miter;stroke-dasharray:none;stroke-opacity:1"
             d="M 59.047566,99.15455 H 84.062599"
             id="path1-1"
             sodipodi:nodetypes="cc" />
          <path
             style="fill:none;stroke:#0d0d0d;stroke-width:5;stroke-linecap:round;stroke-linejoin:miter;stroke-dasharray:none;stroke-opacity:1"
             d="M 59.047566,107.8694 H 72.420925"
             id="path1-7"
             sodipodi:nodetypes="cc" />
        </g>
        <path
           id="path3"
           style="fill:none;stroke:#1a1a1a;stroke-width:6;stroke-linecap:round;stroke-linejoin:miter;stroke-dasharray:none;stroke-opacity:1"
           d="m 97.857954,92.304106 8.746026,15.609174 m -3.65443,-24.45249 a 10,10 0 0 1 -10.000006,9.999996 10,10 0 0 1 -10,-9.999996 10,10 0 0 1 10,-10 10,10 0 0 1 10.000006,10 z M 92.870384,93.534719 v 19.325001 c 0,2.77 -2.23,5 -5,5 h -30 c -2.77,0 -5,-2.23 -5,-5 V 67.859718 c 0,-2.77 2.23,-5 5,-5 h 30 c 2.77,0 5,2.23 5,5 v 5.429167" />
      </g>
    </g>
  </g>
</svg>
