<?xml version="1.0" encoding="UTF-8" standalone="no"?>
<svg
   width="910"
   height="910"
   viewBox="0 0 910 910"
   version="1.1"
   id="svg8"
   sodipodi:docname="Unity_Logo.svg"
   inkscape:export-filename="C:\Users\Alex\Command\Assets\Resources\Command_Logo.png"
   inkscape:export-xdpi="96.000008"
   inkscape:export-ydpi="96.000008"
   inkscape:version="1.4 (86a8ad7, 2024-10-11)"
   xmlns:inkscape="http://www.inkscape.org/namespaces/inkscape"
   xmlns:sodipodi="http://sodipodi.sourceforge.net/DTD/sodipodi-0.dtd"
   xmlns="http://www.w3.org/2000/svg"
   xmlns:svg="http://www.w3.org/2000/svg"
   xmlns:rdf="http://www.w3.org/1999/02/22-rdf-syntax-ns#"
   xmlns:cc="http://creativecommons.org/ns#"
   xmlns:dc="http://purl.org/dc/elements/1.1/">
  <defs
     id="defs2" />
  <sodipodi:namedview
     id="base"
     pagecolor="#ffffff"
     bordercolor="#666666"
     borderopacity="1.0"
     inkscape:pageopacity="0"
     inkscape:pageshadow="2"
     inkscape:zoom="0.5"
     inkscape:cx="333"
     inkscape:cy="415"
     inkscape:document-units="mm"
     inkscape:current-layer="g1"
     showgrid="false"
     fit-margin-top="0"
     fit-margin-right="0"
     fit-margin-left="0"
     fit-margin-bottom="0"
     units="px"
     inkscape:pagecheckerboard="false"
     showborder="true"
     borderlayer="false"
     inkscape:showpageshadow="true"
     inkscape:window-width="2560"
     inkscape:window-height="1377"
     inkscape:window-x="-8"
     inkscape:window-y="-8"
     inkscape:window-maximized="1"
     inkscape:document-rotation="0"
     inkscape:deskcolor="#d1d1d1">
    <inkscape:page
       x="0"
       y="0"
       width="910"
       height="910"
       id="page1"
       margin="0"
       bleed="0" />
  </sodipodi:namedview>
  <metadata
     id="metadata5">
    <rdf:RDF>
      <cc:Work
         rdf:about="">
        <dc:format>image/svg+xml</dc:format>
        <dc:type
           rdf:resource="http://purl.org/dc/dcmitype/StillImage" />
      </cc:Work>
    </rdf:RDF>
  </metadata>
  <g
     inkscape:label="Layer 1"
     inkscape:groupmode="layer"
     id="layer1"
     transform="translate(-555.77156,80.874176)"
     style="display:inline">
    <g
       id="g1"
       transform="matrix(1.254,0,0,1.254,-120.95763,17.749158)">
      <path
         d="m 930.34543,52.991918 113.99987,65.800012 c 4.1,2.3 4.2,8.8 0,11 0,0 -135.49987,78.2 -135.49987,78.2 -4.1,2.4 -8.9,2.2 -12.8,0 l -135.4,-78.2 c -4.1,-2.3 -4.3,-8.8 0,-11 l 113.9,-65.800012 v -128.8 l -290.8,167.9 v 335.800002 -1.5 1.5 l 111.6,-64.4 V 231.89193 c -0.1,-4.7 5.5,-8 9.6,-5.5 l 135.5,78.2 c 4.1,2.4 6.4,6.7 6.4,11.1 v 156.39999 c 0.1,4.7 -5.4,8 -9.5,5.5 l -114,-65.8 -111.7,64.5 290.8,167.9 290.79987,-167.9 -111.4999,-64.4 -113.99997,65.8 c -4,2.4 -9.7,-0.7 -9.5,-5.5 0,0 0,-156.39999 0,-156.39999 0,-4.7 2.6,-8.9 6.4,-11.1 l 135.39987,-78.2 c 4,-2.5 9.7,0.7 9.6,5.5 v 131.59999 l 111.6,64.4 V 92.091918 l -290.89987,-167.9 z"
         id="path1" />
    </g>
  </g>
</svg>
